/* XPM */
static char *result[] = {
/* columns rows colors chars-per-pixel */
"60 60 229 2 ",
"   c black",
".  c #050000",
"X  c #060000",
"o  c #070000",
"O  c #040303",
"+  c gray2",
"@  c #060505",
"#  c #060606",
"$  c #070909",
"%  c #090808",
"&  c #080909",
"*  c #090909",
"=  c gray4",
"-  c #0C0C0C",
";  c gray5",
":  c #0E0C0C",
">  c #0D0F0F",
",  c gray6",
"<  c #100000",
"1  c #110000",
"2  c #130000",
"3  c #160000",
"4  c #170000",
"5  c #190000",
"6  c #1C0000",
"7  c #1D0000",
"8  c #1E0000",
"9  c #1F0000",
"0  c #1E0808",
"q  c #121010",
"w  c #141212",
"e  c #161515",
"r  c #181515",
"t  c #191717",
"y  c #1A1717",
"u  c #181818",
"i  c #181B1B",
"p  c #1B1B1B",
"a  c #1E1A1A",
"s  c #1E1B1B",
"d  c #191C1C",
"f  c #1D1C1C",
"g  c #1E1E1E",
"h  c #280000",
"j  c #2A0000",
"k  c #2D0000",
"l  c #2E0000",
"z  c #2F0000",
"x  c #2E0D0D",
"c  c #310000",
"v  c #340000",
"b  c #3D0000",
"n  c #221F1F",
"m  c #272222",
"M  c #272323",
"N  c #272727",
"B  c #2E2828",
"V  c gray18",
"C  c #302D2D",
"Z  c #342E2E",
"A  c gray19",
"S  c #373030",
"D  c gray23",
"F  c #3F3838",
"G  c #3C3C3C",
"H  c #470000",
"J  c #4C0000",
"K  c #510000",
"L  c #550000",
"P  c #560000",
"I  c #570000",
"U  c #580000",
"Y  c #5D0000",
"T  c #401313",
"R  c #431515",
"E  c #630000",
"W  c #680000",
"Q  c #6B0000",
"!  c #6C0000",
"~  c #730000",
"^  c #7A0000",
"/  c #7C0000",
"(  c #780606",
")  c #7B1010",
"_  c #423B3B",
"`  c #453D3D",
"'  c #5D3F3F",
"]  c #434141",
"[  c #464444",
"{  c #4D4444",
"}  c #4F4646",
"|  c #4C4C4C",
" . c #524848",
".. c #534949",
"X. c #534A4A",
"o. c #554B4B",
"O. c #554C4C",
"+. c #584F4F",
"@. c gray33",
"#. c #5F5F5F",
"$. c #706363",
"%. c #766A6A",
"&. c #776A6A",
"*. c #7A6D6D",
"=. c #7E6C6C",
"-. c #890000",
";. c #8D0000",
":. c #920000",
">. c #940000",
",. c #A90000",
"<. c #AA0000",
"1. c #B80000",
"2. c #BA0000",
"3. c #BD0000",
"4. c #C10000",
"5. c #C30000",
"6. c #C60000",
"7. c #CB0101",
"8. c #D10000",
"9. c #D30000",
"0. c #D50000",
"q. c #D70000",
"w. c #D80000",
"e. c #D90000",
"r. c #DA0000",
"t. c #D80202",
"y. c #E00000",
"u. c #E20000",
"i. c #E30000",
"p. c #E40000",
"a. c #E60000",
"s. c #EC0000",
"d. c #EE0000",
"f. c #EF0000",
"g. c #F00000",
"h. c #F10000",
"j. c #F20000",
"k. c #F50000",
"l. c #F80000",
"z. c #F90000",
"x. c #FA0000",
"c. c #FC0000",
"v. c #FD0000",
"b. c #FE0000",
"n. c red",
"m. c #807171",
"M. c #807272",
"N. c #817272",
"B. c #827373",
"V. c #827474",
"C. c #837474",
"Z. c #807676",
"A. c #847575",
"S. c #857575",
"D. c #877878",
"F. c #8C7D7D",
"G. c #907F7F",
"H. c #858686",
"J. c #948383",
"K. c #958484",
"L. c #988787",
"P. c #9A8989",
"I. c #9B8989",
"U. c #9B8A8A",
"Y. c #9D8B8B",
"T. c #9E8C8C",
"R. c #A08E8E",
"E. c #A18E8E",
"W. c #A69292",
"Q. c #A69393",
"!. c #A79393",
"~. c #A79494",
"^. c #A49797",
"/. c #A89494",
"(. c #A89595",
"). c #A99696",
"_. c #AA9696",
"`. c #AA9797",
"'. c #AB9898",
"]. c #AF9E9E",
"[. c #B09C9C",
"{. c #B2A3A3",
"}. c #B1ACAC",
"|. c #B4ACAC",
" X c #B9AAAA",
".X c #BBACAC",
"XX c #BBADAD",
"oX c #BCADAD",
"OX c gray70",
"+X c #B7B0B0",
"@X c #B6B1B1",
"#X c #C4B7B7",
"$X c #C3B9B9",
"%X c #C6B9B9",
"&X c #C6BABA",
"*X c #CBBFBF",
"=X c gray77",
"-X c #C6C6C6",
";X c gray78",
":X c gray80",
">X c #CDCDCD",
",X c #CDCECE",
"<X c #CECECE",
"1X c gray81",
"2X c #D1C7C7",
"3X c #D2C8C8",
"4X c #D3C9C9",
"5X c #D4CACA",
"6X c #D4CBCB",
"7X c #D5D4D4",
"8X c #D8D8D8",
"9X c #DCDBDB",
"0X c #DDDCDC",
"qX c #DFE0E0",
"wX c #E7E2E2",
"eX c #E6E6E6",
"rX c #E6E7E7",
"tX c #E8E2E2",
"yX c #F4F4F4",
"uX c #F6F6F6",
"iX c #F7F8F8",
"pX c #F9F9F9",
"aX c #FBFAFA",
"sX c #FBFBFB",
"dX c #FDFCFC",
"fX c #FDFDFD",
"gX c #FFFEFE",
"hX c white",
"jX c None",
/* pixels */
"jXjXjXjXjXjXjXjXjXjXjXjXjXjXjXjXjXjXjXjXjXjXjXjXjXjXjXjXjXjXjXjXjXjXjXjXjXjXjXjXjXjXjXjXjXjXjXjXjXjXjXjXjXjXjXjXjXjXjXjX",
"jXjXjXjXjXjXjXjXjXjXjXjXjXjXjXjXjXjXjXjXjXjXjXjXjXjXjXjXjXjXjXjXjXjXjXjXjXjXjXjXjXjXjXjXjXjXjXjXjXjXjXjXjXjXjXjXjXjXjXjX",
"jXjXjXjXjXjXjXjXjXjXjXjXjXjXjXjXjXjXjXjXjXjXjXjXjXjXjXjXjXjXjXjXjXjXjXjXjXjXjXjXjXjXjXjXjXjXjXjXjXjXjXjXjXjXjXjXjXjXjXjX",
"jXjXjXjXjXjXjXjXjXjXjXjXjXjXjXjXjXjXjXjXjXjXjXjXjXjXjXjXjXjXjXjXjXjXjXjXjXjXjXjXjXjXjXjXjXjXjXjXjXjXjXjXjXjXjXjXjXjXjXjX",
"jXjXjXjXjXjXjXjXjXjXjXjXjXjXjXjXjXjXjXjXjXjXjXjXjXjXjXjXjXjXjXjXjXjXjXjXjXjXjXjXjXjXjXjXjXjXjXjXjXjXjXjXjXjXjXjXjXjXjXjX",
"jXjXjXjXjXjXjXjXjXjXjXjXjXjXjXjXjXjXjXjXjXjXjXjXjXjXjXjXjXjXjXjXjXjXjXjXjXjXjXjXjXjXjXjXjXjXjXjXjXjXjXjXjXjXjXjXjXjXjXjX",
"jXjXjXjXjXjXjXjXjXjXjXjXjXjXjXjXjXjXjXjXjXjXjXjXjXjXjXjXjXjXjXjXjXjXjXjXjXjXjXjXjXjXjXjXjXjXjXjXjXjXjXjXjXjXjXjXjXjXjXjX",
"jXjXjXjXjXjXjXjXjXjXjXjXjXjXjXjXjXjXjXjXjXjXjXjXjXjXjXjXjXjXjXjXjXjXjXjXjXjXjXjXjXjXjXjXjXjXjXjXjXjXjXjXjXjXjXjXjXjXjXjX",
"jXjXjXjXjXjXjXjXjXjXjXjXjXjXjXjXjXjXjXjXjXjXjXjXjXjXjXjXjXjXjXjXjXjXjXjXjXjXjXjXjXjXjXjXjXjXjXjXjXjXjXjXjXjXjXjXjXjXjXjX",
"jXjXjXjXjXjXjXjXjXjXjXjXjXjXjXjXjXjXjXjXjXjXjXjXjXjXjXjXjXjXjXjXjXjXjXjXjXjXjXjXjXjXjXjXjXjXjXjXjXjXjXjXjXjXjXjXjXjXjXjX",
"jXjXjXjXjXjXjXjXjXjXjXjXjXjXjXjXjXjXjXjXjXjXjXjXjXjXjXjXjXjXjXjXjXjXjXjXjXjXjXjXjXjXjXjXjXjXjXjXjXjXjXjXjXjXjXjXjXjXjXjX",
"jXjXjXjXjXjXjXjXjXjXjXjXjXjXjXjXjXjXjXjXjXjXjXjXjXjXjXjXjXjXjXjXjXjXjXjXjXjXjXjXjXjXjXjXjXjXjXjXjXjXjXjXjXjXjXjXjXjXjXjX",
"jXjXjXjXjXjXjXjXjXjXjXjXjXjXjXjXjXjXjXjXjXjXjXjXjX                      jXjXjXjXjXjXjXjXjXjXjXjXjXjXjXjXjXjXjXjXjXjXjXjX",
"jXjXjXjXjXjXjXjXjXjXjXjXjXjXjXjXjXjXjXjXjXjXjXjXjX3 3 3 3 3 3 3 3 3 3 3 jXjXjXjXjXjXjXjXjXjXjXjXjXjXjXjXjXjXjXjXjXjXjXjX",
"jXjXjXjXjXjXjXjXjXjXjXjXjXjXjXjXjXjXjXjX        K 0.q.q.q.q.q.q.q.q.q.w.E         jXjXjXjXjXjXjXjXjXjXjXjXjXjXjXjXjXjXjX",
"jXjXjXjXjXjXjXjXjXjXjXjXjXjXjXjXjXjXjXjX        L n.n.n.n.n.n.n.n.n.n.n.Q         jXjXjXjXjXjXjXjXjXjXjXjXjXjXjXjXjXjXjX",
"jXjXjXjXjXjXjXjXjXjXjXjXjXjXjXjXjXjX  6 -.>.>.:.1.b.n.n.n.n.n.n.n.n.n.n.4.:.>.>.;.h   jXjXjXjXjXjXjXjXjXjXjXjXjXjXjXjXjX",
"jXjXjXjXjXjXjXjXjXjXjXjXjXjXjXjXjXjX  9 p.n.n.n.n.n.n.n.n.n.n.n.n.n.n.n.n.n.n.n.g.l   jXjXjXjXjXjXjXjXjXjXjXjXjXjXjXjXjX",
"jXjXjXjXjXjXjXjXjXjXjXjXjXjXjXjXjXjX  9 y.n.n.n.n.n.n.n.n.n.n.n.n.n.n.n.n.n.n.n.s.l   jXjXjXjXjXjXjXjXjXjXjXjXjXjXjXjXjX",
"jXjXjXjXjXjXjXjXjXjXjXjXjXjXjXjXjXjX  8 y.n.n.n.n.n.n.n.n.n.n.n.n.n.n.n.n.n.n.n.s.k   jXjXjXjXjXjXjXjXjXjXjXjXjXjXjXjXjX",
"jXjXjXjXjXjXjXjXjXjXjXjXjXjXjXjXjXjX1 z i.n.n.n.n.n.n.n.n.n.n.n.n.n.n.n.n.n.n.n.d.b < jXjXjXjXjXjXjXjXjXjXjXjXjXjXjXjXjX",
"jXjXjXjXjXjXjXjXjXjXjXjXjXjXjX    P 8.q.x.n.n.n.n.n.n.n.n.n.n.n.n.n.n.n.n.n.n.n.c.r.9.W     jXjXjXjXjXjXjXjXjXjXjXjXjXjX",
"jXjXjXjXjXjXjXjXjXjXjXjXjXjXjX    Y n.n.n.n.n.n.n.n.n.n.n.n.n.n.n.n.n.n.n.n.n.n.n.n.n.~     jXjXjXjXjXjXjXjXjXjXjXjXjXjX",
"jXjXjXjXjXjXjXjXjXjXjXjXjXjXjX    Y b.n.n.n.n.n.n.n.n.n.n.n.n.n.n.n.n.n.n.n.n.n.n.n.n.~     jXjXjXjXjXjXjXjXjXjXjXjXjXjX",
"jXjXjXjXjXjXjXjXjXjXjXjXjXjXjX    Y b.n.n.n.n.n.n.n.n.n.n.n.n.n.n.n.n.n.n.n.n.n.n.n.n.~     jXjXjXjXjXjXjXjXjXjXjXjXjXjX",
"jXjXjXjXjXjXjXjXjXjXjXjXjXjXjX    Y b.n.n.n.n.n.n.n.l.6.3.3.3.3.3.5.k.n.n.n.n.n.n.n.n.~     jXjXjXjXjXjXjXjXjXjXjXjXjXjX",
"jXjXjXjXjXjXjXjXjXjXjXjXjXjXjX    Y n.n.n.n.n.n.n.n.a.j . o o o X 7 e.n.n.n.n.n.n.n.n.~     jXjXjXjXjXjXjXjXjXjXjXjXjXjX",
"jXjXjXjXjXjXjXjXjXjXjXjXjXjXjX    I f.j.v.n.n.n.x.h.t.x > , , ; & 0 7.j.z.n.n.n.b.j.j.!     jXjXjXjXjXjXjXjXjXjXjXjXjXjX",
"jXjXjXjXjXjXjXjXjXjXjXjXjXjXjX    2 c J a.n.n.n.2.v R +X,X:X>X@XD.=.T c ,.n.n.n.g.U c 4     jXjXjXjXjXjXjXjXjXjXjXjXjXjX",
"jXjXjXjXjXjXjXjXjXjXjXjXjXjXjX        5 u.n.n.n.<.  i qXhXhXhXwX'.P.u   >.n.n.n.f.j         jXjXjXjXjXjXjXjXjXjXjXjXjXjX",
"jXjXjXjXjXjXjXjXjXjXjXjXjXjXjX    A H.A.) ^ ^ / K   e |.4X2X3X#X).L.y   H / ^ ^ ( ' +.M     jXjXjXjXjXjXjXjXjXjXjXjXjXjX",
"jXjXjXjXjXjXjXjXjXjXjXjXjXjXjX    #.hXrXd           : G._././.(.`.P.r           $ F.[.{     jXjXjXjXjXjXjXjXjXjXjXjXjXjX",
"jXjXjXjXjXjXjXjXjXjXjXjXjXjXjX    @.=XOX| D G G G D ] %.N.m.m.m.M.*.[ D C m M m B $.B._     jXjXjXjXjXjXjXjXjXjXjXjXjXjX",
"jXjXjXjXjXjXjXjXjXjXjXjXjXjXjXjXjXjX* N 8XuXyXyXyXuX9XN O # # # + p 1XiX$XT.R.E.K.n + jXjXjXjXjXjXjXjXjXjXjXjXjXjXjXjXjX",
"jXjXjXjXjXjXjXjXjXjXjXjXjXjXjXjXjXjX  g 0XfXsXaXdXhXeXV = - - = @ f 7XgX*XQ.~.(.U.a   jXjXjXjXjXjXjXjXjXjXjXjXjXjXjXjXjX",
"jXjXjXjXjXjXjXjXjXjXjXjXjXjXjXjXjXjX  e ^.oX.X X3XhXpX<X-X-X;X}.V.D.{.XX].~.~.(.I.a   jXjXjXjXjXjXjXjXjXjXjXjXjXjXjXjXjX",
"jXjXjXjXjXjXjXjXjXjXjXjXjXjXjXjXjXjX  w J._.(.!.%XhXhXhXhXhXhXtX'.).Q.W.(.).).`.Y.s   jXjXjXjXjXjXjXjXjXjXjXjXjXjXjXjXjX",
"jXjXjXjXjXjXjXjXjXjXjXjXjXjXjXjXjXjX  q } O.o...Z.4X5X5X5X5X6X&X(.~.~./.&.X.o.o. .t   jXjXjXjXjXjXjXjXjXjXjXjXjXjXjXjXjX",
"jXjXjXjXjXjXjXjXjXjXjXjXjXjXjXjXjXjXjXjX        S !.(././././.(.).).).`.`         jXjXjXjXjXjXjXjXjXjXjXjXjXjXjXjXjXjXjX",
"jXjXjXjXjXjXjXjXjXjXjXjXjXjXjXjXjXjXjXjX        Z C.A.A.A.A.A.A.A.A.A.S.F         jXjXjXjXjXjXjXjXjXjXjXjXjXjXjXjXjXjXjX",
"jXjXjXjXjXjXjXjXjXjXjXjXjXjXjXjXjXjXjXjXjXjXjXjXjX% % % % % % % % % % % jXjXjXjXjXjXjXjXjXjXjXjXjXjXjXjXjXjXjXjXjXjXjXjX",
"jXjXjXjXjXjXjXjXjXjXjXjXjXjXjXjXjXjXjXjXjXjXjXjXjX                      jXjXjXjXjXjXjXjXjXjXjXjXjXjXjXjXjXjXjXjXjXjXjXjX",
"jXjXjXjXjXjXjXjXjXjXjXjXjXjXjXjXjXjXjXjXjXjXjXjXjXjXjXjXjXjXjXjXjXjXjXjXjXjXjXjXjXjXjXjXjXjXjXjXjXjXjXjXjXjXjXjXjXjXjXjX",
"jXjXjXjXjXjXjXjXjXjXjXjXjXjXjXjXjXjXjXjXjXjXjXjXjXjXjXjXjXjXjXjXjXjXjXjXjXjXjXjXjXjXjXjXjXjXjXjXjXjXjXjXjXjXjXjXjXjXjXjX",
"jXjXjXjXjXjXjXjXjXjXjXjXjXjXjXjXjXjXjXjXjXjXjXjXjXjXjXjXjXjXjXjXjXjXjXjXjXjXjXjXjXjXjXjXjXjXjXjXjXjXjXjXjXjXjXjXjXjXjXjX",
"jXjXjXjXjXjXjXjXjXjXjXjXjXjXjXjXjXjXjXjXjXjXjXjXjXjXjXjXjXjXjXjXjXjXjXjXjXjXjXjXjXjXjXjXjXjXjXjXjXjXjXjXjXjXjXjXjXjXjXjX",
"jXjXjXjXjXjXjXjXjXjXjXjXjXjXjXjXjXjXjXjXjXjXjXjXjXjXjXjXjXjXjXjXjXjXjXjXjXjXjXjXjXjXjXjXjXjXjXjXjXjXjXjXjXjXjXjXjXjXjXjX",
"jXjXjXjXjXjXjXjXjXjXjXjXjXjXjXjXjXjXjXjXjXjXjXjXjXjXjXjXjXjXjXjXjXjXjXjXjXjXjXjXjXjXjXjXjXjXjXjXjXjXjXjXjXjXjXjXjXjXjXjX",
"jXjXjXjXjXjXjXjXjXjXjXjXjXjXjXjXjXjXjXjXjXjXjXjXjXjXjXjXjXjXjXjXjXjXjXjXjXjXjXjXjXjXjXjXjXjXjXjXjXjXjXjXjXjXjXjXjXjXjXjX",
"jXjXjXjXjXjXjXjXjXjXjXjXjXjXjXjXjXjXjXjXjXjXjXjXjXjXjXjXjXjXjXjXjXjXjXjXjXjXjXjXjXjXjXjXjXjXjXjXjXjXjXjXjXjXjXjXjXjXjXjX",
"jXjXjXjXjXjXjXjXjXjXjXjXjXjXjXjXjXjXjXjXjXjXjXjXjXjXjXjXjXjXjXjXjXjXjXjXjXjXjXjXjXjXjXjXjXjXjXjXjXjXjXjXjXjXjXjXjXjXjXjX",
"jXjXjXjXjXjXjXjXjXjXjXjXjXjXjXjXjXjXjXjXjXjXjXjXjXjXjXjXjXjXjXjXjXjXjXjXjXjXjXjXjXjXjXjXjXjXjXjXjXjXjXjXjXjXjXjXjXjXjXjX",
"jXjXjXjXjXjXjXjXjXjXjXjXjXjXjXjXjXjXjXjXjXjXjXjXjXjXjXjXjXjXjXjXjXjXjXjXjXjXjXjXjXjXjXjXjXjXjXjXjXjXjXjXjXjXjXjXjXjXjXjX",
"jXjXjXjXjXjXjXjXjXjXjXjXjXjXjXjXjXjXjXjXjXjXjXjXjXjXjXjXjXjXjXjXjXjXjXjXjXjXjXjXjXjXjXjXjXjXjXjXjXjXjXjXjXjXjXjXjXjXjXjX",
"jXjXjXjXjXjXjXjXjXjXjXjXjXjXjXjXjXjXjXjXjXjXjXjXjXjXjXjXjXjXjXjXjXjXjXjXjXjXjXjXjXjXjXjXjXjXjXjXjXjXjXjXjXjXjXjXjXjXjXjX",
"jXjXjXjXjXjXjXjXjXjXjXjXjXjXjXjXjXjXjXjXjXjXjXjXjXjXjXjXjXjXjXjXjXjXjXjXjXjXjXjXjXjXjXjXjXjXjXjXjXjXjXjXjXjXjXjXjXjXjXjX",
"jXjXjXjXjXjXjXjXjXjXjXjXjXjXjXjXjXjXjXjXjXjXjXjXjXjXjXjXjXjXjXjXjXjXjXjXjXjXjXjXjXjXjXjXjXjXjXjXjXjXjXjXjXjXjXjXjXjXjXjX",
"jXjXjXjXjXjXjXjXjXjXjXjXjXjXjXjXjXjXjXjXjXjXjXjXjXjXjXjXjXjXjXjXjXjXjXjXjXjXjXjXjXjXjXjXjXjXjXjXjXjXjXjXjXjXjXjXjXjXjXjX",
"jXjXjXjXjXjXjXjXjXjXjXjXjXjXjXjXjXjXjXjXjXjXjXjXjXjXjXjXjXjXjXjXjXjXjXjXjXjXjXjXjXjXjXjXjXjXjXjXjXjXjXjXjXjXjXjXjXjXjXjX",
"jXjXjXjXjXjXjXjXjXjXjXjXjXjXjXjXjXjXjXjXjXjXjXjXjXjXjXjXjXjXjXjXjXjXjXjXjXjXjXjXjXjXjXjXjXjXjXjXjXjXjXjXjXjXjXjXjXjXjXjX"
};
