/* XPM */
static char *result[] = {
/* columns rows colors chars-per-pixel */
"60 60 233 2 ",
"   c #141A2D",
".  c #12172A",
"X  c #161D32",
"o  c #191F32",
"O  c #0F1628",
"+  c #1C2333",
"@  c #1B253C",
"#  c #1D273B",
"$  c #1B222E",
"%  c #222A3C",
"&  c #222834",
"*  c #2B3135",
"=  c #353839",
"-  c #3C3F2D",
";  c #413D36",
":  c #3C423A",
">  c #444639",
",  c #4C5238",
"<  c #595B3D",
"1  c #54583A",
"2  c #514C30",
"3  c #625F38",
"4  c #6D5926",
"5  c #696938",
"6  c #756C30",
"7  c #232E41",
"8  c #253145",
"9  c #2A3444",
"0  c #29364A",
"q  c #2D3A4C",
"w  c #2A3647",
"e  c #333D4B",
"r  c #363C45",
"t  c #2E3E52",
"y  c #333F51",
"u  c #1F2A41",
"i  c #3B434C",
"p  c #3A4248",
"a  c #344253",
"s  c #3A4553",
"d  c #3E4A55",
"f  c #3C4B5B",
"g  c #364659",
"h  c #434B4C",
"j  c #464B47",
"k  c #4D544C",
"l  c #4C5247",
"z  c #575A47",
"x  c #434C53",
"c  c #424E5C",
"v  c #484F57",
"b  c #45515B",
"n  c #4B545C",
"m  c #4B5556",
"M  c #525A5B",
"N  c #555A57",
"B  c #5B625B",
"V  c #5C6257",
"C  c #686949",
"Z  c #7B764D",
"A  c #7A7746",
"S  c #6C6C55",
"D  c #666A5A",
"F  c #676958",
"G  c #6B725B",
"H  c #747354",
"J  c #767858",
"K  c #716E50",
"L  c #455461",
"P  c #4B5662",
"I  c #4D5A64",
"U  c #4F5B68",
"Y  c #535C63",
"T  c #535C66",
"R  c #5B6364",
"E  c #55626B",
"W  c #5B666A",
"Q  c #5C6A6E",
"!  c #546369",
"~  c #5C6B73",
"^  c #5A6876",
"/  c #616A63",
"(  c #636B6A",
")  c #646968",
"_  c #6D7364",
"`  c #697269",
"'  c #727561",
"]  c #777C69",
"[  c #626D74",
"{  c #606670",
"}  c #637174",
"|  c #6B7473",
" . c #6D7A7C",
".. c #68757A",
"X. c #727C7C",
"o. c #737A75",
"O. c #625C4C",
"+. c #857934",
"@. c #8B731E",
"#. c #837B44",
"$. c #847C4B",
"%. c #837345",
"&. c #837C52",
"*. c #75817C",
"=. c #7B837D",
"-. c #7B8275",
";. c #7E8258",
":. c #8D853B",
">. c #968939",
",. c #9B983B",
"<. c #AA9824",
"1. c #A59838",
"2. c #B19C2A",
"3. c #B7A529",
"4. c #B6A834",
"5. c #BEB137",
"6. c #CFB715",
"7. c #C9B528",
"8. c #C5B539",
"9. c #CDB627",
"0. c #E5CD15",
"q. c #EBD215",
"w. c #EFD70D",
"e. c #F4E81A",
"r. c #D5C326",
"t. c #D3C538",
"y. c #F3DC36",
"u. c #E7D22C",
"i. c #F1E328",
"p. c #8B8243",
"a. c #848449",
"s. c #978D45",
"d. c #999446",
"f. c #898557",
"g. c #918A58",
"h. c #98965A",
"j. c #A49947",
"k. c #A19D57",
"l. c #B4A944",
"z. c #BEB645",
"x. c #ABA856",
"c. c #BAB658",
"v. c #AEA650",
"b. c #848667",
"n. c #979967",
"m. c #858A7A",
"M. c #8C937C",
"N. c #8B9478",
"B. c #959B78",
"V. c #9AA274",
"C. c #A5A76C",
"Z. c #B7B566",
"A. c #AAAD7A",
"S. c #A4A976",
"D. c #ADB37D",
"F. c #AEB374",
"G. c #AEB26B",
"H. c #C4BD51",
"J. c #C1BF72",
"K. c #BFC17A",
"L. c #D3CB4E",
"P. c #EAD841",
"I. c #F5E654",
"U. c #F5E34B",
"Y. c #CACA74",
"T. c #D3D27B",
"R. c #CDCB6D",
"E. c #F4E866",
"W. c #F6EA77",
"Q. c #FFF570",
"!. c #6B7982",
"~. c #737D80",
"^. c #758283",
"/. c #7A8584",
"(. c #7E8984",
"). c #7C8A8A",
"_. c #77858A",
"`. c #838C85",
"'. c #828D8B",
"]. c #888C87",
"[. c #85918C",
"{. c #8B938C",
"}. c #8E9789",
"|. c #929B8C",
" X c #939885",
".X c #8E9B92",
"XX c #879291",
"oX c #949D94",
"OX c #959E96",
"+X c #9AA38B",
"@X c #9BA494",
"#X c #9CA69B",
"$X c #99A599",
"%X c #A4A989",
"&X c #AEB585",
"*X c #A5AA93",
"=X c #A3AD9C",
"-X c #A7AB99",
";X c #ACB39D",
":X c #B5B998",
">X c #B9B786",
",X c #A6ADA3",
"<X c #ACB3A2",
"1X c #AFB7AA",
"2X c #B3BBA5",
"3X c #B6BBA8",
"4X c #B2BAB1",
"5X c #BCC1AB",
"6X c #BCC3B4",
"7X c #D6D685",
"8X c #C6C895",
"9X c #CACC85",
"0X c #F6ED86",
"qX c #F9F18A",
"wX c #F9F39C",
"eX c #C5C9AC",
"rX c #C4C9B7",
"tX c #D4D8BA",
"yX c #CED3BE",
"uX c #DEE0BC",
"iX c #F8F3A8",
"pX c #FBF8B8",
"aX c #D1D6C7",
"sX c #D6DBC8",
"dX c #CAD0C2",
"fX c #FCFBD6",
"gX c #F9F7C6",
"hX c #FDFDEC",
"jX c #F7F8E5",
"kX c #FDFEF4",
"lX c #FEFFFE",
"zX c #DEE5CD",
"xX c None",
/* pixels */
"xXxXxXxXxXxXxXxXxXxXxXxXxXxXxXxXxXxXxXxXxXxXxXxXxXxXxXxXxXxXxXxXxXxXxXxXxXxXxXxXxXxXxXxXxXxXxXxXxXxXxXxXxXxXxXxXxXxXxXxX",
"xXxXxXxXxXxXxXxXxXxXxXxXxXxXxXxXxXxXxXxXxXxXxXxXxXxXxXxXxXxXxXxXxXxXxXxXxXxXxXxXxXxXxXxXxXxXxXxXxXxXxXxXxXxXxXxXxXxXxXxX",
"xXxXxXxXxXxXxXxXxXxXxXxXxXxXxXxXxXxXxXxXxXxXxXxXxXxXxXxXxXxXxXxXxXxXxXxXxXxXxXxXxXxXxXxXxXxXxXxXxXxXxXxXxXxXxXxXxXxXxXxX",
"xXxXxXxXxXxXxXxXxXxXxXxXxXxXxXxXxXxXxXxXxXxXxXxXxXxXxXxXxXxXxXxXxXxXxXxXxXxXxXxXxXxXxXxXxXxXxXxXxXxXxXxXxXxXxXxXxXxXxXxX",
"xXxXxXxXxXxXxXxXxXxXxXxXxXxXxXxXxXxXxXxXxXxXxXxXxXxXxXxXxXxXxXxXxXxXxXxXxXxXxXxXxXxXxXxXxXxXxXxXxXxXxXxXxXxXxXxXxXxXxXxX",
"xXxXxXxXxXxXxXxXxXxXxXxXxXxXxXxXxXxXxXxXxXxXxXxXxXxXxXxXxXxXxXxXxXxXxXxXxXxXxXxXxXxXxXxXxXxXxXxXxXxXxXxXxXxXxXxXxXxXxXxX",
"xXxXxXxXxXxXxXxXxXxXxXxXxXxXxXxXxXxXxXxXxXxXxXxXxXxXxXxXxXxXxXxXxXxXxXxXxXxXxXxXxXxXxXxXxXxXxXxXxXxXxXxXxXxXxXxXxXxXxXxX",
"xXxXxXxXxXxXxXxXxXxXxXxXxXxXxXxXxXxXxXxXxXxXxXxXxXxXxXxXxX,XjXjXjXjX{.xXxXxXxXxXxXxXxXxXxXxXxXxXxXxXxXxXxXxXxXxXxXxXxXxX",
"xXxXxXxXxXxXxXxXxXxXxXxXxXxXxXxXxXxXxXxXxXxXxX{ T Y n x P dXsX6XrXzX4XP n P P P xXxXxXxXxXxXxXxXxXxXxXxXxXxXxXxXxXxXxXxX",
"xXxXxXxXxXxXxXxXxXxXxXxXxXxXxXxXxXxXxXxXxXxX| rXaXaXsXdX{ $X`.S D {._.).aXaXaXsX4X( xXxXxXxXxXxXxXxXxXxXxXxXxXxXxXxXxXxX",
"xXxXxXxXxXxXxXxXxXxXxXxXxXxXxXxXxXxXxXxXxXY <XeX3X3X3X<X! ).C 7XJ.B !.~ 3X3X3XeXtXOXi xXxXxXxXxXxXxXxXxXxXxXxXxXxXxXxXxX",
"xXxXxXxXxXxXxXxXxXxXxXxXxXxXxXxXxXxXxXxX) <X<X3X|.}.2X-Xb ).C L.z.D ..T 3X;X(.=X3X=X.X) xXxXxXxXxXxXxXxXxXxXxXxXxXxXxXxX",
"xXxXxXxXxXxXxXxXxXxXxXxXxXxXxXxXxXxXxXT 1X.X^.3X;X+X;X.Xa oX`.< z oX} f ,X@X.X2X2X~ ).<XY xXxXxXxXxXxXxXxXxXxXxXxXxXxXxX",
"xXxXxXxXxXxXxXxXxXxXxXxXxXxXxXxXxXxXv #X2X4X~ {.=X@X}.} 8 _..X*.`.|.R t `.oX#X=X/.T <X3XOXb xXxXxXxXxXxXxXxXxXxXxXxXxXxX",
"xXxXxXxXxXxXxXxXxXxXxXxXxXxXxXxXxXe {.<X|.<X{.v O.j = %   w r w r = * + = > k z j ].<X@X<XX.xXxXxXxXxXxXxXxXxXxXxXxXxXxX",
"xXxXxXxXxXxXxXxXxXxXxXxXxXxXxXxX+ d ^.{.[.*XB.-   $ X         O .   X + X X   . - C.%X{.{.o.9 xXxXxXxXxXxXxXxXxXxXxXxXxX",
"xXxXxXxXxXxXxXxXxXxXxXxXxXxXxXx o.X.X.=.(.-.< * g Y R ^ Q n b 9 b R ` | | ! n a $ 2 g.`./.o.o.| e xXxXxXxXxXxXxXxXxXxXxX",
"xXxXxXxXxXxXxXxXxXxXxXxXxXxXxXP rX.Xo.=XaX&.. i J $.N P I > = % x l O.B m V Z -.t O F tX=X-.#X4Xy xXxXxXxXxXxXxXxXxXxXxX",
"xXxXxXxXxXxXxXxXxXxXxXxXxXxXxXU { ;.Y._ {./ @ N +.4 = x x h m l V k h d f = 4 %.W @ x o.C Z.K ..s xXxXxXxXxXxXxXxXxXxXxX",
"xXxXxXxXxXxXxXxXxXxXxXxXxXxXxXP N z.Q.h.}./ 0 ' 2 > H D F S ] H b.H D D D V = C m.8 v _ 5.E.>.Q d xXxXxXxXxXxXxXxXxXxXxX",
"xXxXxXxXxXxXxXxXxXxXxXxXxXxXxXU X.6 <.j +XG a -.* ,.v.S K Z f.Z h.f.Z H H G M j M.e N |.6 2.C ~.y xXxXxXxXxXxXxXxXxXxXxX",
"xXxXxXxXxXxXxXxXxXxXxXxXxXxXxXn $X .N /.8X;.d N.p a.c.x.$.#.s.#.k.s.p.p.%.H V k B.a C 8X`.M ^.'.r xXxXxXxXxXxXxXxXxXxXxX",
"xXxXxXxXxXxXxXxXxXxXxXxXxXxXxX% c T R Y 5 > l n.h F k.L.4.<.7.2.8.9.7.3.,.%.F z C.j : H R M x e + xXxXxXxXxXxXxXxXxXxXxX",
"xXxXxXxXxXxXxXxXxXxXxXxXxXxXxX  + 7 7 p > $ f N.j H A 4.q.I.E.I.I.I.E.W.9.:.K z n.i * z e 8 w X xXxXxXxXxXxXxXxXxXxXxXxX",
"xXxXxXxXxXxXxXxXxXxXxXxXxXxXxXxXd U E m.Z., L B.l Z :.2.i.pXhXhXhXhXkXfXP.:.Z z C.f , Y. .[ X.e xXxXxXxXxXxXxXxXxXxXxXxX",
"xXxXxXxXxXxXxXxXxXxXxXxXxXxXxXxX} _.[ ) n.< k S.< ;.>.3.y.0XjXlXlXlXfXI.9.>.+.3 G.v , 9X].@XoXn xXxXxXxXxXxXxXxXxXxXxXxX",
"xXxXxXxXxXxXxXxXxXxXxXxXxXxXxXxX^ XXOX%XR.< c K.H.l.1.3.6.y.fXlXlXhXW.6.1.z.L.d.G.f 1 9X<XOX(.L xXxXxXxXxXxXxXxXxXxXxXxX",
"xXxXxXxXxXxXxXxXxXxXxXxXxXxXxXxX8 `.;X;Xn.- P Z.2.L.L.6.0.iXlXlXkX0Xq.r.t.L.l.5 F.b - N.*X*X) 8 xXxXxXxXxXxXxXxXxXxXxXxX",
"xXxXxXxXxXxXxXxXxXxXxXxXxXxXxXxXn }.|  Xm.r Y C.1 >.t.q.E.hXlXlXqXw.w.0.9.5.:.5 G.b 9 -.].| m.s xXxXxXxXxXxXxXxXxXxXxXxX",
"xXxXxXxXxXxXxXxXxXxXxXxXxXxXxXxX| |. X:X>XF M C.< >.7.P.fXlXlXkXqXI.U.y.7.1.,.A Z.b N tX:X].`.v xXxXxXxXxXxXxXxXxXxXxXxX",
"xXxXxXxXxXxXxXxXxXxXxXxXxXxXxXxX{ `.*X-XD.z V C.< >.r.wXlXlXlXlXkXkXkXfXP.j.a.C g.F l 8X-XOX{.v xXxXxXxXxXxXxXxXxXxXxXxX",
"xXxXxXxXxXxXxXxXxXxXxXxXxXxXxXxXr ].;X:X7X5 h C.z >.r.iXjXjXhXkXlXlXkXpXt.+.n.A.J v 3 T.#X'.o.9 xXxXxXxXxXxXxXxXxXxXxXxX",
"xXxXxXxXxXxXxXxXxXxXxXxXxXxXxXxXQ #X'.@XT.5 L S.z >.7.u.y.i.U.gXlXkX0Xi.9.6 x.' v q < T.=X$X{.f xXxXxXxXxXxXxXxXxXxXxXxX",
"xXxXxXxXxXxXxXxXxXxXxXxXxXxXxXxX[ (.~.oXT.5 L S.1 #.,.3.0.w.W.kXkX0Xq.6.1.6 d.h p 9 < Y.;X$X`.f xXxXxXxXxXxXxXxXxXxXxXxX",
"xXxXxXxXxXxXxXxXxXxXxXxXxXxXxXxX[ oX|.*X7X5 N S.l d.L.L.r.I.hXkX0Xw.6.<.s.3 J ] e e 1 R.@X`.[.f xXxXxXxXxXxXxXxXxXxXxXxX",
"xXxXxXxXxXxXxXxXxXxXxXxXxXxXxXxX^ OX| @X7X5 k B.5 z.j.4.t.pXkXW.0.u.8.v.s.C = * = e 1 R.`.} [.f xXxXxXxXxXxXxXxXxXxXxXxX",
"xXxXxXxXxXxXxXxXxXxXxXxXxXxXxXxX8 T .X|.H.3 n  Xz $.s.3.E.kX0X9.8.1.4.R.h.%.C l V.a : c.|./.f # xXxXxXxXxXxXxXxXxXxXxXxX",
"xXxXxXxXxXxXxXxXxXxXxXxXxXxXxXxX% s s R S j W B.j S p.8.wX0X9.:.v.$.#.Y.Z.J F N V.s * C M p w $ xXxXxXxXxXxXxXxXxXxXxXxX",
"xXxXxXxXxXxXxXxXxXxXxXxXxXxXxXxXy !...%XZ.N G B.h D $.8.E.5.j.$.k.$.%.g.Z.C.V k D.m , R.XX~ U 8 xXxXxXxXxXxXxXxXxXxXxXxX",
"xXxXxXxXxXxXxXxXxXxXxXxXxXxXxXxXe L _.m.l.k h m.h B K j.H.6 f.H n.H S F Z z.a.h N.a 2 c.[. .f u xXxXxXxXxXxXxXxXxXxXxXxX",
"xXxXxXxXxXxXxXxXxXxXxXxXxXxXxXxXw c ~ o.#.* y M.p M V ;.c.F J G b.G V V V ,.a.i B.g : h. .E s % xXxXxXxXxXxXxXxXxXxXxXxX",
"xXxXxXxXxXxXxXxXxXxXxXxXxXxXxX{ =X1X<X:X>XN y ].p k ;.a.H M W _ -.B B m b a.6 p }.0 b 8X;X=X<X=XM xXxXxXxXxXxXxXxXxXxXxX",
"xXxXxXxXxXxXxXxXxXxXxXxXxXxXxX1XsXrX5XeXuXtXn o.: s #.C f b ! D ` m b b d k j l =.a 6XuXrX4X6XyXXXxXxXxXxXxXxXxXxXxXxXxX",
"xXxXxXxXxXxXxXxXxXxXxXxXxXxXu !..X] ' W -XeXx ] k.5 p s s d b d M b h a a p F x.-.a yX$X| G _ $XU xXxXxXxXxXxXxXxXxXxXxX",
"xXxXxXxXxXxXxXxXxXxXxXxXxXxX@ ^ M G.iXn.M :Xi ! a.l.G W ! G J d M _ G ( R H x.g.Q e rX{ %X0X+.Q c xXxXxXxXxXxXxXxXxXxXxX",
"xXxXxXxXxXxXxXxXxXxXxXxXxXxX@ ^ n 4.y.1.N :Xi b R _ =.)./.*.*.m [ *.*.[.`.X.` ) c r eX) 1.y.@.T g xXxXxXxXxXxXxXxXxXxXxX",
"xXxXxXxXxXxXxXxXxXxXxXxXxXxX@ ^  ., 4 z [. X* % 8 0 w w a w a # 7 0 8 0 w 8 w 9 7 8 4X`.2 4 1 !.g xXxXxXxXxXxXxXxXxXxXxX",
"xXxXxXxXxXxXxXxXxXxXxXxXxXxXX P {. .( ).{.N -.S.A.A.A.S.=.%X@X=X*X%X%X=X%X%X%XS.S.M. .OX~.| ~._.q xXxXxXxXxXxXxXxXxXxXxX",
"xXxXxXxXxXxXxXxXxXxXxXxXxXxX+ 8 i i s s s % Q )..X$X$X$X*..X.X.X=X.X$XoXoX$X#X.X[.} 8 d s s s i @ xXxXxXxXxXxXxXxXxXxXxX",
"xXxXxXxXxXxXxXxXxXxXxXxXxXxX+ $ #   $ $ + $ a b I Q ~ ! I ! L f W n ! U E E ! I n q + & & + + & $ & xXxXxXxXxXxXxXxXxXxX",
"xXxXxXxXxXxXxXxXxXxXxXxXo N S.S.V.R A.F.D.D.&X&X&X:X:X5X5X5X1X6X2X:X5X3X5X&XD.&X&XD.&XD.D.D.S.A.F.n.p O xXxXxXxXxXxXxXxX",
"xXxXxXxXxXxXxXxXxXxXxXxX@ y L I I I Q } } } Q ^.} ^.).).^.~ ~ ).)./.^.^._._.*. .! I Q } } ` W E M n p X xXxXxXxXxXxXxXxX",
"xXxXxXxXxXxXxXxXxXxXxXxXX u 8 # 8 a q a a w 8 f a g g f f q g b f f a f g L g a t @ % w q y y 9 @ 8 # X xXxXxXxXxXxXxXxX",
"xXxXxXxXxXxXxXxXxXxXxXxXxXxXxXxXxXxXxXxXxXxXxXxXxXxXxXxXxXxXxXxXxXxXxXxXxXxXxXxXxXxXxXxXxXxXxXxXxXxXxXxXxXxXxXxXxXxXxXxX",
"xXxXxXxXxXxXxXxXxXxXxXxXxXxXxXxXxXxXxXxXxXxXxXxXxXxXxXxXxXxXxXxXxXxXxXxXxXxXxXxXxXxXxXxXxXxXxXxXxXxXxXxXxXxXxXxXxXxXxXxX",
"xXxXxXxXxXxXxXxXxXxXxXxXxXxXxXxXxXxXxXxXxXxXxXxXxXxXxXxXxXxXxXxXxXxXxXxXxXxXxXxXxXxXxXxXxXxXxXxXxXxXxXxXxXxXxXxXxXxXxXxX",
"xXxXxXxXxXxXxXxXxXxXxXxXxXxXxXxXxXxXxXxXxXxXxXxXxXxXxXxXxXxXe.e.xXi.e.xX. . xX$ xXxXxXxXxXxXxXxXxXxXxXxXxXxXxXxXxXxXxXxX",
"xXxXxXxXxXxXxXxXxXxXxXxXxXxXxXxXxXxXxXxXxXxXxXxXxXxXxXxXxXxXe.e.xXi.e.xXO . xX% xXxXxXxXxXxXxXxXxXxXxXxXxXxXxXxXxXxXxXxX",
"xXxXxXxXxXxXxXxXxXxXxXxXxXxXxXxXxXxXxXxXxXxXxXxXxXxXxXxXxXxXxXxXxXxXxXxXxXxXxXxXxXxXxXxXxXxXxXxXxXxXxXxXxXxXxXxXxXxXxXxX",
"xXxXxXxXxXxXxXxXxXxXxXxXxXxXxXxXxXxXxXxXxXxXxXxXxXxXxXxXxXxXxXxXxXxXxXxXxXxXxXxXxXxXxXxXxXxXxXxXxXxXxXxXxXxXxXxXxXxXxXxX"
};
