/* XPM */
static char *dea22d8005e041e89fd3a0376df52ad2UY2ie84iUvMNC78u[] = {
/* columns rows colors chars-per-pixel */
"60 60 231 2 ",
"   c #1E1E1E",
".  c #222222",
"X  c #2E2E36",
"o  c #2F2E3A",
"O  c #312F39",
"+  c #2F303A",
"@  c #34333D",
"#  c #3A373B",
"$  c #3C3A3D",
"%  c #443E35",
"&  c #423D3D",
"*  c #5B4F2E",
"=  c #46413C",
"-  c #4B443D",
";  c #4D483A",
":  c #564C37",
">  c #544C3C",
",  c #5C533B",
"<  c #5D5539",
"1  c #6A5A2D",
"2  c #665936",
"3  c #645A3C",
"4  c #695E3B",
"5  c #6D602F",
"6  c #7A662A",
"7  c #6C6137",
"8  c #6D633C",
"9  c #7C6D34",
"0  c #73653B",
"q  c #736939",
"w  c #7A6C3D",
"e  c #7C713A",
"r  c #363542",
"t  c #383742",
"y  c #373945",
"u  c #3B3B44",
"i  c #3D3E49",
"p  c #413F45",
"a  c #403F49",
"s  c #3F404A",
"d  c #444244",
"f  c #4A4543",
"g  c #4E4A44",
"h  c #43434B",
"j  c #49474C",
"k  c #4B494D",
"l  c #524D43",
"z  c #584F45",
"x  c #524E4C",
"c  c #4F504D",
"v  c #555144",
"b  c #5B5342",
"n  c #55524C",
"m  c #5B554B",
"M  c #5E5948",
"N  c #434651",
"B  c #474850",
"V  c #4C4C53",
"C  c #4D4E59",
"Z  c #514F53",
"A  c #504F58",
"S  c #4F5055",
"D  c #4F515A",
"F  c #525255",
"G  c #5A5653",
"H  c #5C5954",
"J  c #54545B",
"K  c #58565B",
"L  c #56585F",
"P  c #5B5A5D",
"I  c #635B43",
"U  c #675D43",
"Y  c #615B4B",
"T  c #625E53",
"R  c #635F5A",
"E  c #6C6343",
"W  c #686347",
"Q  c #6A644B",
"!  c #756A46",
"~  c #7D7448",
"^  c #6B6454",
"/  c #696559",
"(  c #756D57",
")  c #7B7557",
"_  c #585B63",
"`  c #5C5D63",
"'  c #605F63",
"]  c #5E6066",
"[  c #5E6169",
"{  c #626265",
"}  c #6B6964",
"|  c #63656B",
" . c #66686E",
".. c #6B6A6C",
"X. c #726D66",
"o. c #797567",
"O. c #666A72",
"+. c #6A6C71",
"@. c #6E7176",
"#. c #727274",
"$. c #797879",
"%. c #947A1E",
"&. c #836A28",
"*. c #8B772A",
"=. c #947C29",
"-. c #846E36",
";. c #857434",
":. c #8B7A34",
">. c #83743C",
",. c #887739",
"<. c #8B7C3C",
"1. c #937C34",
"2. c #917E3A",
"3. c #827443",
"4. c #8B7D44",
"5. c #867B4B",
"6. c #857B56",
"7. c #857C67",
"8. c #827D74",
"9. c #B6911B",
"0. c #BBA21F",
"q. c #9A852B",
"w. c #9C852C",
"e. c #8E8439",
"r. c #948434",
"t. c #94823A",
"y. c #9B8939",
"u. c #9E913C",
"i. c #A68C27",
"p. c #B08F23",
"a. c #AD9327",
"s. c #B79726",
"d. c #A28936",
"f. c #A89638",
"g. c #B59D39",
"h. c #BAA228",
"j. c #AFA237",
"k. c #BAA536",
"l. c #C59F1B",
"z. c #CCA41C",
"x. c #C6A926",
"c. c #D5B62E",
"v. c #C3AB3B",
"b. c #CBB539",
"n. c #EECE1D",
"m. c #D8C337",
"M. c #F1D52F",
"N. c #E6C937",
"B. c #FDE527",
"V. c #FCE639",
"C. c #968945",
"Z. c #898257",
"A. c #958B51",
"S. c #948A58",
"D. c #A68D4B",
"F. c #A69647",
"G. c #A89B55",
"H. c #BBA947",
"J. c #A8A15B",
"K. c #B7A757",
"L. c #8A8366",
"P. c #928A6F",
"I. c #9D966D",
"U. c #868379",
"Y. c #9D9776",
"T. c #A4996C",
"R. c #B5AC73",
"E. c #C8B64B",
"W. c #CFB34D",
"Q. c #C4AB56",
"!. c #C2B557",
"~. c #E0B84F",
"^. c #CCBB6D",
"/. c #EBC946",
"(. c #EDD552",
"). c #FCE745",
"_. c #FBE858",
"`. c #DBC865",
"'. c #D1C673",
"]. c #E8D46E",
"[. c #FCE967",
"{. c #FAE876",
"}. c #FDF276",
"|. c #7D7C80",
" X c #878787",
".X c #8F8E8E",
"XX c #989587",
"oX c #999897",
"OX c #A29D8F",
"+X c #A9A48B",
"@X c #B5AC8C",
"#X c #BAB387",
"$X c #A8A59A",
"%X c #B1AE95",
"&X c #9E9DA1",
"*X c #ABABA7",
"=X c #B1AEA8",
"-X c #B8B5AA",
";X c #B8B7B7",
":X c #C4BA8B",
">X c #C5BFA2",
",X c #D5CB90",
"<X c #EAD88A",
"1X c #FBED87",
"2X c #F6ED8E",
"3X c #F6E799",
"4X c #FDF294",
"5X c #FCF39C",
"6X c #D1CCB0",
"7X c #E3DCB6",
"8X c #F4EBA6",
"9X c #FCF3A7",
"0X c #EAE6B7",
"qX c #F3E9B3",
"wX c #FCF5B8",
"eX c #C7C7C4",
"rX c #DAD7C8",
"tX c #D9D9D6",
"yX c #EBE8C7",
"uX c #F3EDC5",
"iX c #FCF7C8",
"pX c #EAE8D7",
"aX c #FBF7D5",
"sX c #FDFADB",
"dX c #E7E7E5",
"fX c #F4F2E4",
"gX c #FCFBE3",
"hX c #FCFCED",
"jX c #F4F5F4",
"kX c #FCFDF4",
"lX c #FCFEFD",
/* pixels */
"y @ t O @ r O @ u @ u @ r @ r @ r @ r @ r o O @ @ @ o X O O O O O @ @ @ O @ O @ @ @ t @ @ @ @ t @ t t t r t r r r O X . ",
"r t r r @ @ @ y r u r u @ t r y r r r r @ o @ r < 2 o @ o # ;.# @ @ @ @ @ @ @ r r r r r r t @ @ t u u t r t u r @ r O . ",
"r r r r @ o r r t r r r r r r r r = 6 $ @ % * @ - - @ O @ @ : @ : 6 @ @ @ @ @ r @ @ r r t t @ @ t t t u u r r r @ @ X . ",
"r y r r @ y r u r r r u @ @ @ r r = 2 t r 1 i.@ r r @ @ @ o o % &.1 @ @ @ @ @ h +.t @ t r r @ t @ @ u u u t t r t @ X . ",
"u t t r t r u u u t u a 9 - @ r r @ r r y 5 9.$ r r @ @ r @ o 1 9.# @ > # r r h |.i r u u t t @ @ u u u u u u u t t @ . ",
"u u u u t u u u u u u d h.3 y r h +.i r y : %.1 r r @ : - @ # *.6 @ @ : $ u , & r @ t y u u t t u t t u r t u u u u @ . ",
"u u t u u u u u t t t j R.H r u N #.i u = y : %.5 @ o 2 ; # =.*.; < @ ` J r 3 p y @ @ > 7 u t i u t u t u t t u u i @ . ",
"u r u u u t u r t @ a F tX;Xj $ u @ r = 2 @ C ) A.A.1 @ t U.t.$ ; 2 @ +.K @ $ t t t @ ; q u u t t i t r i i t t i i # . ",
"u u u u t u t d >., t.-XjXjX-Xf.r.d r @ @ t ` #.F !.'.R.k.`.n r : 6 t r @ $ w.< u t t , ;.a i i u u t a i a a t i i # . ",
"s u a u i u i t I U 3 $.rXtX$.8 3 u t i { a t o < e ^ :XwXN.* @ * 2 ; > t 2 7 & t u @ q j.i i u u u a i i i a a u i @ . ",
"@ i u h u i t u a 4.f d v.( r i h t @ F .Xu d $ % # O C.qX/.* 1 *.& ;.0 r , G i u r h U.>XJ # u u i t h i a a t i i # . ",
"t t h r i r i @ i u a $ i.: u i ..b F t & , , q d d @ - 6X].;.=.: *.i.- : i oXF : 3 U.dXlX;XQ 3 3 f i u i h i a i i @ . ",
"i u d > t h v i @ i @ a d u r u > D.$X` $ ; & # ( ( O @ $XsX].3.3./.p.4 E h u & i.v.6XfXlXdXR.0.p.2 i i a i a i a i @ . ",
"t i f w.7 7 f.Q g @ t t i j a d ;.= ..;XC v 7 = l & # d k *XuX8X{.<X*.j .X' # $ ; f m @XdX.Xj d d d t a V B i a i i @ . ",
"s u h ; i.i.Y R.1.u u l g U.k i $ F ;XdX;X X# Q Z.w 4 ) M 3 `.sX9Xf.f  X#.= : & -.$ u X.%Xh @ i i t d i X.{ a i a i # . ",
"t i u a p d a 7 s.f - & i d > # i d $.eXP g $ f >.w @ > 2 E.iXwXH.: 8.8.# u V u = ; t q f.u u u i i # i l l i a i h @ . ",
"h u i u a u u , s.2.s.6.i f 9.> $ 4 P &Xb 9 d ) C.; g h./.wXiXE.4 W 4.d Z V oX| > r.& 3 *.t B Z t t h i 9 4 i i h a # . ",
"t i u h t i t i 8 k.b.>X|.g i.0 P i i h j n | XX,.<.H._.iXhX'.q f.w = v OX{ W oXx > f > p B  X$.J K i a d h a h a a # . ",
"i u s a 4 2 8 3 k d g / eX{ ; f.%X( d d ^ XXP 8 :.r.^.8XhXfXA.g 3 y.b 3.! 3 w.l d : , 4.u ..oXJ  X|.i b l i h a a a @ . ",
"u i t g i.9.p.q.d a t g $X Xh # n G.S.) 9 } .X3 ;.:.3 F.qXsX].C.w S.Z.g 3 y.3 , > C./ p i # #.$.u h 3 r.U h h a i h # . ",
"s u h i h d a u i ; b u j oX Xh j P.8X7X~ I 3 9 y.C.r.U '.sXsX_.].Y.3 0 <.L.x :.2 / ;Xv , u i i 3 9 q.0 h i h i a h @ . ",
"i h i h i h t u u b 3 i 7 Y ,X$X&XyXwXsX^.w t.d ) A.r.u.N.iXkX9X,X! C.y.4.XX6.: 4.XX*XI.C.G u / F.p.7 a i i u 4 3 j t . ",
"h i h i h u h C $.h @ d 9 , C.uX3X#XH.3XdX:Xb.d.w f.k.m.V.iXkX4XN.E.H.u.C.b 9 l x oX=X.X^ / | $X( p h i i 8 =.w.9 j t . ",
"i h i h j W t  .tXT &.d u B oXXX;.> > F.3XsX{.M.c.f.b.V.}.gXgX_.{.(.E.Z.b e.:.b f { eXZ a | tXtX=X#.i ~ f.r.l.s., h t . ",
"h i h i h g i F |.x 2 p c Y.U.f > t., I C.3XaXwX1Xm.N.B.wXlXsX[._._.N.g.H.f.>.y.b ..rXS.$.6X6XXX6XrX-XT.x.:.4 1.I h t . ",
"i h s h i h F / t a ; I T.) > d.>.,.d.3 > C.(.3XgX4X_.).wXkX9XwX1X[.V.{._.N.b.A.X.eXaX0X,XK.m & d./.~.) b q.8 N h h t . ",
"h s j E k E T / o.x q.0.! j d b 0 w.0 r.> 8 >.H.1XgXgX4XiXlXhXkXwX_.1X1X}.[.5X0XpXwX(.H.( I p a ;.-.> l Z.Y x h h h # . ",
"i h f 4.k x k u G h f l p a d 4 t.b 4 0 ,.b.f.s.V.4XkXkXkXlXlXlXsX5XhXkXgXiXiXkXiXH.3 4 ~ ) u u d b f d Q B h h h h t . ",
"h i h d v t f U u h , = d 3 > 1.0 e f.f.d.t.h.V.}.4XaXlXlXlXlXlXkXkXlXgX4X)./.7XyX8.f 1.9 a t F K 9 b i h h h h h h # . ",
"s h h v q h l 1.3.4.c.T.5.w.:.1.s.r.f v <.K.{.9XkXlXlXlXlXlXlXlXlXgXwX[.c.d.,.R -XrX.XU.5.3 v L.7.b { ` h h h h h h t . ",
"h h h a h i I , C.F.i.+X<X%X<X{.<XT.XX%X2XwXlXlXlXiXaXlXlXlXlXlXlXsX[.B.h.:.b e M R.<X%XG.q W 3.:.8 $.+.h h h h h h # . ",
"i h h h k o.5.5.h 3 > M  XyXhX3X3XiXgX9X4X4X1X1X1X)._.5XwXhXlXlXlXlXaX_.n.k.f.t.g > r.i.9 i b -.3 h j h i | J h j h u . ",
"h h h a F / x ! j < v n +X0XOX>.D.tX#Xm.r.e.:.h.n.n.n.V.).}.hXlXsX9XkXaX_.x.C.XXF d v ;.r.<.3 I h 0 U i h  X+.a j h t . ",
"h h i h i h d l l g l F.7XXX2.^ =X$.l 2 { oX8 r.9 g.f.x.B.}.hXgX1X2X2XgXaX_.e X.! P oXi v t.0.;.I ! l h V h j k a j u . ",
"B h B h h i : s.x.b.W./.) h 4 b.W.! = u  XeXH , >.C.u.c.M.iXlXuXN./.c.].wXaX`.! I ! D.= } P.3 *.-.j N h E m h k h h p . ",
"h B h B h B P 3 1.<X8X5.G j l f.4 b 6 ^ 6X;Xn 9 t.t.<.x.).aXhX].w r.k.>.K.7XiX3X`.!.0 9 W ~ a g b x m n m k j h j k # . ",
"B h B h B J oX5.w.@X@Xk XX{ v z 0 x ( 2.R $.6.:.9 <.>.c.9XlXwXH.E 4.u.d.U Y !.8XiXpX7.3 h l b i h h ) ) h V j j j B i . ",
"h B h B h F U.I.z G.Q.m B k ~ I d./ oXn v o. X7 q e.~ H.iXhX`.S.3.,.f.<.u.> l g.Q.6XuXQ.I d a | o.>.! m N h B j B B u . ",
"V h C h J  X$Xk B @X7.v g k x ^ E.Y j j I 9 , ~ 6.7 e 7XlXfXG.XXn 7 y.I >.C.l 0 , Q 2X9X:X XL.Y.R.s.x.a.2.,.M V B V a . ",
"s F 0 ,.! ^.! V k 3.I W W h m H ,XR f l k d { oX@.4 E.iXlXhX<XF.9 d ! 4.g ~ n l U 3 m.'.wXtXR.e h B <.a.i.d.^ V C V d . ",
":.=.d.r.3.l.n N B k k k x ! ~ oXdX;X8.6.I d { #.u q._.4X9XgXhX4X].,.j U A.I ! W M 3 h.4 Q.,X#.h B B x k B A C C C F i . ",
":.y.F C Q x.n V B B B V Y u.H.6XjXjX;X+XC.j , q i 4 a.a.k.uXlXaX{.x.d k ! M I M v E h.j 0 ].,X0 B V V k k V V C F F h . ",
"D C C G q.;.V G t.H V V k C k X.tXoXG j k W r.E h q w l J.aXaX(.i.r.E h -.Y .XJ h 8 s.l o.%XS.=.w V Z Z k B V V C C j . ",
"S J F H w G C H 3.H C C n V k H '.H x M } XX! V w r.< S.qXaX`.;.f v W h 4 m #.J m q.r.:.L.#Xj Y 1.w F Z k C C C Z J h . ",
"J J J J J J J J F C C H f.G h G v./ x Q C...V ! r.3 C.8XaX`.;.> ` .Xk k k k j P oX! ! 0 ,.g.J C Y ! / J S F J J J F j . ",
"S J J J J J J J S S C Y x.^  .G 5.H :.! Y k V v v 4.3XaX`.q > b k P V l l V V G ) F G k :.s.Z C C G G  .*XoX{ J J J h . ",
"J J J J J J J J C C C U.^.X. XJ F F U >.G ^ k V W :XlX{.9 i h h V B k o.X.V C T ,.K F Z w F.#.J J J C  XeXeX#.J J J k . ",
"J J L J _ J ` T 5.3.Y.tXjX-XZ.5.H J C C R ) J Q !.5X9XV.a.M ~ G F ! P.tXeXL.5.^ J J J G k 7.^.! J J J L { | _ ` J P k . ",
"L L L ` J ` F ) g.k.#XfXlXrXK.F.( ! T ~ J J Q !.5X[.x.s.s.i.r.H J t.R.dXkX,Xg.5.J J J J J ,.z.! K J K J J P ` ` ` _ k . ",
"` L ` J | P P ` ` J ' +X,X$.` ` R 5./ 3.P ( !.4X`.t.w.3.n <.T D J J P =XrX+.F P P P K K J ( d.3.` P J ` { P ` ` ` P k . ",
"_ ] P ` | ` { _ { L ` / b.^ [ P ` J / 5.{ A.{.8Xi.8 y.( J J ^ R / P } I.P.J J J ` K ` P ` P ( ~ { ` ` | { { ` { ` ` F . ",
"| P | ..P | `  .J { J X.v.o.J { J ` / 6.L.,X6XL.2 , ^ J ` J Q / P _ } ^ / | *X#.J { K { R { J 4.C.{ { { { | | | |  .F . ",
"P ]  ._  ._ +._ | L | / g./ | J { L ` ( ^.6X$.>.<.` { ` P P ` ` { ` oX$.K } W.D.{ ' ' ( 6.| +.( ( { { { { |  .{ | | k . ",
" .| ` ..`  ._  ._  ._ ../ | _ | _ { H I.6X$.6.f.( XXXXP ` L ..=X X{ #...P | ( ( #.*X{ | { | ] ..{ | | | { | | | { ` F . ",
"] | ..`  .` +.`  ._ | `  .` { _ | _ 6.H.$.] / ( ` #...| ` _ | #...` { ` ` _ ` { 7.K...{ { ` | ` | { | | | | | | [ +.F . ",
"| +.| +.`  .[  ._  ._  ._ | _ [ _ Z.k.( | _ [ _ { _ _ { ` { { 5.) { ` { _ { } C.X.X.{ | { | ] +.| | |  . . .|  . .{ F . ",
"..| +.{ +.[  .[ +.] +.]  .`  ._ o.k.) O.[ | ] | ] | { { { ` | ( } { | ] { ] ..7...{  .|  .| +.| .. . . . . . . .| +.F . ",
"+.@.| @. .+.{ +.{ +.] +.| +.| +...) +.| +.|  .|  . . .{ { | {  .| +. . .{  .| | ..+. .+. ...{ .. .+. ... .+.+.| @.+.F . ",
"J S F V J V F V F V S V S V J V F J V S C F C S V C V V V V S V S C S V V V S F G V F C J V J F S S S S S S C J F S d   ",
"                                                                                                                        "
};
