/* XPM */
static char *_c1864bfa0554188a5113ef1f5388098RzlJMq5BV0ajhhjx[] = {
/* columns rows colors chars-per-pixel */
"60 60 249 2 ",
"   c #B8730D",
".  c #C17B0C",
"X  c #B98400",
"o  c #B4821D",
"O  c #C08609",
"+  c #C0A61B",
"@  c #D49626",
"#  c #C9922A",
"$  c #D6A628",
"%  c #DCAE36",
"&  c #DAB537",
"*  c #C9AD31",
"=  c #E7B72A",
"-  c #E6B638",
";  c #F4B136",
":  c #E6A937",
">  c #CECF34",
",  c #D7C93B",
"<  c #DBDA3A",
"1  c #CDCE28",
"2  c #E6C238",
"3  c #F9C937",
"4  c #E5D73F",
"5  c #F3D639",
"6  c #DFE837",
"7  c #E5EA3F",
"8  c #E8F43C",
"9  c #FCEE37",
"0  c #C69D43",
"q  c #D7AE46",
"w  c #D7BB46",
"e  c #D9BB5B",
"r  c #C2A645",
"t  c #E9AC47",
"y  c #E5B94B",
"u  c #E4B450",
"i  c #D0BD64",
"p  c #DECC46",
"a  c #D9D648",
"s  c #DACE54",
"d  c #E6CA48",
"f  c #F9C648",
"g  c #E2DC4A",
"h  c #E7DC48",
"j  c #F9D648",
"k  c #E6C859",
"l  c #F3CD5C",
"z  c #EBD958",
"x  c #F9D657",
"c  c #DCE65F",
"v  c #ECE444",
"b  c #E9E846",
"n  c #F4E64A",
"m  c #EDF342",
"M  c #ECFA47",
"N  c #F6F947",
"B  c #EDE453",
"V  c #EBE958",
"C  c #F6EA55",
"Z  c #F6F453",
"A  c #FCF45A",
"S  c #F9F955",
"D  c #D9CF7D",
"F  c #EDC46C",
"G  c #E8D467",
"H  c #F7D663",
"J  c #E9DB7A",
"K  c #FDDC74",
"L  c #F4DA74",
"P  c #DAF679",
"I  c #E8EA69",
"U  c #FFED6B",
"Y  c #F6E869",
"T  c #EAF26A",
"R  c #FCF265",
"E  c #F4F46D",
"W  c #F8F669",
"Q  c #E6EE7B",
"!  c #FBE776",
"~  c #E4F37E",
"^  c #EAF37A",
"/  c #E8F975",
"(  c #F4FC75",
")  c #FCFB75",
"_  c #F3F47B",
"`  c #F3FB7B",
"'  c #FDFC7B",
"]  c #FBF476",
"[  c #D8D789",
"{  c #E7DF8C",
"}  c #DDF489",
"|  c #DFEC9D",
" . c #DCF394",
".. c #DEF49B",
"X. c #DFE583",
"o. c #E3EB83",
"O. c #E6EC89",
"+. c #EBEE8B",
"@. c #E9EC84",
"#. c #FDED8C",
"$. c #F7EA86",
"%. c #E3F483",
"&. c #EBF484",
"*. c #EDFC84",
"=. c #E5F38E",
"-. c #EDF38A",
";. c #E5FC89",
":. c #EDFB8B",
">. c #E4FD85",
",. c #F3F384",
"<. c #FDF483",
"1. c #F4FB83",
"2. c #FCFD83",
"3. c #F3F58B",
"4. c #FEF48B",
"5. c #F3FB8C",
"6. c #FEFE8C",
"7. c #ECEE93",
"8. c #EBEC9D",
"9. c #E5EB9E",
"0. c #F4ED99",
"q. c #F6EC94",
"w. c #E4F493",
"e. c #ECF594",
"r. c #ECFC93",
"t. c #E3F39C",
"y. c #ECF49C",
"u. c #E5FB9C",
"i. c #EBFB9D",
"p. c #E6FB92",
"a. c #F3F493",
"s. c #FEF595",
"d. c #F3FA93",
"f. c #FBFD93",
"g. c #F2F49C",
"h. c #FEF59A",
"j. c #F5FD9C",
"k. c #FDFB9C",
"l. c #DEEFA7",
"z. c #DCF6B1",
"x. c #E4ECA3",
"c. c #EBEEA3",
"v. c #E3ECAA",
"b. c #EBEEAC",
"n. c #FCEBA3",
"m. c #F3EBA8",
"M. c #E3F2A3",
"N. c #EBF3A5",
"B. c #ECFCA4",
"V. c #E4F2AC",
"C. c #ECF4AC",
"Z. c #ECFBAB",
"A. c #E3FCA8",
"S. c #F3F3A4",
"D. c #FCF5A4",
"F. c #F3FCA4",
"G. c #FCFCA4",
"H. c #F3F5AB",
"J. c #F3FBAC",
"K. c #FCFDAB",
"L. c #FAF5AE",
"P. c #E4EDB4",
"I. c #EBEDB3",
"U. c #E5EDBC",
"Y. c #EAEEBB",
"T. c #F6EFBB",
"R. c #E4F4B4",
"E. c #ECF3B3",
"W. c #EDFBB4",
"Q. c #E5F2BB",
"!. c #EBF3BB",
"~. c #EDFBBB",
"^. c #E3FAB6",
"/. c #F2F5B4",
"(. c #FCF5B2",
"). c #F3FDB4",
"_. c #FBFEB3",
"`. c #F2F5BC",
"'. c #F3FCBC",
"]. c #FBFEBC",
"[. c #FCF3BB",
"{. c #E6EDC3",
"}. c #E9EEC4",
"|. c #E6EBCC",
" X c #E9EECC",
".X c #F2EDC4",
"XX c black",
"oX c black",
"OX c black",
"+X c black",
"@X c black",
"#X c black",
"$X c black",
"%X c black",
"&X c black",
"*X c black",
"=X c black",
"-X c black",
";X c black",
":X c black",
">X c black",
",X c black",
"<X c black",
"1X c black",
"2X c black",
"3X c black",
"4X c black",
"5X c black",
"6X c black",
"7X c black",
"8X c black",
"9X c black",
"0X c black",
"qX c black",
"wX c black",
"eX c black",
"rX c black",
"tX c black",
"yX c black",
"uX c black",
"iX c black",
"pX c black",
"aX c black",
"sX c black",
"dX c black",
"fX c black",
"gX c black",
"hX c black",
"jX c black",
"kX c black",
"lX c black",
"zX c black",
"xX c black",
"cX c black",
"vX c black",
"bX c black",
"nX c black",
"mX c black",
"MX c black",
"NX c black",
"BX c black",
"VX c black",
"CX c black",
"ZX c black",
"AX c black",
"SX c black",
"DX c black",
"FX c black",
"GX c black",
/* pixels */
"BXBXBXBXnXwXwXdXqXBXCXBXCXBXwXwXrXqXxXCXCXCXCXwXdXqXqXcXBXBXBXBXuXuXqXqXpXjXjXjXjXaX2X2X2XiXhXmXjXjXaX2XpXyXqXbXCXCXCXCX",
"BXBXBXBXnXuXwXdXwXCXCXnXCXnXwXwXcXwXxXCXBXCXCXdXuXqXqXcXBXBXBXBXuXyXqX,X2XaXjXsXsX7X1X1X2X3XaXhXjXjXpX,XyXyXqXnXBXCXCXCX",
"CXCXCXBXxXwXwXwXdXBXCXBXCXxXwXqXwXwXxXCXCXCXVXdXwXqXwXcXVXBXBXmXpX2X:X;X1X8X9X9X8X4X+X X:X1X7XaXsXsX7X;X,X,XqXbXBXCXCXCX",
"CXCXBXnXcXdXwXwXwXxXBXCXCXxXwXqXqXwXxXCXCXCXbXdXwXwXwXcXnXBXBXmX2X1X1X+X1X5X5X5X5X&XoX{.{.+X5X9X9X8X7X1X,X,XyXgXBXBXCXCX",
"nXxXxXxXxXxXxXxXcXcXcXnXnXcXcXdXdXcXcXbXnXbXcXfXfXfXfXfXcXbXcXgX7X1X@X@X&XOXOX~.OX~.!.!.oXoX&X&X*X4X4X4X7X7XpXpXfXbXxXnX",
"lXlXlXcXxXCXCXCXCXdXwXuXwXdXBXBXBXBXfXqXuXuXuXbXVXmXVXhXuXyXqX,X9X5X*X*X$X!.R.V.V.W.'.$X$X$X`.Y.XX{.@X9X8XsXjXpXqXwXwXwX",
"lXlXwXwXxXCXCXCXCXdXqXqXeXgXBXBXBXBXfXeXqXqXqXmXmXmXmXhXyX,X,X;X8X*X*X$X~.R.V.M.M.Z.).'.].]./.I.U.U.@X8X9XsXjXpX>XeXqXwX",
"GXGXwXwXxXCXCXVXBXwXwXgXqXgXmXmXjXmXuX>XuXyX2XjXjXjXjXaX2X,X,X1X6X$X$X'.W.V.N.N.M.Z.J.).).)./.I.!.P.oX6X5X9XsX2XqXqXwXwX",
"lXcXcXcXxXCXCXBXBXwXeXqX>XyXmXmXjXjXaX>X2X2X2XsXsXsXaX8X4X:X X}.$X$X%X'.).N.M.t.9.J.J.H._.]./.b.!.P.OX*X*X9XsXpX,XqXwXwX",
"SXCXSXxXcXcXdXuXuXqXfXmXjXhXpX,X;X2X7XaXsX9X4X4X1X4X&X&X5X5X5X*X`.W.E.C.J.J.J.K.K.8.8.c.9.b.].].$X`.$X*X@X1X7X2XjXmXVXBX",
"CXCXCXCXxXwXqXqXqXhXjXjXjXaX,X:X1X+X4X9X9X9X5X&XXX}.oX#X%X=X=X%X/.C.c.c.S.G.K.G.G.G.[ [ c././.%X$X$X$XoX@X+X1XaXjXmXBXBX",
"CXSXCXCXnXwXqXyXqXmXjXaXsXaX,X1X1X}.4X9X5X6X6XoX!.I.E.`.].%X].].C.C.c.8.g.D.k.h.G.0.D [ H.).C.%X$X=X$XQ.+X+X;XsXjXmXBXBX",
"CXCXCXCXnXwXeXqX>XjXjXsXjX8X;X|.{.U.&X6X6X6X=XE.b.b.C.H._._._.K.N.N.N.g.h.k.k.h.k.i D K.9.x.%X%X$X=X$XXX@X+X XaXmXmXBXBX",
"nXxXxXnXcXdXpXpX2XaXaXaXaX8X1X+X*XoX$X$X$X$X'./.H.H.H.F.S.g.g.g.y.N.a.a.h.k.s.#.e i q._.8.C.].!.`.$XoXoX*X4X7XaXaXhXbXnX",
"dXdXwXwXfXmXmXjXjX7X1X1X;X1X8X9X6X=X#XI.I.E./._._.K.K.D.a.+.+.+.e.y.a.a.s.4.L e r #.K.h.K.].Z.v.!.Q.oX*X5X9XsXaX,XqXwXwX",
"wXuXqXqXgXmXmXjXjX:X;X1X X+X9X6X#X%X`.E./.H.N.K.H.G.G.g.-.@.+.-.r.r.a.4.4.K q o $.s.h.D._.).V.~.~.U.oX8X8XsXsX2XqXqXwXwX",
"wXwXqXeXfXmXmXmXjX2X|. X&X&X*X=X%X]./.H.c.N.S.K.D.K.G.a.O.o.&.&.:.d.2.4.K # @ H K $.j.F.W.~.~.!.oXU.oX8X9XsXjX2XqXwXwXwX",
"wXwXqXwXfXmXmXjXjX8X X}.}.#X%X%X]._.H.H.S.y.g.g.K.D.y.7.-.:.:.*.*.2.6.l @ t t K L -.F.J.W.~.!.P.!.U.oX5X9XsXjXgXqXwXwXwX",
"bXcXcXbXfXgXpXpXpX8X5X&X$X$X`././.H.H.J.F.F.a.a.g.7.+.e.d.5.5.1.2.I z w * q k.L #.a.B.B.Z.W.W.'.!.$X$X&X5X8X7XpXcXbXxXnX",
"BXmXBXBXcXqX,X,X;X8X9X6X=X%X/.v.C.N.S.K.G.j.a.e.X.O.-.3.f.6.2.' Y d & w w 4.4.#.G.D.S.8.9.N._.].$X6X&XoX1X:X;XpXBXBXCXCX",
"BXmXBXBXbXqX,X2X:X8X9X=X$X'.).C.H.S.F.G.G.d.-.o.o.-.:.&.1.6.2.U - f f * <.6.#.G.D.D.n.n.n.n.K._.$X6X&X{.+X;X,XjXmXBXBXCX",
"BXBXBXmXhXqX,X:X:X5X6X=X%X'.E.N.N.g.g.j.d.:.&.&.Q &.&.,.2.2.Y d f x % Y ! 3.k.k.K.D.n.n.n.S.F._.%X=X&X+X+X;X2XhXmXBXCXCX",
"mXBXBXbXgXpX7X,X1X&X=X=X%X).C.N.y.g.a.d.:.&.*.5.^ ^ _ 2.' Y g p U $ Y ] ^ *.r.r.G.F.g.S.N.N.Z.~.$X&X*X5X1X1XpXyXVXBXBXCX",
"qXdXdXuXgXjXjXsXsX&XoX`.E.C.H._.G.j.j.3.~ Q ^ ` 2.` ` ) I a g R , U ) ) ` / >.;.:.e.F.K._.Z.A.z.Q.U.@X5X4XaXjXgXwXwXwXcX",
"dXgXqXqXgXmXjXsXsX+X!.!.C.C._.F.G.j.3.&.Q T / ( ( ' E a , B C h B ) W E 2.` I _ &.d.j.F.).~.^.z.oXU.@X9X8XsXjXyXqXwXwXwX",
"qXqXqXqXgXmXjXsX9XoXY.E.b.C._.F.j.d.3.^ ^ / ( ) E V a g B B n b W Y ] ) U U ' 2.] 4.k.F.Z.W.~.Q.Q.U.@X9XsXjXmXgXqXwXwXwX",
"wXwXqXyXgXjXjXsX8XoXY.E.C.C.J.F.j.d.5.^ T E E W V a a V A b < 4 a p d - $ - - % l ! s.G.(.[.T..XoX{.@X9XsXjXjXgXqXwXwXwX",
"bXfXfXgXgXgXpX7X4X+XoX`./.H.H.B.i.d.*.^ E E R V g h B A Z b 7 b g B d 2 f $ O @ l L #.D.(.[.[.-X*X&X5X8X7XaXgXgXfXcXxXxX",
"BXBXmXmXhXyX,X:X1X5X*X$X'.).C.y.w.&.&.` ' ) R C h C A A S S S N S Z C W R & + H <.4.a.y.N.C.'.=X=X8X4X1X1X2XyXgXBXCXCXCX",
"BXBXmXmXhXyX,X:X:X5X=X%X%X).N.t.=.%.&.2.) R B h A C n Z S N M M M b Z A 4 , z ] 6.d.w.t.M.Z.).%X*X8X4X X:X,XqXhXBXCXCXCX",
"mXmXmXmXhXqX,X1X X8X=X$X%X).v.t.w.%.*.2.E g , 4 C n 4 v b 7 8 8 8 8 m < , C ' _ 3.=.w.u.A.Z.J.'.*X9X4X X1X,XqXbXBXBXCXCX",
"mXmXmXmXhX,X;X:X|.8X*X#X%X).N.y.=.~ *.2.T a , h , h h < < 6 8 N N m 1 > W ' _ 5.d.i.t.t.t.M.Z.%X&X9X5X1X1X,X>XhXBXCXCXCX",
"gXgXpXyXpXjXjXaXsX1X{.Q.!.C.Z.F.f.5.%.~ / / / ( T ( E E W m 9 N v , a ) 6.Q Q w.w.i.B.B.Z.).).!.oX{.1X8X7XsXmXgXgXdXdXfX",
"gXgXqXyXpXjXjXaXsX1X{.U.E.C.Z.F.d.5.:.P P P P / 1.I ( T a N 9 5 , I 2.1.@.o.=.i.t.B.Z.Z.).).~.Q.oX{.4XsXaXjXjXpXqXqXqXwX",
"wXqXeXqXaXjXjXsX9X@XU.P.V.N.B.F.w.j.;.P P P P *.^ ' V B j 5 v > g ] 6.3.O.e.i.t.t.Z.).'.$X$X!.U.oX}.4XsXsXjXjXgXyXqXuXdX",
"lXwXqXqXaXjXsX9X5X@XQ.P.V.N.B.F.i.i.} P ;.>.%.:.1.T C 5 j j * c _ ,.-.3.F.F.N.| V.W.).$X$X$XoX}.{.}.4X9XsXjXjXhXqXqXqXqX",
"FXcXlXgXgXaX8X5X@X@XoX!.C.Z.B.i.B.u. .} p.} o.3.2.z = 3 2 , _ Q 3.-.e.j.J.C.C.W.~.~.~.OX*X*X&X&X+X4X4X7XaXaXaXhXgXdXdXcX",
"CXSXSXnXpX2X1X+X@X@X*X$X).Z.N.t.....u.i.w.O.+.<.z & ; = d ] 3.k.+.e.y.N.C.).'.~.$XOXoXoX@X@X4X8X9X9X8X1X7X2X2XgXBXBXCXCX",
"CXCXCXBXgX,X;X1X+X5X5X*X$X).C.t... .Z.J.y.h.4.H @ ; % k 2.6.5.d.e.y.t.x.W.$X*XOX*XOXXX{.oX+X8XsX9XsX8X:X2X,X>XfXmXmXBXBX",
"CXCXCXBXhX,X:X1X1X5X9X6X*X`.E.x.B.| N.S.0.k.! $ @ @ k 4.s.a.d.j.y.t.N.E.~.OX*X5X*X@X{.{.}.+X8XsX8XsX7X:X2X2XqXhXBXBXCXCX",
"CXCXBXmXhX,X;X:X:XsX8X5X6X$XP.V.| L.c.S.G.! : . % H $.3.k.j.d.j.t.M.V.R.~.$X*X5X5X@X{.{.}. X8XsXsXjXaX2XpX,X>XgXBXBXCXCX",
"cXdXdXhXhXhXaXhXpXaX7X1X&XoX!.`.].9.8.q.#.u   : ! 4.k.a.y.i.r.i.Z.Z.W.~.~.OXoXoXoXoX&X5X5X4X4X7X1X7X2X7XhXhXhXmXdXcXcXcX",
"qXwXqXyXgXjXmXmXjX2X:X1X}.Q.$X%X].L.q.4.t   u K k.G.G.y.w.t.u.t.Z.W.'.$XOXoXoXoX{.@X6X9X9X9X4X|.:X:X7XaXjXmXmXbXwXwXwXwX",
"qXuXqXqXpXmXmXjXmX,X;X4XU.R.).).H.D.k.k o t #.G.D.S.J.B. .t.Z.l.W.~.$X*X@X@X+X+X{.*X9X9X9X9X8X|.2X;XpXjXmXmXBXdXwXwXwXwX",
"qXqXqXqXgXmXmXmXmX:X X$XP.M.B.F.F.G.F # e #.0.K._.).).).M.M.E.v.'.$X=X*X*X+X}.|.+X5X9X9X9X9X8X:X,X;X7XjXmXmXBXcXwXwXwXlX",
"gXgXgXgXfXbXVXhXjX7XoX!.M.w.;.:.f.J 0 F G.7.S.H.).~.~.W.V.V.!.`.$X$X*X*X4X1X1X1X4X4X8X9X8X8X8X2X7X2XpXhXhXmXnXcXdXcXcXcX",
"mXmXbXbXbXgXqXyXpX8XoXC.i.%.P T ! * J K.(.].E.).V.^.R.R.OX$X-X%X`.oXoX@X4X8X8XsX8X4X4X4X7X7XpXaXjXjXaXyXpXpXwXdXnXnXSXCX",
"BXmXBXBXnXwXqXqX;X5X'.F.f._ V B & z ,.G./.%X=Xv.l.^.Q.oX6X6X-X=X#XXX}.}.4X8XsXsXsX7X:X;X;X,XpXmXjXmXpX>XyXqXqXcXCXCXCXCX",
"mXBXBXBXFXrXwXyX|.6X_.h.<.j = 3 j z E f.K.].%X`.!.Q.U.oX*X6X=X*X&X+X|. X4X8XsXaXaX7X,X,X2XyXgXmXhXhXhXgXqXeXgXcXBXCXCXCX",
"mXBXBXSXFXlXwXqX;X*XH.$.G $ X X + * s J g.L.I.Y.U.{.{.oX*X6X6X8X+X X|. X7XsXsXjXjXpX,X,X>XqXhXmXmXmXhXqXeXeXdXbXBXBXBXBX",
"hXfXzXcXFXFXxXfX3X+XE.8.J k y d s G J { m.`..X5X&X@X@X@X&X*X5X5X4X4X4X7X7X8XaXaXpXpXpXaXhXgXpXgXhXfXgXgXfXfXcXcXcXcXcXxX",
"yXqXqXrXxXSXCXVXmX3XoXE.c.q.s.s.D._.L.m.-X.X XsXsX9X9X5X+X+X+X+X8XsXsXsXaX2X2X,X,XpXjXmXmXhXpX>XeXqXgXmXBXBXVXcXwXwXwXwX",
"qXqXeXwXxXCXCXDXNXiX3X@XP.I.(.m.[.6X-X.X0X<X;XsXsXsX9X8X1X X X1X8XsXjXjXsX7X,X,X2XpXjXjXjXjXpXqXpXpXgXbXmXBXmXbXwXwXwXwX",
"qXeXqXrXxXCXCXDXNXiX3X3X|.5X9X6X9XsX0X<XtXtXpXmXjXjXsX8X7X;X:X,XaXjXjXjXjXpX,X>X,XpXjXmXmXjXpXqXqXqXgXbXBXBXmXcXwXwXwXwX",
"gXwXwXcXxXnXDXDXDXuXiXiX>XiXsXsXmXvXkXqXqXqXdXhXmXjXjXaXpXpXtXqXhXjXjXjXhXpXyXqX,XpXjXmXmXjXpXqX>XqXgXbXBXBXnXfXwXwXwXdX",
"VXnXxXxXcXcXcXuXcXbXNXNXbXfXuXqXdXrXxXCXSXSXVXcXyXuXpXgXhXhXxXxXgXgXgXgXfXhXmXmXhXhXgXyXpXgXhXhXmXbXgXuXuXdXfXcXVXVXBXBX",
"CXCXCXCXxXwXqXwXwXnXBXBXBXVXuXqXwXwXxXCXCXCXVXuXqXyXqXgXBXCXCXCXdXqXgXeXgXBXmXmXmXfXqX>XeXyXhXmXVXmXfXqXqXqXwXcXCXCXCXCX",
"CXDXDXDXNXuXwXwXrXvXSXVXBXnXgXwXwXqXcXCXCXCXVXuXqXyXqXdXCXCXSXCXdXqXdXqXdXBXmXBXBXfXqXeXqXyXbXmXVXmXfXqXwXqXwXcXCXCXCXCX",
"DXDXDXNXNXuXwXdXrXvXVXVXVXvXgXrXyXqXhXBXCXCXVXdXuXuXqXdXCXCXSXCXcXwXdXqXdXBXVXBXBXcXwXqXwXgXbXBXmXBXbXuXuXwXwXbXCXCXCXCX",
"SXDXDXNXNXdXuXdXrXvXvXvXvXvXrXgXyXyXhXBXBXCXVXfXuXgXwXfXCXCXMXCXxXwXcXwXdXBXnXBXBXcXdXuXdXfXbXBXmXBXbXgXdXuXdXnXnXnXnXnX"
};
