/* XPM */
static char *result[] = {
/* columns rows colors chars-per-pixel */
"60 60 245 2 ",
"   c #0F0E0F",
".  c #19171A",
"X  c #251816",
"o  c #291915",
"O  c #341B18",
"+  c #2D201B",
"@  c #35211A",
"#  c #1A1B21",
"$  c #392724",
"%  c #3B2A24",
"&  c #322E2F",
"*  c #2C2D32",
"=  c #333336",
"-  c #3A3535",
";  c #34363A",
":  c #36393D",
">  c #3A3A3D",
",  c #4D1E12",
"<  c #5B240D",
"1  c #47271A",
"2  c #582716",
"3  c #56351D",
"4  c #672A0B",
"5  c #74280A",
"6  c #6D300C",
"7  c #76330D",
"8  c #662917",
"9  c #772A1B",
"0  c #693419",
"q  c #783A18",
"w  c #432C25",
"e  c #4B2B25",
"r  c #442E29",
"t  c #5A2B23",
"y  c #45312C",
"u  c #4C3628",
"i  c #4B332C",
"p  c #53352D",
"a  c #583729",
"s  c #4D3731",
"d  c #493A36",
"f  c #553B33",
"g  c #513B35",
"h  c #593D35",
"j  c #6C2D22",
"k  c #663828",
"l  c #773825",
"z  c #693C31",
"x  c #63451D",
"c  c #77471C",
"v  c #5C4429",
"b  c #5C4236",
"n  c #55433B",
"m  c #5C433A",
"M  c #544B39",
"N  c #674728",
"B  c #784628",
"V  c #6E562C",
"C  c #63453B",
"Z  c #684739",
"A  c #774836",
"S  c #7A5734",
"D  c #686136",
"F  c #3C3E42",
"G  c #3E4144",
"H  c #4A494B",
"J  c #594B46",
"K  c #5C514D",
"L  c #5B5856",
"P  c #624B40",
"I  c #6B4C42",
"U  c #68534A",
"Y  c #775647",
"T  c #74554A",
"R  c #78564C",
"E  c #7B5A4D",
"W  c #6A5A55",
"Q  c #735C54",
"!  c #7E5C51",
"~  c #715B58",
"^  c #6C615E",
"/  c #786259",
"(  c #5E5F63",
")  c #6A6665",
"_  c #766A64",
"`  c #7F7066",
"'  c #797777",
"]  c #891E0B",
"[  c #8A300E",
"{  c #933C0E",
"}  c #993F0F",
"|  c #842717",
" . c #883B18",
".. c #973816",
"X. c #A82F15",
"o. c #853827",
"O. c #993B29",
"+. c #813F34",
"@. c #AD3D23",
"#. c #8A431B",
"$. c #954617",
"%. c #9B4413",
"&. c #9C4917",
"*. c #A24613",
"=. c #A64A15",
"-. c #AC4D16",
";. c #B4491A",
":. c #B9581C",
">. c #864527",
",. c #9B5728",
"<. c #8E4830",
"1. c #8A5637",
"2. c #965737",
"3. c #AA4A2D",
"4. c #A55828",
"5. c #A35C38",
"6. c #996B2B",
"7. c #896836",
"8. c #9D6E39",
"9. c #B9682A",
"0. c #AD6936",
"q. c #E65A23",
"w. c #CA6624",
"e. c #D46D26",
"r. c #D3672B",
"t. c #D87027",
"y. c #DA742B",
"u. c #C77435",
"i. c #E67B2D",
"p. c #E77B2D",
"a. c #F97729",
"s. c #885945",
"d. c #815C4D",
"f. c #925541",
"g. c #815E51",
"h. c #A95D43",
"j. c #83614E",
"k. c #8B6648",
"l. c #95664A",
"z. c #957848",
"x. c #856255",
"c. c #8A6456",
"v. c #8A6559",
"b. c #876959",
"n. c #8D695C",
"m. c #956553",
"M. c #926D5B",
"N. c #8A715E",
"B. c #9B735C",
"V. c #AE734B",
"C. c #A67955",
"Z. c #876D63",
"A. c #8C6D61",
"S. c #946D61",
"D. c #8A7667",
"F. c #9D7563",
"G. c #987868",
"H. c #887B76",
"J. c #937C73",
"K. c #A47B64",
"L. c #A37B68",
"P. c #A88231",
"I. c #D09235",
"U. c #EE8130",
"Y. c #EB8B33",
"T. c #F08535",
"R. c #EC9937",
"E. c #F29738",
"W. c #ECA43C",
"Q. c #F2A23B",
"!. c #F3AB3E",
"~. c #9F834A",
"^. c #A98948",
"/. c #BA8C44",
"(. c #B7974B",
"). c #B48D54",
"_. c #9C816E",
"`. c #98857B",
"'. c #A8826B",
"]. c #B2886B",
"[. c #A78A78",
"{. c #B78E72",
"}. c #B6917A",
"|. c #C7924C",
" X c #F5954F",
".X c #D0A051",
"XX c #F5AA4F",
"oX c #FBBC43",
"OX c #FE8E75",
"+X c #F4A973",
"@X c #F6CF4C",
"#X c #7C7D81",
"$X c #8A8787",
"%X c #958C88",
"&X c #9C908C",
"*X c #999796",
"=X c #A38E86",
"-X c #AA9587",
";X c #B39A85",
":X c #A39692",
">X c #A99B96",
",X c #BCA38C",
"<X c #B7A696",
"1X c #B1A89C",
"2X c #A8A6A6",
"3X c #B7A8A3",
"4X c #B8B2AF",
"5X c #B9B8B7",
"6X c #FE9A8B",
"7X c #C6AC94",
"8X c #CDAC91",
"9X c #CCB39B",
"0X c #F6B98C",
"qX c #C0B0A7",
"wX c #D2BCA3",
"eX c #C6BBB9",
"rX c #C3BDBB",
"tX c #FEB6AA",
"yX c #F8C39C",
"uX c #D0C5B6",
"iX c #F0CBB0",
"pX c #F9D6BB",
"aX c #BEBFC0",
"sX c #BFC0C1",
"dX c #C4C3C2",
"fX c #CAC5C3",
"gX c #CCCCCC",
"hX c #D4CCCA",
"jX c #D9D2CF",
"kX c #D4D3D2",
"lX c #DAD6D4",
"zX c #D9D8D7",
"xX c #DCDBDA",
"cX c #FDD6C9",
"vX c #E1DDDB",
"bX c #F1E4DB",
"nX c #DFDFE0",
"mX c #E3E3E3",
"MX c #E9E7E6",
"NX c #ECECEC",
"BX c #F3EEEB",
"VX c #FDF1EB",
"CX c #F4F4F4",
"ZX c #FDF7F5",
"AX c #FFFFFF",
/* pixels */
"AXAXAXAXAXAXAXAXAXAXAXAXAXAXAXAXAXAXAXAXAXAXAXAXAXAXAXAXAXAXAXAXAXAXAXAXAXAXAXAXAXAXAXAXAXAXAXAXAXAXAXAXAXAXAXAXAXAXAXAX",
"AXAXAXAXAXAXAXAXAXAXAXAXAXAXAXAXAXAXAXAXAXAXAXAXAXAXAXAXAXAXAXAXAXAXAXAXAXAXAXAXAXAXAXAXAXAXAXAXAXAXAXAXAXAXAXAXAXAXAXAX",
"AXAXAXAXAXAXAXAXAXAXAXAXAXAXAXAXAXAXAXAXAXAXAXAXAXAXAXAXAXAXAXAXAXAXAXAXAXAXAXAXAXAXAXAXAXAXAXAXAXAXAXAXAXAXAXAXAXAXAXAX",
"AXAXAXAXAXAXAXAXAXAXAXAXAXAXAXAXAXAXCXAXAXAXAXAXAXAXAXAXAXAXAXAXAXAXAXAXAXAXAXAXAXAXAXAXAXAXAXAXAXAXAXAXAXAXAXAXAXAXAXAX",
"AXAXAXAXAXAXAXAXAXAXAXAXAXAXAXAXvX&Xn 5XAXAXMXzXkXkXkXCXAXAXAXAXAXAXAXAXAXAXAXAXAXAXAXAXAXAXAXAXAXAXAXAXAXAXAXAXAXAXAXAX",
"AXAXAXAXAXAXAXAXAXAXAXAXAXAXAXlX_ n J 5XjX>X[.D./ ~ U rXAXAXAXAXAXAXAXAXAXAXAXAXAXAXAXAXAXAXAXAXAXAXAXAXAXAXAXAXAXAXAXAX",
"AXAXAXAXAXAXAXAXAXAXAXAXAXZXkX) h h U `.A.R b o X % J kXAXAXAXAXAXAXAXCXmXCXAXAXAXAXAXAXAXAXAXAXAXAXAXAXAXAXAXAXAXAXAXAX",
"AXAXAXAXAXAXAXAXAXAXAXAXBXxX~ s h h T C +     X % K dXAXAXAXAXAXAXAXAXaXL gXAXAXAXAXAXAXAXAXAXAXAXAXAXAXAXAXAXAXAXAXAXAX",
"AXAXAXAXAXAXAXAXAXAXCXeX;X-XB.g.I I w . + X + H &XkXAXAXAXAXAXAXAXAX4XH H xXAXAXAXAXAXAXAXAXAXAXAXAXAXAXAXAXAXAXAXAXAXAX",
"AXAXAXAXAXAXAXAXAXCX3X'.L.L.M.R E f i M %X5XuXzXCXAXAXAXAXAXAXAXCX2XH = ' AXAXAXAXAXAXAXAXAXAXAXAXAXAXAXAXAXAXAXAXAXAXAX",
"AXAXAXAXAXAXAXAXCX3XL.].M.I R c.f % M <X3X%X#X4XxXCXAXAXAXAXCXmXD.t F ; $XCXAXAXAXAXAXAXAXAXAXAXAXAXAXAXAXAXAXAXAXAXAXAX",
"AXAXAXAXAXAXAXCX<X'.L.F.c.T R T T Z s n [.`.* : ( 2XmXCXAXAXmX' i 5.1.g gXAXAXAXAXAXAXAXAXAXAXAXAXAXAXAXAXAXAXAXAXAXAXAX",
"AXAXAXAXAXAXAXhXL.L.M.F.i i A.R n.n.I w s -XH ; = F ( $XaXnX) F : > 1.<.kXAXAXAXAXAXAXAXAXAXAXZXAXAXAXAXAXAXAXAXAXAXAXAX",
"AXAXAXAXAXAXNX-XL.L.I f x v v.c.E n.T C i m 7X}.L = 9 p F F * ; ; F ; H.CXAXAXAXAXAXAXAXAXAXVXVXAXAXAXAXAXAXAXAXAXAXAXAX",
"AXAXAXAXAXAXuXL.M.c.R 7.^.j.I T m T c.n.m r m ;XwX=Xo.- F ; * * = F ; $XAXAXAXAXAXAXAXAXAXZXpXiXZXAXAXAXAXAXAXAXAXAXAXAX",
"AXAXAXAXAXCX-X{.K.R g.v.I E 9.&.q A M.g.g.I s y ! 9XwX) * ; F ; w ; > gXAXAXAXAXAXAXAXAXAXVX0X+XpXbXAXAXAXAXAXAXAXAXAXAX",
"AXAXAXAXAXeX[.M.x.x.Y s.4.9.w.%.*.$.Z g.n.E h h i T }.uX/ $ i l k * : NXAXAXAXAXAXAXAXAXAXZXyXT. X XcXAXAXAXAXAXAXAXAXAX",
"AXAXAXAXAXfXJ.P T / K k.l.B <.} *.*.1.c.! E M.K.L.C.R G.[.A q ,.M ; F 2XCXAXCXAXAXAXAXAXAXAXVX+X XY.+XAXAXAXAXAXAXAXAXAX",
"AXAXAXAXAXAXnX4X4XzXnXxXgXK Q 6 } =.r.Y v.v.g.K.L.K.F.T E uX_ - D V j O.3XCXAXAXNXmX4X) *XNXAXVX+XY.XXcXAXAXAXAXAXAXAXAX",
"AXAXAXAXAXAXZXAXCXAXCXhXH.n i 4 -.:.y.A R R g.K.].F.n.n.Y -XiXK - 6. .t H aX2X%X( G : ; *XNXAXZXpXXX@X X0XAXAXAXAXAXAXAX",
"AXAXAXAXAXAXAXAXAXAXgXW R P r 4 -.w.w.N T g.E v.x.Z I Y Y Q 9X<Xh | & : : F * - 6.M F $XNXCXAXAXZXtXY.E. XZXAXAXAXAXAXAX",
"AXAXAXAXAXAXAXAXAXNXH.T h p 1 %.*.w.i.B I c.E p + X X o y b S uX<Xd : : = w = F S B $XCXAXAXAXAXZX6Xq.!.0XAXAXAXAXAXAXAX",
"AXAXAXAXAXAXAXAXAXkXW Y h i c R.Y.U.U.9.u b w X o % % + o @ X / 9XU * - B e * : d &XNXCXAXAXAXAXtXq.a.!. X6XZXAXAXAXAXAX",
"AXAXAXAXAXAXAXAXAXNX_ % p 1 P.oX!.E.U.p.#.w X + h C C C w O 4 < U Z 9 6.P.= * : $XCXAXAXAXAXAXAXOXU.@X@X@X XcXZXAXAXAXAX",
"AXAXAXAXAXAXAXAXAXZXnXH X 3 I.!.!.!.p.w.y.&.2 b ! T R g.I p { < ` ,Xy v S - F #XNXAXAXAXAXAXAXAXpXa.oX@XI.i.6XZXAXAXAXAX",
"AXAXAXAXAXAXAXAXAXZX2XJ $ x R.R.Q.E.E.p.y.:.{ z f.8.^.z.! s 0 < _.1X: - { > G 2XAXAXAXAXAXAXAXAXZXcXOXr.-.q.tXAXAXAXAXAX",
"AXAXAXAXAXAXAXAXnX:Xo.h $ x W.!.!.!.Q.U.e.e.r.l h.C.C./.8.w < < D.9X> j X.j > 2XCXAXAXAXAXAXAXAXAXZXVX3X4.V.zXAXAXAXAXAX",
"AXAXAXAXAXAXAXzX^ s @.4.k N R.!.@X!.Q.p.e.T.9.M.{.K.E g.2.8 { < N.pXQ 2 & 8 2 ' NXAXAXAXAXAXAXAXAXAXAXkX~.I.4XZXAXAXAXAX",
"AXAXAXAXAXAXvXs.8 s s k 0 c W.Q.!.!.Q.w.i.9.l V.].x.x.B.T s q 5 Z iX) * F + ] # ( 4XCXAXAXAXAXAXAXAXAXCXH.u.C.mXAXAXAXAX",
"AXAXAXAXAXNXJ.<.@.4.>.a u x W.R.!.Q.U.e.9.s.V.|..X(.z.j.z y 2 5 1 7XU * # 8 5   # k ^ 5XNXAXAXAXAXAXAXAX$Xd.k.hXAXAXAXAX",
"AXAXAXAXAXrXZ.Z.T A 3.;.2 N W.!.Q.Q.Y.y.2.K.].F.B.C..X8.h u < %.1 _.i O l 8 #   . A o . *XCXAXAXAXAXAXAXlXZ k.=XAXAXAXAX",
"AXAXAXAXZX:Xs.d.! n.Z l | 0 !.!.!.Q.U.i.>.l.K.K.x.Y b.5...w q { 1 {.h 8 9.v . . $ h $X*XkXAXAXAXAXAXAXAXlXm k.=XAXAXAXAX",
"AXAXAXAXNX`.h.|./.k.x.h $ N W.W.!.T.U.5.3.0.|.).k.x.P N X.< *.{ 1 ].u . u 6.N Z fXxXCXAXAXAXAXAXAXAXAXAXkXg E `.AXAXAXAX",
"AXAXAXAXfXx.A.g.C.|.f.K n V I.R.E.U.e.E A.c.l.).|.7.h h 9 5 { [ 1 ].y . . 7.V H MXAXZXAXAXAXAXAXAXAXAXAXeXC j.Z.AXAXAXAX",
"AXAXAXAX*Xg.! E M.h.m.gX*XC 4.e.t.e.,.R M.b.E S.k.9.h f @ 6 *.%.3 '.T . # B $ F kXAXAXAXAXAXAXAXAXAXAXCXJ.5.^.b.AXAXAXAX",
"AXAXAXAX3Xv.E E n.G.>XAX*Xn =.t.i.y.l.G.[.7Xx.c.P <.9 $ y 1 1 7 4 k.B.. $ k . . W lXAXAXAXAXAXAXAXAXAXkXZ.g.m.S.AXAXAXAX",
"AXAXAXAXlXZ.T N.E ;X`.MXuXJ #.p.U.i.B.G.9X8XE T m p 2 s g y i % O 0 Y O | ,   . l ~ kXAXAXAXAXAXAXAXAXqXd.j.M._ AXAXAXAX",
"AXAXAXAXgX` T ,XA.:X$XxXZ.s 3 p.U.p.u.b.8X'.b ,XA.O r p k C N C % @ K.b X 9 O X A H 5XAXAXAXAXAXAXAXMXG.V.^.V.! AXAXAXAX",
"AXAXAXAXNX&XQ _.}.uXsX_ <.3.0 &.i.i.e.B _.>.1.;Xn i k ,./.).(.0.>.p F.M.# 1 s %XrXzXAXAXAXAXAXAXAXAXeXA.M.j.m.S.AXAXAXAX",
"AXAXAXAXAXmX%X4XH.dX`.i p o...$.e.e.t.i.6.y.6.Z o k ;.2.g.E ! m.3.9 k.L.$ # L CXCXAXAXAXAXAXAXAXAXMXD.c.c.E x.$XAXAXAXAX",
"AXAXAXAXAXAXAXZXzXsXK b i y p 0 9.U.U.i.e.:.%.[ , O.m.T ! E E g.P l B ].P . 2XAXAXAXAXAXAXAXZXAXCX3X5.V.z.x.T >XAXAXAXAX",
"AXAXAXAXAXAXAXAXAX$Xz.z.b u i s 8 :.:.:.-.-.*.{ 2 z E M.S.E I g.g.h p M.R . gXZXCXAXAXAXAXAXAXlX&XA.g.d.C.h.W xXAXAXAXAX",
"AXAXAXAXAXAXAXZXgX/ M.k.B i i i % 4 %.=.*.%.} -.#.1 E g.f.V.(.^.s.C u m B.% ~ ~ ' dXgXhXlX&XH.Z.f.l.! g.E g.rXAXAXAXAXAX",
"AXAXAXAXAXAXAXAX5XW ! h o.9 f w i $ z  .} *.-.-.-.7 r O.0.B.K.).).&.r Z '.w h ..0 r % J <.<.Z.S.V./.g.S.T H.NXAXAXAXAXAX",
"AXAXAXAXAXAXAXAXCX2Xn m z ..y i i s %X[.>.-.-.%.{ *.4 l M.S.M.g.Z X.e m M.w h A 4.a h E s.3.d.v.E (.7.P K NXAXAXAXAXAXAX",
"AXAXAXAXAXAXAXAXAXNX2Xd l | e h f s ) MXhXS q &.-.-.*.2 m Y I h z 9 p s b y f b 2.i i C x.B.l.R v.l.X.J 5XAXAXAXAXAXAXAX",
"AXAXAXAXAXAXAXAXAXZXCXgX~ p h s r s J hXZXmX=X>.&.%.%.=.6 1 % w r r i w O s h h $.p h I v.~.^.c.! C +.uXAXAXAXAXAXAXAXAX",
"AXAXAXAXAXAXAXAXAXAXZXBX' r i i s h d 5XZXAXBX5XJ.q %.*.*.7 o $ r i e s $ h h z X.t h h C k.2.C h J sXCXAXAXAXAXAXAXAXAX",
"AXAXAXAXAXAXAXAXAXAXMX*Xy r i p u y s &XCXAXAXAXNXuX` l #.$.1 u s h f i @ t p k | a h h f X.o.g J rXZXCXAXAXAXAXAXAXAXAX",
"AXAXAXAXAXAXAXAXAXzX&XY E b i u i h n ' NXAXAXAXCXAXCX5X`.a C b.n.c.n.m 3 %. .q 0 3 a a p  .d H.gXZXAXAXAXAXAXAXAXAXAXAX",
"AXAXAXAXAXAXAXAXkXD.M.K.{.j.f b h g y H.NXAXAXAXAXAXAXAXkXd / N.n.[.x._.g 7 $.{  .#.<.Z x.%XsXCXAXAXAXAXAXAXAXAXAXAXAXAX",
"AXAXAXAXAXAXAXAXnX%XJ T Y y - % d %X*XkXAXAXAXAXAXAXAXAXkX` iX`.G.pXD.8X-X`.&X%X&X>XjXkXmXAXAXAXAXAXAXAXAXAXAXAXAXAXAXAX",
"AXAXAXAXAXAXAXAXAXCXxXxXxXxXxXxXmXNXCXAXAXAXAXAXAXAXAXAXxX=X7Xb.D.9X/ '.7X1XNXCXCXCXAXAXAXAXAXAXAXAXAXAXAXAXAXAXAXAXAXAX",
"AXAXAXAXAXAXAXAXAXAXAXAXAXAXAXAXAXAXAXAXAXAXAXAXAXAXAXAXzXD.`.gXfXD.>X2X_.%XNXAXAXAXAXAXAXAXAXAXAXAXAXAXAXAXAXAXAXAXAXAX",
"AXAXAXAXAXAXAXAXAXAXAXAXAXAXAXAXAXAXAXAXAXAXAXAXAXAXAXAXCXkXNXAXCXxXCXAXxXxXAXAXAXAXAXAXAXAXAXAXAXAXAXAXAXAXAXAXAXAXAXAX",
"AXAXAXAXAXAXAXAXAXAXAXAXAXAXAXAXAXAXAXAXAXAXAXAXAXAXAXAXAXAXAXAXAXAXAXAXAXAXAXAXAXAXAXAXAXAXAXAXAXAXAXAXAXAXAXAXAXAXAXAX",
"AXAXAXAXAXAXAXAXAXAXAXAXAXAXAXAXAXAXAXAXAXAXAXAXAXAXAXAXAXAXAXAXAXAXAXAXAXAXAXAXAXAXAXAXAXAXAXAXAXAXAXAXAXAXAXAXAXAXAXAX",
"AXAXAXAXAXAXAXAXAXAXAXAXAXAXAXAXAXAXAXAXAXAXAXAXAXAXAXAXAXAXAXAXAXAXAXAXAXAXAXAXAXAXAXAXAXAXAXAXAXAXAXAXAXAXAXAXAXAXAXAX",
"AXAXAXAXAXAXAXAXAXAXAXAXAXAXAXAXAXAXAXAXAXAXAXAXAXAXAXAXAXAXAXAXAXAXAXAXAXAXAXAXAXAXAXAXAXAXAXAXAXAXAXAXAXAXAXAXAXAXAXAX",
"AXAXAXAXAXAXAXAXAXAXAXAXAXAXAXAXAXAXAXAXAXAXAXAXAXAXAXAXAXAXAXAXAXAXAXAXAXAXAXAXAXAXAXAXAXAXAXAXAXAXAXAXAXAXAXAXAXAXAXAX"
};
