/* XPM */
static char *result[] = {
/* columns rows colors chars-per-pixel */
"60 60 140 2 ",
"   c #EF2E31",
".  c #EF3434",
"X  c #EF3A33",
"o  c #F03535",
"O  c #F03A3A",
"+  c #F04633",
"@  c #EF5B31",
"#  c #F15A36",
"$  c #F06C36",
"%  c #F26E3A",
"&  c #F27F39",
"*  c #F14242",
"=  c #F14B4B",
"-  c #F25353",
";  c #F35E5E",
":  c #F36363",
">  c #F46B6B",
",  c #F57474",
"<  c #F57A7A",
"1  c #EF832E",
"2  c #EF8434",
"3  c #EF873A",
"4  c #F08A34",
"5  c #F2843A",
"6  c #F08A3C",
"7  c #F19237",
"8  c #F2943D",
"9  c #F49D3C",
"0  c #F3A53C",
"q  c #F5AD3F",
"w  c #F18C42",
"e  c #F18F49",
"r  c #F19049",
"t  c #F29653",
"y  c #F39C53",
"u  c #F39C5B",
"i  c #F4AA41",
"p  c #F6B643",
"a  c #F6BC45",
"s  c #F6B749",
"d  c #F6BB4C",
"f  c #F6BC53",
"g  c #F7BF5C",
"h  c #F39E61",
"j  c #F4A468",
"k  c #F4A868",
"l  c #F4AB76",
"z  c #F5AE7A",
"x  c #F7C246",
"c  c #F7C24A",
"v  c #F8C748",
"b  c #F9CD4C",
"n  c #F9D24D",
"m  c #FADA4F",
"M  c #F7C253",
"N  c #F7C15C",
"B  c #F8C958",
"V  c #F9D452",
"C  c #FBDC51",
"Z  c #F9D158",
"A  c #FCE553",
"S  c #FCE854",
"D  c #FCE95D",
"F  c #F7C362",
"G  c #F7C964",
"H  c #F8CC6C",
"J  c #F9D46D",
"K  c #F8C976",
"L  c #F8CB78",
"P  c #FCE964",
"I  c #FCE56D",
"U  c #FCEA6B",
"Y  c #FCEB75",
"T  c #FCEC7B",
"R  c #F68484",
"E  c #F68989",
"W  c #F59882",
"Q  c #F79292",
"!  c #F79C9D",
"~  c #F89C9C",
"^  c #F6B484",
"/  c #F6BF95",
"(  c #F7A1A1",
")  c #F8A4A4",
"_  c #F9ADAD",
"`  c #F8B0A4",
"'  c #F9B3B3",
"]  c #F9CF84",
"[  c #F8D085",
"{  c #F9D28C",
"}  c #FADC8A",
"|  c #FAD693",
" . c #F9D499",
".. c #FAD99D",
"X. c #FCEE85",
"o. c #FCEF8C",
"O. c #FCEF90",
"+. c #FCF093",
"@. c #FCF19B",
"#. c #F8C6A2",
"$. c #F8C9A6",
"%. c #F8CCAB",
"&. c #FADBA3",
"*. c #FADEAB",
"=. c #F9D2B4",
"-. c #F9D5BB",
";. c #FCEDA2",
":. c #FCF2A2",
">. c #FDF3AA",
",. c #FBE0B1",
"<. c #FBE5BC",
"1. c #FDF4B1",
"2. c #FCF4BE",
"3. c #FAC2C2",
"4. c #FBCDCD",
"5. c #FADCC4",
"6. c #FBDEC9",
"7. c #FCD4D4",
"8. c #FCDCDC",
"9. c #FBE6C3",
"0. c #FCE9C5",
"q. c #FCEBCC",
"w. c #FCF6C4",
"e. c #FCF7CB",
"r. c #FBE3D1",
"t. c #FCEED2",
"y. c #FCE7D8",
"u. c #FCEBDA",
"i. c #FCF8D4",
"p. c #FDF2DC",
"a. c #FCFADD",
"s. c #FDE6E6",
"d. c #FDEEE3",
"f. c #FDEBEB",
"g. c #FDF3E2",
"h. c #FDFAE1",
"j. c #FEF6EB",
"k. c #FEF4F4",
"l. c #FEFAF5",
"z. c black",
/* pixels */
"z.z.z.z.z.z.z.z.z.z.z.z.z.z.z.z.z.z.z.z.z.z.z.z.z.z.z.z.z.z.z.z.z.z.z.z.z.z.z.z.z.z.z.z.z.z.z.z.z.z.z.z.z.z.z.z.z.z.z.z.",
"z.z.z.z.z.z.z.z.z.z.z.z.z.z.z.z.z.z.z.z.z.z.z.z.z.z.z.z.z.z.z.z.z.z.z.z.z.z.z.z.z.z.z.z.z.z.z.z.z.z.z.z.z.z.z.z.z.z.z.z.",
"z.z.z.z.z.z.z.z.z.z.z.z.z.z.z.z.z.z.z.z.z.z.z.z.z.z.z.z.z.z.z.z.z.z.z.z.z.z.z.z.z.z.z.z.z.z.z.z.z.z.z.z.z.z.z.z.z.z.z.z.",
"z.z.z.z.z.z.z.z.z.z.z.z.z.z.z.z.z.z.z.z.z.z.z.z.z.z.z.z.z.z.z.z.z.z.z.z.z.z.z.z.z.z.z.z.z.z.z.z.z.z.z.z.z.z.z.z.z.z.z.z.",
"z.z.z.z.z.z.z.z.z.z.z.z.z.z.z.z.z.z.z.z.z.z.z.z.z.z.z.z.z.z.z.z.z.z.z.z.z.z.z.z.z.z.z.z.z.z.z.z.z.z.z.z.z.z.z.z.z.z.z.z.",
"z.z.z.z.z.z.z.z.z.z.z.z.z.z.z.z.z.z.z.z.z.z.z.z.z.z.z.z.z.z.z.z.z.z.z.z.z.z.z.z.z.z.z.z.z.z.z.z.z.z.z.z.z.z.z.z.z.z.z.z.",
"z.z.z.z.z.z.z.z.z.z.z.z.z.z.z.z.z.z.z.z.z.z.z.z.z.z.z.z.z.z.z.z.z.z.z.z.z.z.z.z.z.z.z.z.z.z.z.z.z.z.z.z.z.z.z.z.z.z.z.z.",
"z.z.z.z.z.z.z.z.z.z.z.z.z.z.z.z.z.z.z.z.z.z.z.z.z.z.z.z.z.z.z.z.z.z.z.z.z.z.z.z.z.z.z.z.z.z.z.z.z.z.z.z.z.z.z.z.z.z.z.z.",
"z.z.z.z.z.z.z.z.z.z.z.z.z.z.z.z.z.z.z.z.z.z.z.z.z.z.z.z.z.z.z.z.z.z.z.z.z.z.z.z.z.z.z.z.z.z.z.z.z.z.z.z.z.z.z.z.z.z.z.z.",
"z.z.z.z.z.z.z.z.z.z.z.z.z.z.z.z.z.z.z.z.z.z.z.z.z.z.z.z.z.z.z.z.z.z.z.z.z.z.z.z.z.z.z.z.z.z.z.z.z.z.z.z.z.z.z.z.z.z.z.z.",
"z.z.z.z.z.z.z.z.z.z.z.z.z.z.z.z.z.z.z.z.z.z.z.z.z.z.z.z.f.8.z.z.z.z.z.z.z.z.z.z.z.z.z.z.z.z.z.z.z.z.z.z.z.z.z.z.z.z.z.z.",
"z.z.z.z.z.z.z.z.z.z.z.z.z.z.z.z.z.z.z.z.z.z.z.z.z.z.z.z.3.( k.s.7.' s.z.z.z.z.z.z.z.z.z.z.z.z.z.z.z.z.z.z.z.z.z.z.z.z.z.",
"z.z.z.z.z.z.z.z.z.z.z.z.z.z.z.z.z.z.z.z.z.z.z.z.z.f.k.f.! ' 4.> > ) k.z.z.z.z.z.z.z.z.z.z.z.z.z.z.z.z.z.z.z.z.z.z.z.z.z.",
"z.z.z.z.z.z.z.z.z.z.z.z.z.z.z.z.z.z.z.z.z.z.z.s.~ > ; : : 4.~ ( s.z.z.z.z.z.z.z.z.z.z.z.z.z.z.z.z.z.z.z.z.z.z.z.z.z.z.z.",
"z.z.z.z.z.z.z.z.z.z.z.z.z.z.z.z.z.z.z.z.z.z.k.~ o O . * _ k.8.z.z.z.z.z.z.z.z.z.z.z.z.z.z.z.z.z.z.z.z.z.z.z.z.z.z.z.z.z.",
"z.z.z.z.z.z.z.z.z.z.z.z.z.z.z.z.z.z.z.z.z.z.' = * ! ' 4.7.) s.z.z.z.z.z.z.z.z.z.z.z.z.z.z.z.z.z.z.z.z.z.z.z.z.z.z.z.z.z.",
"z.z.z.z.z.z.z.z.z.z.z.z.z.z.z.z.z.z.z.z.z.l.R o - s.l.f.) ' k.z.z.z.z.z.z.z.z.z.z.z.z.z.z.z.z.z.z.z.z.z.z.z.z.z.z.z.z.z.",
"z.z.z.z.z.z.z.z.z.z.z.z.z.z.z.z.z.z.z.z.s.8.: . o ( l.3.; f.l.z.z.z.z.z.z.z.z.z.z.z.z.z.z.z.z.z.z.z.z.z.z.z.z.z.z.z.z.z.",
"z.z.z.z.z.z.z.z.z.z.z.z.z.z.z.z.z.z.z.f.! 3.- .   - 8._ O Q z.z.z.z.z.z.z.z.z.z.z.z.z.z.z.z.z.z.z.z.z.z.z.z.z.z.z.z.z.z.",
"z.z.z.z.z.z.z.z.z.z.z.z.z.z.z.z.z.z.z.' E 8.- # + o < < o ( k.z.z.z.z.z.z.z.z.z.z.z.z.z.z.z.z.z.z.z.z.z.z.z.z.z.z.z.z.z.",
"z.z.z.z.z.z.z.z.z.z.z.z.z.z.z.z.z.z.k.; E 3.O % & . . O > s.z.z.z.z.z.z.z.z.z.z.z.z.z.z.z.z.z.z.z.z.z.z.z.z.z.z.z.z.z.z.",
"z.z.z.z.z.z.z.z.z.z.z.z.z.z.z.z.z.z.7.- ) ) o # 9 X . , f.z.l.z.z.z.z.z.z.z.z.z.z.z.z.z.z.z.z.z.z.z.z.z.z.z.z.z.z.z.z.z.",
"z.z.z.z.z.z.z.z.z.z.z.z.z.z.z.z.z.z.4.= Q Q . @ 0 @ X Q l.z.z.z.z.z.z.z.z.z.z.z.z.z.z.z.z.z.z.z.z.z.z.z.z.z.z.z.z.z.z.z.",
"z.z.z.z.z.z.z.z.z.z.z.z.z.z.z.z.z.z.k.< ' ( . 5 p 2 % W l.z.z.z.z.z.z.z.z.z.z.z.z.z.z.z.z.z.z.z.z.z.z.z.z.z.z.z.z.z.z.z.",
"z.z.z.z.z.z.z.z.z.z.z.z.z.z.z.z.z.z.z.) 8.` $ q A 9 2 u l.z.z.z.z.z.z.z.z.z.z.z.z.z.z.z.z.z.z.z.z.z.z.z.z.z.z.z.z.z.z.z.",
"z.z.z.z.z.z.z.z.z.z.z.z.z.z.z.z.z.z.z.l.k.^ 2 a Y c 4 3 =.z.z.z.z.z.z.z.z.z.z.z.z.z.z.z.z.z.z.z.z.z.z.z.z.z.z.z.z.z.z.z.",
"z.z.z.z.z.z.z.z.z.z.z.z.z.z.z.z.z.z.z.z.z./ 2 x +.2.f 1 h 5.6.z.z.z.z.z.l.p.0.*.9.p.z.z.z.z.z.z.z.z.z.z.z.z.z.z.z.z.z.z.",
"z.z.z.z.z.z.z.z.z.z.z.z.z.z.z.z.z.z.z.z.z.=.3 q P w.;.g 0 4 e ^ $.u.z.z.l...f s d K <.l.z.z.z.z.z.z.z.z.z.z.z.z.z.z.z.z.",
"z.z.z.z.z.z.z.z.z.z.z.z.z.z.z.z.z.z.z.z.z.y.r 7 m X.a.e.X.J 0 2 3 l -.l.z.z...s c n G u.z.z.z.z.z.z.z.z.z.z.z.z.z.z.z.z.",
"z.z.z.z.z.z.z.z.z.z.z.z.z.z.z.z.z.z.z.z.z.k.z 2 0 m X.e.a.i.I i 2 2 u y.l.l.g.F x A C G 9.z.z.l.t.,.9.9.p.l.z.z.z.z.z.z.",
"z.z.z.z.z.z.z.z.z.z.z.z.z.z.z.z.z.z.z.z.z.z.-.6 2 p C U w.h.1.C p q i F ] ] L g p b A V K q.<.| B C V f F *.l.z.z.z.z.z.",
"z.z.z.z.z.z.z.z.z.z.z.z.z.z.z.z.z.z.z.z.z.z.r.6 7 x A ;.a.h.a.X.A C n x x b b a p x U Y n M V C A S S C c N q.z.z.z.z.z.",
"z.z.z.z.z.z.z.z.z.z.z.z.z.z.z.z.z.z.z.z.z.z.6.6 p C S D o.:.i.w.P S S A A A S C v v Y w.T T +.X.@.o.Y P n p ,.z.l.z.z.z.",
"z.z.z.z.z.z.z.z.z.z.z.z.z.z.z.z.z.z.z.z.z.z.=.3 4 4 0 x A S O.h.w.Y D Y O.:.Y S S A P i.a.a.h.h.h.h.i.e.T x &.z.z.z.z.z.",
"z.z.z.z.z.z.z.z.z.z.z.z.z.z.z.z.z.z.z.z.z.z.6.w t h r 4 b A D @.h.a.e.a.h.h.i.X.S D D >.h.h.h.h.h.h.h.h.2.N ..l.z.z.z.z.",
"z.z.z.z.z.z.z.z.z.z.z.z.z.z.z.z.z.z.z.z.z.z.d.j ^ j.u.#.8 p A T a.h.h.h.h.h.h.w.>.w.w.e.h.h.h.h.h.h.h.h.e.N ..z.z.z.z.z.",
"z.z.z.z.z.z.z.z.z.z.z.z.z.z.z.z.z.z.z.z.z.z.z.6.z d.l.l.l 1 x S >.a.h.h.h.h.h.h.h.h.h.h.a.h.h.h.h.h.h.h.>.B q.z.z.z.z.z.",
"z.z.z.z.z.z.z.z.z.z.z.z.z.z.z.z.z.z.z.z.z.z.z.l.-.y.z.z.5.8 v C D +.i.h.h.h.h.h.h.h.h.h.h.h.h.h.h.h.h.i.U H g.z.z.z.z.z.",
"z.z.z.z.z.z.z.z.z.z.z.z.z.z.z.z.z.z.z.z.z.z.z.z.z.z.z.z.d.y n A S S U o.+.1.a.h.h.h.h.h.h.h.h.h.h.h.e.X.n K l.z.z.z.z.z.",
"z.z.z.z.z.z.z.z.z.z.z.z.z.z.z.z.z.z.z.z.z.z.z.z.z.z.z.z.z.#.s A A S S D o.w.a.h.h.h.h.h.h.h.a.a.i.:.U n c q.z.z.z.z.z.z.",
"z.z.z.z.z.z.z.z.z.z.z.z.z.z.z.z.z.z.z.z.z.z.z.z.z.z.z.z.z.d.k a A A S U X.>.w.w.i.a.a.h.h.i.:.T P S C F &.z.z.z.z.z.z.z.",
"z.z.z.z.z.z.z.z.z.z.z.z.z.z.z.z.z.z.z.z.z.z.z.z.z.z.z.z.z.z.-.8 p V V v n C S D P o.i.i.@.P S S A n f <.l.z.z.z.z.z.z.z.",
"z.z.z.z.z.z.z.z.z.z.z.z.z.z.z.z.z.z.z.z.z.z.z.z.z.z.z.z.z.z.z.z 8  .9.*.N a n A Y w.w.T S S A C b K <.j.z.z.z.z.z.z.z.z.",
"z.z.z.z.z.z.z.z.z.z.z.z.z.z.z.z.z.z.z.z.z.z.z.z.z.z.z.z.z.z.z.y.l %.z.l.q.f x A P U D S A n c F *.j.z.z.z.z.z.z.z.z.z.z.",
"z.z.z.z.z.z.z.z.z.z.z.z.z.z.z.z.z.z.z.z.z.z.z.z.z.z.z.z.z.z.z.z.l.d.z.z.z.*.d A S C C n c f { p.z.z.z.z.z.z.z.z.z.z.z.z.",
"z.z.z.z.z.z.z.z.z.z.z.z.z.z.z.z.z.z.z.z.z.z.z.z.z.z.z.z.z.z.z.z.z.z.z.z.z.j.F C V M g N  .t.l.z.z.z.z.z.z.z.z.z.z.z.z.z.",
"z.z.z.z.z.z.z.z.z.z.z.z.z.z.z.z.z.z.z.z.z.z.z.z.z.z.z.z.z.z.z.z.z.z.z.z.u.a.J A [ a.j.j.l.l.z.z.z.z.z.z.z.z.z.z.z.z.z.z.",
"z.z.z.z.z.z.z.z.z.z.z.z.z.z.z.z.z.z.z.z.z.z.z.z.z.z.z.z.z.z.z.z.z.z.z.l.<.H Z } p.z.z.z.z.z.z.z.z.z.z.z.z.z.z.z.z.z.z.z.",
"z.z.z.z.z.z.z.z.z.z.z.z.z.z.z.z.z.z.z.z.z.z.z.z.z.z.z.z.z.z.z.z.z.z.z.z.l.p.q.l.z.z.z.z.z.z.z.z.z.z.z.z.z.z.z.z.z.z.z.z.",
"z.z.z.z.z.z.z.z.z.z.z.z.z.z.z.z.z.z.z.z.z.z.z.z.z.z.z.z.z.z.z.z.z.z.z.z.z.z.z.z.z.z.z.z.z.z.z.z.z.z.z.z.z.z.z.z.z.z.z.z.",
"z.z.z.z.z.z.z.z.z.z.z.z.z.z.z.z.z.z.z.z.z.z.z.z.z.z.z.z.z.z.z.z.z.z.z.z.z.z.z.z.z.z.z.z.z.z.z.z.z.z.z.z.z.z.z.z.z.z.z.z.",
"z.z.z.z.z.z.z.z.z.z.z.z.z.z.z.z.z.z.z.z.z.z.z.z.z.z.z.z.z.z.z.z.z.z.z.z.z.z.z.z.z.z.z.z.z.z.z.z.z.z.z.z.z.z.z.z.z.z.z.z.",
"z.z.z.z.z.z.z.z.z.z.z.z.z.z.z.z.z.z.z.z.z.z.z.z.z.z.z.z.z.z.z.z.z.z.z.z.z.z.z.z.z.z.z.z.z.z.z.z.z.z.z.z.z.z.z.z.z.z.z.z.",
"z.z.z.z.z.z.z.z.z.z.z.z.z.z.z.z.z.z.z.z.z.z.z.z.z.z.z.z.z.z.z.z.z.z.z.z.z.z.z.z.z.z.z.z.z.z.z.z.z.z.z.z.z.z.z.z.z.z.z.z.",
"z.z.z.z.z.z.z.z.z.z.z.z.z.z.z.z.z.z.z.z.z.z.z.z.z.z.z.z.z.z.z.z.z.z.z.z.z.z.z.z.z.z.z.z.z.z.z.z.z.z.z.z.z.z.z.z.z.z.z.z.",
"z.z.z.z.z.z.z.z.z.z.z.z.z.z.z.z.z.z.z.z.z.z.z.z.z.z.z.z.z.z.z.z.z.z.z.z.z.z.z.z.z.z.z.z.z.z.z.z.z.z.z.z.z.z.z.z.z.z.z.z.",
"z.z.z.z.z.z.z.z.z.z.z.z.z.z.z.z.z.z.z.z.z.z.z.z.z.z.z.z.z.z.z.z.z.z.z.z.z.z.z.z.z.z.z.z.z.z.z.z.z.z.z.z.z.z.z.z.z.z.z.z.",
"z.z.z.z.z.z.z.z.z.z.z.z.z.z.z.z.z.z.z.z.z.z.z.z.z.z.z.z.z.z.z.z.z.z.z.z.z.z.z.z.z.z.z.z.z.z.z.z.z.z.z.z.z.z.z.z.z.z.z.z.",
"z.z.z.z.z.z.z.z.z.z.z.z.z.z.z.z.z.z.z.z.z.z.z.z.z.z.z.z.z.z.z.z.z.z.z.z.z.z.z.z.z.z.z.z.z.z.z.z.z.z.z.z.z.z.z.z.z.z.z.z.",
"z.z.z.z.z.z.z.z.z.z.z.z.z.z.z.z.z.z.z.z.z.z.z.z.z.z.z.z.z.z.z.z.z.z.z.z.z.z.z.z.z.z.z.z.z.z.z.z.z.z.z.z.z.z.z.z.z.z.z.z."
};
