/* XPM */
static char *ffbb6202900242e1b6c5856a577946e2QlTUDSFrddwUa5bq[] = {
/* columns rows colors chars-per-pixel */
"60 60 92 1 ",
"  c #221515",
". c #231817",
"X c #231A1D",
"o c #1E1E2B",
"O c #1D1F32",
"+ c #211C24",
"@ c #1E2033",
"# c #252026",
"$ c #24232D",
"% c #29252B",
"& c #302A2F",
"* c #212335",
"= c #292934",
"- c #2A2C3B",
"; c #302A30",
": c #2B303F",
"> c #272D41",
", c #292F42",
"< c #2B3245",
"1 c #2D354A",
"2 c #373D46",
"3 c #313A4C",
"4 c #353F52",
"5 c #3E4142",
"6 c #3E474D",
"7 c #364154",
"8 c #384459",
"9 c #3D4A5B",
"0 c #3E4C63",
"q c #464D4D",
"w c #474954",
"e c #4E4F59",
"r c #465359",
"t c #4E505B",
"y c #404F65",
"u c #404F69",
"i c #435465",
"p c #495260",
"a c #495966",
"s c #44556D",
"d c #495B6F",
"f c #565F6B",
"g c #5A5F6B",
"h c #465870",
"j c #4A5D75",
"k c #5B606D",
"l c #4C6077",
"z c #4D6179",
"x c #50667B",
"c c #52697F",
"v c #556D82",
"b c #577084",
"n c #587186",
"m c #5B758B",
"M c #5E798E",
"N c #5F7A91",
"B c #617D93",
"V c #698793",
"C c #66859B",
"Z c #68869C",
"A c #6B8B9F",
"S c #71929D",
"D c #6F91A2",
"F c #7EA3A5",
"G c #7EA9AF",
"H c #7DA7B2",
"J c #7FA8B3",
"K c #81AAAE",
"L c #83ACB4",
"P c #82AFB8",
"I c #84B1B7",
"U c #88B3B6",
"Y c #85B1BA",
"T c #8EB6BE",
"R c #90B7BC",
"E c #92B8BD",
"W c #A0A9AE",
"Q c #8FB9C0",
"! c #98CCCF",
"~ c #9AD0D2",
"^ c #9CD1D4",
"/ c #9ED4D6",
"( c #AAC1C5",
") c #B2C8CB",
"_ c #B6CDCF",
"` c #B7CDD0",
"' c #A6D6D8",
"] c #BADBDD",
"[ c #BFE0E2",
"{ c #C5D1D3",
"} c #C6D2D4",
"| c #D3EFEF",
/* pixels */
"Ok{|'~^/!HZCZZv1g}|'~^/!HZCZZv1g}|'~^/!HZCZZv1g}|'~^/!HZCCCC",
"@f)]TLLPLAMmMNz1f)]TLLPLAMmMNz1f)]TLLPLAMmMNz1f)]TLLPLAMmMMM",
"@aRTMcvvvzljzzi,aRTMcvvvzljzzi,aRTMcvvvzljzzi,aRTMcvvvzljlll",
"@iIHzusssssssh0>iIHzusssssssh0>iIHzusssssssh0>iIHzusssssssss",
"@iILxshhhhhhhh0,iILxshhhhhhhh0,iILxshhhhhhhh0,iILxshhhhhhhhh",
"+rILxshhhhhhhh9=rULxshhhhhhhh9=rULxshhhhhhhh9=rULxshhhhhhhhh",
" qLJxshhhhhhhh9%qLJxshhhhhhhh9%qLJxshhhhhhhh9%qLJxshhhhhhhhh",
"+6SDzshhhhhhhh9=6SDzshhhhhhhh9=6SDzshhhhhhhh9=6SDzshhhhhhhhh",
"*7mNjshhhhhhhh0,7mNjshhhhhhhh0,7mNjshhhhhhhh0,7mNjshhhhhhhhh",
"*7nmjshhhhhhhh0,4nmjshhhhhhhh0,4nmjshhhhhhhh0,4nmjshhhhhhhhh",
"*7mMjshhhhhhhh0,7mMjshhhhhhhh0,7mMjshhhhhhhh0,7mMjshhhhhhhhh",
"*7mNjhhhhhhhhj0,7mNjhhhhhhhhj0,7mNjhhhhhhhhj0,7mNjhhhhhhhhhh",
"$3xcs0000000yi8-3xcs0000000yi8-3xcs0000000yi8-3xcs0000000000",
"X%11<,,=%-<<<<-#%11<,,=%-<<<<-#%11<,,=%-<<<<-#%11<,,=%-<<<<<",
"X;wp9996523333<#&wp9996523333<#&wp9996523333<#&wp99965233333",
"otW(LGKKFVbvvnd:eW(LGKKFVbvvnd:eW(LGKKFVbvvnd:eW(LGKKFVbvvvv",
"@f_[QPYYLDNNNBz1f`[QPYYLDNNNBz1f`[QPYYLDNNNBz1f`[QPYYLDNNNNN",
"@aETMcvvvxzzzzi,aETMcvvvxzzzzi,aETMcvvvxzzzzi,aETMcvvvxzzzzz",
"@iIHzusssssssh0>iIHzusssssssh0>iIHzusssssssh0>iIHzussssssshh",
"@iILxshhhhhhhh0,iILxshhhhhhhh0,iILxshhhhhhhh0,iILxshhhhhhhhh",
"+rILxshhhhhhhh9=rULxshhhhhhhh9=rULxshhhhhhhh9=rULxshhhhhhhhh",
" qLJxshhhhhhhh9%qLJxshhhhhhhh9%qLJxshhhhhhhh9%qLJxshhhhhhhhh",
"+6SDzshhhhhhhh9=6SDzshhhhhhhh9=6SDzshhhhhhhh9=6SDzshhhhhhhhh",
"*7mNjshhhhhhhh0,7mNjshhhhhhhh0,7mNjshhhhhhhh0,7mNjshhhhhhhhh",
"*7nmjshhhhhhhh0,4nmjshhhhhhhh0,4nmjshhhhhhhh0,4nmjshhhhhhhhh",
"*7mMjshhhhhhhh0,7mMjshhhhhhhh0,7mMjshhhhhhhh0,7mMjshhhhhhhhh",
"*7mNjhhhhhhhhj0,7mNjhhhhhhhhj0,7mNjhhhhhhhhj0,7mNjhhhhhhhhhh",
"$3xcs0000000yi8-3xcs0000000yi8-3xcs0000000yi8-3xcs0000000000",
"X%11<,,=%-<<<<-#%11<,,=%-<<<<-#%11<,,=%-<<<<-#%11<,,=%-<<<<<",
"X;wp9996523333<#&wp9996523333<#&wp9996523333<#&wp99965233333",
"otW(LGKKFVbvvnd:eW(LGKKFVbvvnd:eW(LGKKFVbvvnd:eW(LGKKFVbvvvv",
"@f_[QPYYLDNNNBz1f`[QPYYLDNNNBz1f`[QPYYLDNNNBz1f`[QPYYLDNNNNN",
"@aETMcvvvxzzzzi,aETMcvvvxzzzzi,aETMcvvvxzzzzi,aETMcvvvxzzzzz",
"@iIHzusssssssh0>iIHzusssssssh0>iIHzusssssssh0>iIHzusssssssss",
"@iILxshhhhhhhh0,iILxshhhhhhhh0,iILxshhhhhhhh0,iILxshhhhhhhhh",
"+rILxshhhhhhhh9=rULxshhhhhhhh9=rULxshhhhhhhh9=rULxshhhhhhhhh",
" qLJxshhhhhhhh9%qLJxshhhhhhhh9%qLJxshhhhhhhh9%qLJxshhhhhhhhh",
"+6SDzshhhhhhhh9=6SDzshhhhhhhh9=6SDzshhhhhhhh9=6SDzshhhhhhhhh",
"*7mNjshhhhhhhh0,7mNjshhhhhhhh0,7mNjshhhhhhhh0,7mNjshhhhhhhhh",
"*7nmjshhhhhhhh0,4nmjshhhhhhhh0,4nmjshhhhhhhh0,4nmjshhhhhhhhh",
"*7mMjshhhhhhhh0,7mMjshhhhhhhh0,7mMjshhhhhhhh0,7mMjshhhhhhhhh",
"*7mNjhhhhhhhhj0,7mNjhhhhhhhhj0,7mNjhhhhhhhhj0,7mNjhhhhhhhhhh",
"$3xcs0000000yi8-3xcs0000000yi8-3xcs0000000yi8-3xcs0000000000",
"X%11<,,=%-<<<<-#%11<,,=%-<<<<-#%11<,,=%-<<<<-#%11<,,=%-<<<<<",
"X;wp9996523333<#&wp9996523333<#&wp9996523333<#&wp99965233333",
"otW(LGKKFVbvvnd:eW(LGKKFVbvvnd:eW(LGKKFVbvvnd:eW(LGKKFVbvvvv",
"@f_[QPYYLDNNNBz1f`[QPYYLDNNNBz1f`[QPYYLDNNNBz1f`[QPYYLDNNNNN",
"@aETMcvvvxzzzzi,aETMcvvvxzzzzi,aETMcvvvxzzzzi,aETMcvvvxzzzzz",
"@iIHzusssssssh0>iIHzusssssssh0>iIHzusssssssh0>iIHzusssssssss",
"@iILxshhhhhhhh0,iILxshhhhhhhh0,iILxshhhhhhhh0,iILxshhhhhhhhh",
"+rILxshhhhhhhh9=rULxshhhhhhhh9=rULxshhhhhhhh9=rULxshhhhhhhhh",
" qLJxshhhhhhhh9%qLJxshhhhhhhh9%qLJxshhhhhhhh9%qLJxshhhhhhhhh",
"+6SDzshhhhhhhh9=6SDzshhhhhhhh9=6SDzshhhhhhhh9=6SDzshhhhhhhhh",
"*7mNjshhhhhhhh0,7mNjshhhhhhhh0,7mNjshhhhhhhh0,7mNjshhhhhhhhh",
"*7nmjshhhhhhhh0,4nmjshhhhhhhh0,4nmjshhhhhhhh0,4nmjshhhhhhhhh",
"*7mMjshhhhhhhh0,7mMjshhhhhhhh0,7mMjshhhhhhhh0,7mMjshhhhhhhhh",
"*7mNjhhhhhhhhj0,7mNjhhhhhhhhj0,7mNjhhhhhhhhj0,7mNjhhhhhhhhhh",
"$3xcs0yyyyyyys8-3xcs0yyyyyyys8-3xcs0yyyyyyys8-3xcs0yyyyyiiyy",
"X%341<<-=-<111-#%341<<-=-<111-#%341<<-=-<111-#%341<<-=-<1<<<",
" X$****+.+****$XX$****+.+****$XX$****+.+****$XX$****+.+*****"
};
