/* XPM */
static char *result[] = {
/* columns rows colors chars-per-pixel */
"80 100 207 2 ",
"   c gray9",
".  c #1B1717",
"X  c #1D1817",
"o  c #17171A",
"O  c #18171D",
"+  c #17181C",
"@  c #1B1A1B",
"#  c #211817",
"$  c #23191A",
"%  c #2B1A1B",
"&  c #331B1A",
"*  c #391A1B",
"=  c #191721",
"-  c #171821",
";  c #191924",
":  c #1B192C",
">  c #1C1A34",
",  c #1D1A3A",
"<  c #211922",
"1  c #2C1C26",
"2  c #3C1F20",
"3  c #361A28",
"4  c #211E34",
"5  c #1E222E",
"6  c #1A2134",
"7  c #1B233B",
"8  c #1F283E",
"9  c #252424",
"0  c #272629",
"q  c #2A2A2A",
"w  c #372626",
"e  c #242434",
"r  c #2B2934",
"t  c #292738",
"y  c #22293D",
"u  c #372234",
"i  c #343434",
"p  c #3A3434",
"a  c #35353B",
"s  c #3B3A3A",
"d  c #451A1B",
"f  c #4B1B1C",
"g  c #531B1D",
"h  c #5B1C1D",
"j  c #641C1E",
"k  c #6C1D1E",
"l  c #731E1F",
"z  c #791C1F",
"x  c #4B201A",
"c  c #67221C",
"v  c #75281E",
"b  c #4C1E20",
"n  c #591E20",
"m  c #661F21",
"M  c #6C1F21",
"N  c #741E20",
"B  c #7C1F21",
"V  c #432021",
"C  c #4B2122",
"Z  c #4E2B2B",
"A  c #562122",
"S  c #5C2021",
"D  c #443434",
"F  c #583236",
"G  c #652222",
"H  c #762224",
"J  c #1D1D44",
"K  c #1E1E4C",
"L  c #1E1F51",
"P  c #3A1F46",
"I  c #1B2444",
"U  c #1C214D",
"Y  c #1E2A4A",
"T  c #1D2154",
"R  c #1C2B54",
"E  c #1E225A",
"W  c #1D2C5C",
"Q  c #232B48",
"!  c #24314B",
"~  c #27354A",
"^  c #283E4E",
"/  c #363947",
"(  c #3B3B44",
")  c #2E2D50",
"_  c #2B3657",
"`  c #1E2464",
"'  c #1D2B66",
"]  c #1E276E",
"[  c #1E3269",
"{  c #1E2770",
"}  c #1E2A74",
"|  c #1F2D7A",
" . c #1F3572",
".. c #1F327C",
"X. c #202C67",
"o. c #3C2862",
"O. c #233464",
"+. c #273968",
"@. c #2A3E6B",
"#. c #212E77",
"$. c #213573",
"%. c #21347C",
"&. c #233B7C",
"*. c #3C424E",
"=. c #2E4B65",
"-. c #364767",
";. c #2C4779",
":. c #334E70",
">. c #414141",
",. c #494548",
"<. c #4B4B4B",
"1. c #5D4545",
"2. c #4C4D52",
"3. c #4D4F5E",
"4. c #545454",
"5. c #55565A",
"6. c #5C5C5C",
"7. c #644848",
"8. c #595C64",
"9. c #5F6C76",
"0. c #636363",
"q. c #6E6464",
"w. c #6A6A6A",
"e. c #716E6E",
"r. c #747474",
"t. c #7C7C7C",
"y. c #831C1F",
"u. c #8A2B1F",
"i. c #831F21",
"p. c #8B1F21",
"a. c #941F22",
"s. c #9B1F22",
"d. c #9D1F2C",
"f. c #A31F22",
"g. c #AB1F23",
"h. c #B11F23",
"j. c #BB1F23",
"k. c #8A2925",
"l. c #9B2D20",
"z. c #962D32",
"x. c #8C3139",
"c. c #A72424",
"v. c #B52423",
"b. c #BE2024",
"n. c #B42C23",
"m. c #A83221",
"M. c #BE3425",
"N. c #AC3634",
"B. c #C52A24",
"V. c #C63024",
"C. c #CC3124",
"Z. c #D33924",
"A. c #8A6661",
"S. c #AF6365",
"D. c #CD6E66",
"F. c #1F3180",
"G. c #203483",
"H. c #213B85",
"J. c #21368A",
"K. c #223B8C",
"L. c #223C93",
"P. c #223F99",
"I. c #2B418C",
"U. c #314B84",
"Y. c #244293",
"T. c #2A4697",
"R. c #23429C",
"E. c #314C96",
"W. c #33529A",
"Q. c #2446A5",
"!. c #2749A7",
"~. c #294BA6",
"^. c #2A4DA9",
"/. c #2F52AC",
"(. c #3454A4",
"). c #3256AE",
"_. c #385BA9",
"`. c #355AB1",
"'. c #385DB3",
"]. c #3C61AF",
"[. c #396AAD",
"{. c #3C61B6",
"}. c #3F65B8",
"|. c #787B81",
" X c #4069BA",
".X c #4376BA",
"XX c #4475C1",
"oX c #457AC4",
"OX c #807F81",
"+X c #4882C6",
"@X c #4A85C9",
"#X c #4C8DCD",
"$X c #4D92C5",
"%X c #4F92D1",
"&X c #529DD6",
"*X c #539FD8",
"=X c #808080",
"-X c #888686",
";X c #8B8B8B",
":X c #949494",
">X c #9B9B9B",
",X c #A5A5A5",
"<X c #ABABAB",
"1X c #B4B4B4",
"2X c #BBBBBB",
"3X c #C5C5C5",
"4X c #CCCCCC",
/* pixels */
"4X4X4X4X=X=X=X=X=X=X=X=X4X4X4X4X4X4X4X4X=X=X=X=X=X=X=X=X4X4X4X4X4X4X4X4X=X=X=X=X=X=X=X=X4X4X4X4X4X4X4X4X=X=X=X=X=X=X=X=X4X4X4X4X4X4X4X4X=X=X=X=X=X=X=X=X4X4X4X4X",
"4X4X4X4X=X=X=X=X=X=X=X=X4X4X4X4X4X4X4X4X=X=X=X=X=X=X=X=X4X4X4X4X4X4X4X4X=X=X=X=X=X=X=X=X4X4X4X4X4X4X4X4X=X=X=X=X=X=X=X=X4X4X4X4X4X4X4X4X=X=X=X=X=X=X=X=X4X4X4X4X",
"4X4X4X4X=X=X=X=X=X=X=X=X4X4X4X4X4X4X4X4X=X=X=X=X=X=X=X=X4X4X4X4X2X2X2X2Xr.r.r.r.r.r.r.r.2X2X2X2X2X2X4X4X=X=X=X|.=X=X=X=X4X4X4X4X4X4X4X4X=X=X=X=X=X=X=X=X4X4X4X4X",
"=X=X=X=X4X4X4X4X4X4X4X4X=X=X=X=X=X=X=X=X4X4X4X4X4X4X4X4X=X=X|.e.>.i i i <.<.<.<.<.,.<.,.p i i i i ,.r.t.4X4X4X4X4X4X4X4X=X=X=X=X=X=X=X=X4X4X4X4X4X4X4X4X=X=X=X=X",
"=X=X=X=X4X4X4X4X4X4X4X4X=X=X=X=X=X=X=X=X4X4X4X4X4X4X4X4Xr.6.6.4.y 7 I I I I Y ~ ! ! ! Q ! ! ! ! Q ~ 5.6.>X2X4X4X4X4X4X4X=X=X=X=X=X=X=X=X4X4X4X4X4X4X4X4X=X=X=X=X",
"=X=X=X=X4X4X4X4X4X4X4X4X=X=X=X=X=X=X=X=X4X4X4X4X4X4X4X4X6.@ @ 5 W ..Q.R.R.R.(.{.].].'. X].].'.'.W.&.6 + i >X4X4X4X4X4X4X=X=X=X=X=X=X=X=X4X4X4X4X4X4X4X4X=X=X=X=X",
"=X=X=X=X4X4X4X4X4X4X4X4X=X=X=X=X=X=X=X=X4X4X4X4X4X4X3Xt./ I W [ G.P.Q./.).).`.}.oX@X@X@X@X@X@X@XoX[.;.+.[ 8.-X3X4X4X4X4X=X=X=X=X=X=X=X=X4X4X4X4X4X4X4X4X=X=X=X=X",
"=X=X=X=X4X4X4X4X4X4X4X4X=X=X=X=X=X=X=X=X4X4X4X4X4X2X>X*.I } L.Q.Q.Q.!.`.}.}.}.oX%X*X*X*X*X*X*X*X&X%XoX`.T.R 2.,X2X4X4X4X=X=X=X=X=X=X=X=X4X4X4X4X4X4X4X4X=X=X=X=X",
"=X=X=X=X4X4X4X4X4X4X4X4X=X=X=X=X=X=X=X=X4X4X4X4X4X-X( E #.P.Q.Q.Q.Q.Q.`.}.}.oX%X&X*X*X*X*X*X*X*X&X&X&XoX`.Y.@.*.;X4X4X4X=X=X=X=X=X=X=X=X4X4X4X4X4X4X4X4X=X=X=X=X",
"=X=X=X=X4X4X4X4X4X4X4X4X=X=X=X=X=X=X=X=X4X4X4X1X-X3.J { J.Q.Q.Q.Q.Q.Q.`.}.}.XX#X%X*X*X*X*X*X*X*X&X&X&X#XoX).;.; t.4X4X4X=X=X=X=X=X=X=X=X4X4X4X4X4X4X4X4X=X=X=X=X",
"=X=X=X=X4X4X4X4X4X4X4X4X=X=X=X=X=X=X=X=X4X4X4X:X0 J } P.Q.Q.Q.Q.Q.Q.Q.`.{.}.}. X#X*X*X*X*X*X*X*X&X*X&X&X&X}.U.; t.4X4X4X=X=X=X=X=X=X=X=X4X4X4X4X4X4X4X4X=X=X=X=X",
"4X4X4X4X=X=X=X=X=X=X=X=X4X4X4X4X4X4X4X4X=X=X=X0.9 J #.P.Q.Q.Q.Q.Q.Q.Q.^.`.}.}.}.XXoXoXoXoXoXoXoXoXoXoXoXoX{.T. .^ <.e.=X4X4X4X4X4X4X4X4X=X=X=X=X=X=X=X=X4X4X4X4X",
"4X4X4X4X=X=X=X=X=X=X=X=X4X4X4X4X4X4X4X4X=X=Xe.2.6 U } K.P.Q.Q.Q.!.Q.Q.Q.!.`.'.'.'.'.'.'.'.'.'.'.{.{.`.`.`.!.!.Q.R 0 w.=X4X4X4X4X4X4X4X4X=X=X=X=X=X=X=X=X4X4X4X4X",
"4X4X4X4X=X=X=X=X=X=X=X=X4X4X4X4X4X4X4X4X=Xt.>.y E ` { } J.R.Q.Q.Q.Q.Q.Q.Q.!.!.!.!.!.!.!.!.!.!.!.Q.!.!.!.Q.Q.Q.Q.R 0 w.=X4X4X4X4X4X4X4X4X=X=X=X=X=X=X=X=X4X4X4X4X",
"4X4X4X4X=X=X=X=X=X=X=X=X4X4X4X4X4X4X4X4X=Xt.a : ` ] { { F.J.P.Q.Q.Q.Q.Q.Q.!.Q.Q.Q.Q.Q.Q.Q.Q.Q.Q.!.Q.Q.Q.Q.Q.R.J.Y 0 w.|.4X4X4X4X4X4X4X4X=X=X=X=X=X=X=X=X4X4X4X4X",
"4X4X4X4X=X=X=X=X=X=X=X=X4X4X4X4X4X4X4X4Xt.e.a , ` { ] { { { J.R.Q.Q.Q.Q.Q.Q.Q.Q.Q.!.Q.Q.Q.!.Q.Q.Q.Q.Q.Q.Q.Q.L.} I q 0.t.4X4X4X4X4X4X4X4X=X=X=X=X=X=X=X=X4X4X4X4X",
"4X4X4X4X=X=X=X=X=X=X=X=X4X4X4X4X4X4X4X4X6.a Q E ] ] ] ] ] ] #.F.F.L.Q.Q.Q.Q.Q.Q.Q.Q.Q.Q.Q.Q.Q.Q.Q.Q.Q.Q.R.J.| { ` U a 4.4X4X4X4X4X4X4X4X=X=X=X=X=X=X=X=X4X4X4X4X",
"4X4X4X4X=X=X=X=X=X=X=X=X4X4X4X4X4X4X4X4X4.+ T { ] ] ] ] ] ] ] { { | L.L.L.L.L.L.P.L.L.L.L.L.L.L.P.L.L.L.L.} { { ] ` ; >.4X4X4X4X4X4X4X4X=X=X=X=X=X=X=X=X4X4X4X4X",
"4X4X4X4X=X=X=X=X=X=X=X=X4X4X4X4X4X4X4X4X2.o T ] ] ] ] ] ] ] { ] ] { } } } } } } } } } } } } } } } } } } } } ] ] ] ` : s 4X4X4X4X4X4X4X4X=X=X=X=X=X=X=X=X4X4X4X4X",
"=X=X=X=X4X4X4X4X4X4X4X4X=X=X=X=X=X=X=X=Xt.o T ] #.] ] ] ] { ] { ] { ] { ] } } ` K 7 , J , J , J J , 7 J , J 7 , 7 > - 8.=X=X=X|.=X=X=X=X4X4X4X4X4X4X4X4X=X=X=X=X",
"=X=X=X=X4X4X4X4X4X4X4X4X=X=X=X=X=X=X=X=Xt.  K ` ` ] ] ] ] { ] { { ] { ] { { ' E 4 & & & & & & & % % & & & & & & & &   0.=X=X=X=X=X=X=X=X4X4X4X4X4X4X4X4X=X=X=X=X",
"=X=X=X=X4X4X4X4X4X4X4X4X=X=X=X=X=X=X=X=Xt.  > J K E ] ] { ] { ] ] { ] { { { K 1 v m.m.m.m.N.m.m.m.m.m.m.m.m.m.m.m.u.& 0.=X=X=X=X=X=X=X=X4X4X4X4X4X4X4X4X=X=X=X=X",
"=X=X=X=X4X4X4X4X4X4X4X4X=X=X=X=X=X=Xt.6.9.=.:.@.L E E ] ] { { ] ] } { ] ` T u c u.k.k.x.z.B.C.C.C.C.C.C.V.l.u.z.x.x.G A.=X=X=X=X=X=X=X=X4X4X4X4X4X4X4X4X=X=X=X=X",
"=X=X=X=X4X4X4X4X4X4X4X4X=X=X=X=X=X=Xw.q :.*X*X[.#.L , ` { ] ] ] ] ] ] { T - v M.x ; 4 E o.d.b.b.b.b.b.b.g.d @ 4 R o.N.D.=X=X=X=X=X=X=X=X4X4X4X4X4X4X4X4X=X=X=X=X",
"=X=X=X=X4X4X4X4X4X4X4X4X=X=X=X=X=X6.*.=.=.=.=.=.E.%.E T E ] ] ] ] ] ] ] L - m v.d ; > J P d.j.j.b.j.b.j.g.d ; > I P c.D.|.OX=X=X=X=X=X=X4X4X4X4X4X4X4X4X=X=X=X=X",
"=X=X=X=X4X4X4X4X4X4X4X4X=X=X=X=X=X>.8 W.@.    Y _.I.X.J K ] ] ] { ] } ] L - j s.d O > : u a.h.g.h.h.h.h.f.d O : > 3 p.S.OXOX=X=X=X=X=X=X4X4X4X4X4X4X4X4X=X=X=X=X",
"=X=X=X=X4X4X4X4X4X4X4X4X=X=X=X=X=X*.6 Y.[     8 R.J.` J K ] ] ] ] { ] { E ; f B & . + + % N p.p.p.p.p.i.i.* o + + % N S.=X=X=X=X=X=X=X=X4X4X4X4X4X4X4X4X=X=X=X=X",
"4X4X4X4X=X=X=X=X=X=X=X=X4X4X4X4X4X6.6 K.[     I P.J.X.J K ] ] ] { ] { ] ` I 3 f f d d d f N B i.i.B i.B z g d d d d f 7.4X4X4X4X4X4X4X4X=X=X=X=X=X=X=X=X4X4X4X4X",
"4X4X4X4X=X=X=X=X=X=X=X=X4X4X4X4X4X0.y H.[ o - I L.G.` K K ] ] ] ] ] ] } ] ] J < h N B z N z z z N N N B z z z z z j % >.4X4X4X4X4X4X4X4X=X=X=X=X=X=X=X=X4X4X4X4X",
"4X4X4X4X=X=X=X=X=X=X=X=X4X4X4X4X4X<Xt.^ W  . ...%.X.L E ` ] ] ] } ] ] ] ] ] } $.u & & * * * & * * * * * & % & * * & X >.4X4X4X4X4X4X4X4X=X=X=X=X=X=X=X=X4X4X4X4X",
"4X4X4X4X=X=X=X=X=X=X=X=X4X4X4X4X4X4X1X0._ &.H.%.` K J E ] ] ] ] ] ] ] ] } | K.Y.W I y ~ Q ^ ^ ^ ^ ^ ^ ^ ^ ^ ^ *.~ y ; >.4X4X4X4X4X4X4X4X=X=X=X=X=X=X=X=X4X4X4X4X",
"4X4X4X4X=X=X=X=X=X=X=X=X4X4X4X4X4X4X3X2X2.; , 7 , , J E ] ] ] #.] ] ] } | P.Q.Q.Y.E.].W. X+X$X$X$X$X$X$X$X$X$X$X.XU.7 >.4X4X4X4X4X4X4X4X=X=X=X=X=X=X=X=X4X4X4X4X",
"4X4X4X4X=X=X=X=X=X=X=X=X4X4X4X4X4X4X4X4Xw.<.r : , , J ` { ] ] ] ] ] { F.L.R.Q.Q.Q.!.).).`.oX+X+X+X+X+XoX@XoX@X@XXX_.$._ r.,X4X4X4X4X4X4X=X=X=X=X=X=X=X=X4X4X4X4X",
"4X4X4X4X=X=X=X=X=X=X=X=X4X4X4X4X4X4X4X4Xt.t.i ; > 4 J E ] ] { ] ] } { L.Q.Q.Q.Q.Q.Q.Q.Q.!.`.{.{.'.{.{.{.{.'.{.'.'.`.!. .+ -X4X4X4X4X4X4X=X=X=X=X=X=X=X=X4X4X4X4X",
"4X4X4X4X=X=X=X=X=X=X=X=X4X4X4X4X4X4X4X4X=Xt.p ; > , , J L ] ] ] ] ] } L.Q.Q.Q.Q.Q.Q.Q.Q.Q.^.^.^.^.^.^.^.^.^.^.~.^.^.Q.[ . -X4X4X4X4X4X4X=X=X=X=X=X=X=X=X4X4X4X4X",
"=X=X=X=X4X4X4X4X4X4X4X4X=X=X=X=X=X=X=Xt.4X3Xt.2.4 > , 4 K L ] { ] ] ] G.K.F.F.F.$. . .$. . . . . . . . .$.[ $.#.$.$.$.Y   5.=X=X=X=X=X=X4X4X4X4X4X4X4X4X=X=X=X=X",
"=X=X=X=X4X4X4X4X4X4X4X4X=X=X=X=X=X=X=X=X4X4X3X:X1 ; 4 , , , L { ] { ] ] ` J , , ; O   o o o o o o + o o o o O o o   +     6.=X=X=X=X=X=X4X4X4X4X4X4X4X4X=X=X=X=X",
"=X=X=X=X4X4X4X4X4X4X4X4X=X=X=X=X=X=X=X=X4X4X4X1X-X2.: > , , J L K E ] ] ' E E L > : : : : : : : : : : : : : : : + q w.=X4.e.=X=X=X=X=X=X4X4X4X4X4X4X4X4X=X=X=X=X",
"=X=X=X=X4X4X4X4X4X4X4X4X=X=X=X=X=X=X=X=X4X4X1X,X,X6.o : > , , , , K ` ] ] ] ] ] E U Q U U Q U U J J 4 > 4 , , : r 5.<X4X=X=X=X=X=X=X=X=X4X4X4X4X4X4X4X4X=X=X=X=X",
"=X=X=X=X4X4X4X4X4X4X4X4X=X=X=X=X=X=X=X=X4X3Xw.p a 1 o o ; , > , , , K E { ] ] { G.L.L.K.L.L.K.K.} E J , 4 , : = w.1X3X4X=X=X=X=X=X=X=X=X4X4X4X4X4X4X4X4X=X=X=X=X",
"=X=X=X=X4X4X4X4X4X4X4X4X=X=X=X=X=X=Xt.5.=Xt.-.R T R Q J , : > , 4 , , K ` ] ] } L.Q.Q.Q.Q.Q.Q.Q.L...T J , : a 6.>X4X4X4X=X=X=X=X=X=X=X=X4X4X4X4X4X4X4X4X=X=X=X=X",
"=X=X=X=X4X4X4X4X4X4X4X4X=X=X=XOX=Xt.0.0 + : $.Q.Q.Q.Q.#.T O : > , , , , J ` ] ] L.Q.Q.Q.Q.Q.Q.Q.R.L.{ T > < 5.3X4X4X4X4X=X=X=X=X=X=X=X=X4X4X4X4X4X4X4X4X=X=X=X=X",
"=X=X=X=X4X4X4X4X4X4X4X4X=X=X=XOX=X4./ +.;.U.(.`.`.`.`.P...T > - ; ; = > , K K L } F.| F.F.F.F.F.X.E U , e w.,X3X4X4X4X4X=X=X=X=X=X=X=X=X4X4X4X4X4X4X4X4X=X=X=X=X",
"4X4X4X4X=X=X=X=X=X=X=X=X4X4X4X2X>X2.7 G.Q.`.`.].'.).(.P.G.] U : : : : : > : > > K E E L E T T T , > : > e 2.w.t.=X=X=X=X4X4X4X4X4X4X4X4X=X=X=X=X=X=X=X=X4X4X4X4X",
"4X4X4X4X=X=X=X=X=X=X=X=X4X4X4X;Xu 4 J ] K.^.!.!.Q.J.#.#.{ { ] ` ` ` ` > + +     - - O - - - - - + O   J E e ( t.=X=X=X=X4X4X4X4X4X4X4X4X=X=X=X=X=X=X=X=X4X4X4X4X",
"4X4X4X4X=X=X=X=X=X=X=X=X4X4X4X-X  : 4 K ' J.G.J.J.#.{ { { { { { G.J.G.E J I I J I J I J J J J I I , : K ] , r <.w.=X=X=X4X4X4X4X4X4X4X4X=X=X=X=X=X=X=X=X4X4X4X4X",
"4X4X4X4X=X=X=X=X=X=X=X=X4X4X4X-X  : , , K X.] ] ` ] ` ` ] ] { } P.Q.Q.J.}  .| | } | } %.} ..} #.| ' J T X.J :   <.=X=X=X4X4X4X4X4X4X4X4X=X=X=X=X=X=X=X=X4X4X4X4X",
"4X4X4X4X=X=X=X=X=X=X=X|.4X4X4X-X  : , 4 J K J J J K K K L ] { #.P.Q.Q.^.(.(.(.(.(.(.(.(.(.(.(.(.R.G.` T I , >   2.=X=X=X4X4X4X4X4X4X4X4X=X=X=X=X=X=X=X=X4X4X4X4X",
"4X4X4X4X=X=X=X=X=X=X=X=X4X4X4X>X4.a : , , , , 4 , , 4 , J E ` #.J.P.Q./.`.`.'.}.}.}.}. X'.'.`.).^.P.} T : : e s 6.=X=X=X4X4X4X4X4X4X4X4X=X=X=X=X=X=X=X=X4X4X4X4X",
"4X4X4X4X=X=X=X=X=X=X=X=X4X4X4X4X3X6.+ > > , , , , , , , , , E ] } J.Q.Q.!.Q.).{.}.}.}. X'.^.Q.Q.Q.L.} J     s r.t.=X=X=X4X4X4X4X4X4X4X4X=X=X=X=X=X=X=X=X4X4X4X4X",
"4X4X4X4X=X=X=X=X=X=X=X=X4X4X4X4X4X>Xw.r ; ; ; : , , , 4 , , L #.{ #.J.P.Q.Q.!./.L.I.L.K.P.~.Q.Q.K...E , @ *.9.A.=X=X=X=X4X4X4X4X4X4X4X4X=X=X=X=X=X=X=X=X4X4X4X4X",
"=X=X=X=X4X4X4X4X4X4X4X4X=X=X=X=X=Xt.w.q . . # < : > > > , , L ` ] { } J.R.P.P.L.F.o.] ] #.L.P.P.| ` , ; 0 >X4X4X4X4X4X4X=X=X=X=X=X=X=X=X4X4X4X4X4X4X4X4X=X=X=X=X",
"=X=X=X=X4X4X4X4X4X4X4X4X=X=X=X=X=X=Xw.9 % * * 1 = O O O ; , , K ` ] ] } } #.#.| #.] ] ] { | #.F.} ` J ; 0 :X4X4X4X4X4X4X=X=X=X=X=X=X=X=X4X4X4X4X4X4X4X4X=X=X=X=X",
"=X=X=X=X4X4X4X4X4X4X4X4X=X=X=X=X=X=Xw.0 % V A g d * % . O : > J E ` ] ] ] ] { { #.` E E E L L E E L , ; 0 >X4X4X4X4X4X4X=X=X=X=X=X=X=X=X4X4X4X4X4X4X4X4X=X=X=X=X",
"=X=X=X=X4X4X4X4X4X4X4X4X=X=X=X=X=Xt.0.0 % V M i.B n b <     : 4 , L ] ] ] ] ] ] ] E , > 4 , , > , , > : 0 :X4X4X4X4X4X4X=X=X=X=X=X=X=X=X4X4X4X4X4X4X4X4X=X=X=X=X",
"=X=X=X=X4X4X4X4X4X4X4X4X=X=X=X=X=X5.s w f H a.s.i.g 1 e.>.o : > , J K K K K K K K J = = = = : , > > : o 9 >X4X4X4X4X4X4X=X=X=X=X=X=X=X=X4X4X4X4X4X4X4X4X=X=X=X=X",
"=X=X=X=X4X4X4X4X4X4X4X4X=X=X=X=X=X>.$ 2 S i.f.g.k.f q ,X0.i 4 > : > , , , , > > > : O ; - O ; > > : : : t t.<X4X4X4X4X4X=X=X=X=X=X=X=X=X4X4X4X4X4X4X4X4X=X=X=X=X",
"=X=X=X=X4X4X4X4X4X4X4X4X=X=X=X=X=Xs $ 2 S i.g.g.B f q >Xt.r.D o . : , > , > = # O ; : > > > : o + : E ` ` y 6.3X4X4X4X4X=X=X=X=X=X=X=X=X4X4X4X4X4X4X4X4X=X=X=X=X",
"=X=X=X=X4X4X4X4X4X4X4X4XA.t.=Xw.<.i @ $ * g k.p.g 1.t.1X=X=X>.o = : = : : = : = ; , ' ' X.J > : + > | | ` > 2.3X4X4X4X4X=X=X=X=X=X=X=X=X4X4X4X4X4X4X4X4X=X=X=X=X",
"4X4X4X4X=X=X=X=X=X=X=X=X4X4X3Xt.+ + - + - ; g h # <.=X=X4X4X0.O > : O O = O : , , X.Q.Q.L.T 4 , - 7 Y.L.' 6 a e.t.=X=X=X4X4X4X4X4X4X4X4X=X=X=X=X=X=X=X=X4X4X4X4X",
"4X4X4X4X=X=X=X=X=X=X=X=X4X2X9.*.> J E E X.$.t % o <.=X=X4X4X0.; > , : : : : > , L | Q.Q.Q.K.' > - 8 W.^.L.' Y a 6.=X=X=X4X4X4X4X4X4X4X4X=X=X=X=X=X=X=X=X4X4X4X4X",
"4X4X4X4X=X=X=X=X=X=X=X=X1X|.a : J E { | L.~.+.Y I *.0.t.4X4X-X,.4 : : : > , , L ` F.Q.Q.Q.Q...K : 8 _.).R.F.L + 4.=X=X=X4X4X4X4X4X4X4X4X=X=X=X=X=X=X=X=X4X4X4X4X",
"4X4X4X4X=X=X=X=X=X=X=X=Xr.9 > U ] ] | P.(.{.]._.R.W q w.4X4X3X>Xu O o o = , L { ] F.Q.Q.Q.Q.K.` 6 8 W.`.R...T o 4.t.=X=X4X4X4X4X4X4X4X4X=X=X=X=X=X=X=X=X4X4X4X4X",
"4X4X4X4X=X=X=X=X=X=X=X|.w.+ : U ] { | P.). X}.{.`.I.O.( ;X4X4X,Xs $ % 3 % = K { } } G.P.Q.Q.H.T : 8 T.^.R...T   4.=X=X=X4X4X4X4X4X4X4X4X=X=X=X=X=X=X=X=X4X4X4X4X",
"4X4X4X4X=X=X=X=X=X=X=X=Xw.+ : K ` X.#.P./.{.{.}.}.).T., 5.4X2X;Xp & b b 1 . , ] ] { { G.P.P.#.> ; 7 L.R.P.} U o <.=X=X=X4X4X4X4X4X4X4X4X=X=X=X=X=X=X=X=X4X4X4X4X",
"4X4X4X4X=X=X=X=X=X=X=X=Xw.+ > J J E F.P.Q.^.{.{.}.{.W.Q 6.3Xt.D w 2 w b * X : J ` { { } | #.T +   7 L.L.} T , o 4.=X=X=X4X4X4X4X4X4X4X4X=X=X=X=X=X=X=X=X4X4X4X4X",
"4X4X4X4X=X=X=X=X=X=X=X=Xw.+ : 4 J E #.J.P.Q./.).`.`.~.J 6.3X0.# b n n b w % < > K E E T E E 7     > ....] J : + <.=X=X=X4X4X4X4X4X4X4X4X=X=X=X=X=X=X=X=X4X4X4X4X",
"=X=X=X=X4X4X4X4X4X4X4X4X,.+ 4 > , L { { J.Q.Q.Q.Q.Q.L.4 s t.>.% M B B n V V % o > > , , > , :     : ' ] ` J :   t.4X4X4X=X=X=X=X=X=X=X=X4X4X4X4X4X4X4X4X=X=X=X=X",
"=X=X=X=X4X4X4X4X4X4X4X4Xw.2.e : , J L ` | F.P.Q.Q.Q.P.` Q ( Z k a.f.f.B S C % . O ; ; ; ; ; < & @ - J J K : ;   t.4X4X4X=X=X=X=X=X=X=X=X4X4X4X4X4X4X4X4X=X=X=X=X",
"=X=X=X=X4X4X4X4X4X4X4X4X=Xw.i ; > , K ` { { J.P.P.L.L.| Q o g p.j.j.j.a.c C % @ i i   . # @ * C % O > > > < & % q.<X3X4X=X=X=X=X=X=X=X=X4X4X4X4X4X4X4X4X=X=X=X=X",
"=X=X=X=X4X4X4X4X4X4X4X4X=Xe.i - , , J ` { { { { } | } } L   g p.h.j.j.l.N C % q -Xt.@ % 2 w g N & o + + $ g k k Z <.<X4X=X=X=X=X=X=X=X=X4X4X4X4X4X4X4X4X=X=X=X=X",
"=X=X=X=X4X4X4X4X4X4X4X4Xt.t.4.p : : , L E E ] ] } ] ] } K . g i.s.p.k g f & <.r.1X;X; % % & * g % % c k k z z y.d s ,X4X=X=X=X=X=X=X=X=X4X4X4X4X4X4X4X4X=X=X=X=X",
"=X=X=X=X4X4X4X4X4X4X4X4X=X=X=X6.. : , , 4 J T ] ` ` ` ] J   f N z b ; ; ; ; w.2X4X;X@ o O O ; ; + f m.C.j.a.i.B d i ,X4X=X=X=X=X=X=X=X=X4X4X4X4X4X4X4X4X=X=X=X=X",
"=X=X=X=X4X4X4X4X4X4X4X4X=X=X=X5.. : , J , 4 J U J J > : :   % & * / U.&... .-.0.<X;X9 , E $.&.E.&.+.C u.C.v.s.i.d i ,X4X=X=X=X=X=X=X=X=X4X4X4X4X4X4X4X4X=X=X=X=X",
"=X=X=X=X4X4X4X4X4X4X4X4X=X=X=X0.u e : 4 > : : : > 1 d d d * # o : @.}.).^.Q.W q >X;X< I #.P./.}.).I.R F l.g.l.N 2 s ,X4X=X=X=X=X=X=X=X=X4X4X4X4X4X4X4X4X=X=X=X=X",
"4X4X4X4X=X=X=X=X=X=X=X=X4X4X4X3X2X5.= : : O o   o j h.h.s.N * ; E H.}.{.`.!.W 9 0.6.+ K #.P./.}.}.).Q.) % m M C % r 9.A.4X4X4X4X4X4X4X4X=X=X=X=X=X=X=X=X4X4X4X4X",
"4X4X4X4X=X=X=X=X=X=X=X=X4X4X4X4X4X>X0.r < % d f f i.v.p.N S & :  .R.).'.}.).O.+ s / I E | P.^.}.}.{.).+.o b f % s 4.r.=X4X4X4X4X4X4X4X4X=X=X=X=X=X=X=X=X4X4X4X4X",
"4X4X4X4X=X=X=X=X=X=X=X=X4X4X4X4X4X4X,Xi % V G B i.s.g.G b b $ 6 Y.Q.Q.`.}.}.@.    6 ] { | P.^.'.{.}.{.@.o & 2 0 4.=X=X=X4X4X4X4X4X4X4X4X=X=X=X=X=X=X=X=X4X4X4X4X",
"4X4X4X4X=X=X=X=X=X=X=X=X4X4X4X4X4X4X,Xi % f b m N p.p.N G V % 6 K.Q.!.`.}.}.=.o + > ` { #.P.Q.^.'.}.}.=.o X p 6.r.=X=X=X4X4X4X4X4X4X4X4X=X=X=X=X=X=X=X=X4X4X4X4X",
"4X4X4X4X=X=X=X=X=X=X=X=X4X4X4X4X4X4X1Xw.p 1 2 b m m m m S V $ 6 H.Q.Q./.(.;.Y   - , ] { #.J.P.Q./.`.`.O.@ i 4.t.=X=X=X=X4X4X4X4X4X4X4X4X=X=X=X=X=X=X=X=X4X4X4X4X",
"4X4X4X4X=X=X=X=X=X=X=X=X4X4X4X4X4X4X4X4X4.o * b 2 b V V b V % 6 H.Q.Q.Q.H.:     : J } ] { ] F.Q.Q.Q.Q.[ @ 0.=X=X=X=X=X=X4X4X4X4X4X4X4X4X=X=X=X=X=X=X=X=X4X4X4X4X",
"4X4X4X4X=X=X=X=X=X=X=X=X4X4X4X4X4X4X4X4Xw.4.p $ $ $ % $ $ $ 6 ` L.Q.Q.Q...;   + : I K ` ] ] #.F.Y.Q.Q.W 9 0.=X=X=X=X=X=X4X4X4X4X4X4X4X4X=X=X=X=X=X=X=X=X4X4X4X4X",
"4X4X4X4X=X=X=X=X=X=X=X=X4X4X4X4X4X4X4X4Xr.0.u = + ; O ; : ; E F.R.Q.Q.Y.[ -   + : , , L ` ] { { ..K.H.R @ 4.e.|.=X=X=X=X4X4X4X4X4X4X4X4X=X=X=X=X=X=X=X=X4X4X4X4X",
"=X=X=X=X4X4X4X4X4X4X4X4X=X=X=X=X=X=XOXOX;Xp 4 > > > , L W ` G.R.Q.Q.R.R 5     + > , , , K ` ] ] I 6 5 ; @ q w.3X4X4X4X4X=X=X=X=X=X=X=X=X4X4X4X4X4X4X4X4X=X=X=X=X",
"=X=X=X=X4X4X4X4X4X4X4X4X=X=X=X=X=X=Xr.5.4.; > > , , , L ` ] F.G. .[ W u d d & + : , , , 4 L L J 3 d d d d d F r.t.;X2X4X=X=X=X=X=X=X=X=X4X4X4X4X4X4X4X4X=X=X=X=X",
"=X=X=X=X4X4X4X4X4X4X4X4X=X=X=X=X=X=Xw.q ; 4 , , , 4 , , J ] ` E ;   # S i.i.g @ 4 > , 4 , , : . g B z k.i.i.G $ . p >X3X=X=X=X=X=X=X=X=X4X4X4X4X4X4X4X4X=X=X=X=X",
"=X=X=X=X4X4X4X4X4X4X4X4X=X=X=X=X=X=Xw.q ; 4 J , , 4 4 , , U , > 1 f j p.c.n.c.z * : > : = = 3 h l B z l.c.f.m.u.l.k.7.=X=X=X=X=X=X=X=X=X4X4X4X4X4X4X4X4X=X=X=X=X",
"=X=X=X=X4X4X4X4X4X4X4X4X=X=X=X=X=X=Xw.9 ; , , , , , , , , : ; % f k a.v.C.Z.C.v.j 3 : < # # f i.B i.B s.b.b.B.Z.Z.M.c 7.9.r.=X=X=X=X=X=X4X4X4X4X4X4X4X4X=X=X=X=X",
"=X=X=X=X4X4X4X4X4X4X4X4X=X=X=X=X|.-Xw.q : 4 , , , , , , : o & b c l.j.B.Z.Z.Z.C.v.z X & V 2 n B i.B y.s.j.b.b.B.V.C.v.v 9 6.=X=X=X=X=X=X4X4X4X4X4X4X4X4X=X=X=X=X",
"=X=X=X=X4X4X4X4X4X4X4X4X=X=X=X=X-XA.w.9 ; , , , , 4 , : < % b m B s.j.B.C.B.B.B.c.l X $ % 2 S i.i.B y.p.f.h.j.j.B.B.c.k . 4.=X=X=X=X=X=X4X4X4X4X4X4X4X4X=X=X=X=X",
"=X=X=X=X4X4X4X4X4X4X4X4X=X=X=X=X=X=Xw.0 ; > > > , > > = % 3 m i.B a.j.j.b.b.j.g.i.S i q 9 2 g l N z l k z s.g.g.f.f.B Z 9 6.A.-X=X=X=X=X4X4X4X4X4X4X4X4X=X=X=X=X",
"4X4X4X4X=X=X=X=X=X=X=X=X4X4X4X4X4X4X,Xi o O + + = O O & * b m B B i.a.g.b.b.g.i.f D 0.0.-Xp % & % % & & % * d d d d & D >X2X4X4X4X4X4X4X=X=X=X=X=X=X=X=X4X4X4X4X",
"4X4X4X4X=X=X=X=X=X=X=X=X4X4X4X4X4X4X1X9.s s s s s q . % 3 & f h h h h l y.y.l n D 4.t.t.1Xe.4.4.4.5.5.5.p s s s s s s 5.4X4X4X4X4X4X4X4X=X=X=X=X=X=X=X=X4X4X4X4X",
"4X4X4X4X=X=X=X=X=X=X=X=X4X4X4X4X4X4X4X3Xt.t.t.t.t.,.. . .     . . . . . . X . 9 0.t.=X=X4X4X4X3X3X3X3X3Xt.t.t.t.t.t.=X=X4X4X4X4X4X4X4X4X=X=X=X=X=X=X=X=X4X4X4X4X",
"4X4X4X4X=X=X=X=X=X=X=X=X4X4X4X4X4X4X4X4X=X=X=X=X=Xw.4.4.=X=Xt.|.t.=X=X=X4.4.4.5.r.=X=X=X4X4X4X4X4X4X4X4X=X=XOXOX=X=X=X=X4X4X4X4X4X4X4X4X=X=X=X=X=X=X=X=X4X4X4X4X",
"4X4X4X4X=X=X=X=X=X=X=X=X4X4X4X4X4X4X4X4X=X=X=X=X=X=X=X=X4X4X4X4X4X4X4X4X=Xt.=X=X=X=X=X=X4X4X4X4X4X4X4X4X=X=XOXOX=X=X=X=X4X4X4X4X4X4X4X4X=X=X=X=X=X=X=X=X4X4X4X4X",
"4X4X4X4X=X=X=X=X=X=X=X=X4X4X4X4X4X4X4X4X=X=X=X=X=X=X=X=X4X4X4X4X4X4X4X4X=X=X=X=X=X=X=X=X4X4X4X4X4X4X4X4X=X=X=X=X=X=X=X=X4X4X4X4X4X4X4X4X=X=X=X=X=X=X=X=X4X4X4X4X",
"4X4X4X4X=X=X=X=X=X=X=X=X4X4X4X4X4X4X4X4X=X=X=X=X=X=X=X=X4X4X4X4X4X4X4X4X=X=X=X=X=X=X=X=X4X4X4X4X4X4X4X4X=X=X=X=X=X=X=X=X4X4X4X4X4X4X4X4X=X=X=X=X=X=X=X=X4X4X4X4X",
"4X4X4X4X=X=X=X=X=X=X=X=X4X4X4X4X4X4X4X4X=X=X=X=X=X=X=X=X4X4X4X4X4X4X4X4X=X=X=X=X=X=X=X=X4X4X4X4X4X4X4X4X=X=X=X=X=X=X=X=X4X4X4X4X4X4X4X4X=X=X=X=X=X=X=X=X4X4X4X4X",
"=X=X=X=X4X4X4X4X4X4X4X4X=X=X=X=X=X=X=X=X4X4X4X4X4X4X4X4X=X=X=X=X=X=X=X=X4X4X4X4X4X4X4X4X=X=X=X=X=X=X=X=X4X4X4X4X4X4X4X4X=X=X=X=X=X=X=X=X4X4X4X4X4X4X4X4X=X=X=X=X"
};
