/* XPM */
static char *a92fd52786034ca491e5ef09669039d9tSUEfc9tnaSiyjBm[] = {
/* columns rows colors chars-per-pixel */
"60 60 166 2 ",
"   c black",
".  c #06080A",
"X  c #0B0E0F",
"o  c #0B0E1B",
"O  c #13171F",
"+  c #171C25",
"@  c #191E27",
"#  c #191F28",
"$  c #36012E",
"%  c #2C0F3F",
"&  c #340632",
"*  c #310D3B",
"=  c #32103E",
"-  c #1C232B",
";  c #20272E",
":  c #21292D",
">  c #252D33",
",  c #273036",
"<  c #283136",
"1  c #283238",
"2  c #271546",
"3  c #2C1444",
"4  c #2D1847",
"5  c #291A4A",
"6  c #3C1B45",
"7  c #321F4C",
"8  c #1D2457",
"9  c #1E2659",
"0  c #1F285B",
"q  c #33224E",
"w  c #242354",
"e  c #252E55",
"r  c #212759",
"t  c #222B5C",
"y  c #282959",
"u  c #352652",
"i  c #382550",
"p  c #322956",
"a  c #3A2C56",
"s  c #392E59",
"d  c #3D345D",
"f  c #262F60",
"g  c #273061",
"h  c #2A3463",
"j  c #2E3966",
"k  c #2F3B68",
"l  c #333A66",
"z  c #3D3A62",
"x  c #313D69",
"c  c #42234B",
"v  c #402750",
"b  c #412951",
"n  c #433057",
"m  c #3A485D",
"M  c #35426D",
"N  c #38456F",
"B  c #394670",
"V  c #3D4B73",
"C  c #45556F",
"Z  c #404F76",
"A  c #435374",
"S  c #4E5476",
"D  c #475871",
"F  c #4B5D76",
"G  c #44547A",
"H  c #4D577A",
"J  c #47587C",
"K  c #4A5B7E",
"L  c #505476",
"P  c #535C7D",
"I  c #4E6078",
"U  c #52647C",
"Y  c #55697F",
"T  c #63617F",
"R  c #4C5E81",
"E  c #4E6183",
"W  c #526586",
"Q  c #586584",
"!  c #546887",
"~  c #596D83",
"^  c #53668B",
"/  c #566A89",
"(  c #596D8C",
")  c #5D7385",
"_  c #5C718E",
"`  c #5A6F91",
"'  c #5D7391",
"]  c #6C6E8A",
"[  c #62798D",
"{  c #607794",
"}  c #637A95",
"|  c #657D9A",
" . c #6A8295",
".. c #6A839D",
"X. c #6F899B",
"o. c #738D9E",
"O. c #6C85A1",
"+. c #6F88A2",
"@. c #7287A1",
"#. c #718BA5",
"$. c #748FA8",
"%. c #7691A2",
"&. c #7691AA",
"*. c #7995AD",
"=. c #7C98AF",
"-. c #7B97B0",
";. c #7D9AB1",
":. c #7F9CB3",
">. c #7E9CB2",
",. c #7D99B4",
"<. c #7F9DB5",
"1. c #7D9AB2",
"2. c #809DB4",
"3. c #819FB5",
"4. c #829FB5",
"5. c #809EB4",
"6. c #809EB8",
"7. c #82A1B6",
"8. c #84A2B7",
"9. c #83A1B6",
"0. c #84A3B9",
"q. c #85A4B9",
"w. c #86A5BA",
"e. c #87A5BB",
"r. c #87A6BB",
"t. c #86A5BA",
"y. c #88A7BB",
"u. c #88A7BC",
"i. c #88A7BD",
"p. c #88A7BC",
"a. c #88A8BC",
"s. c #89A8BD",
"d. c #89A9BD",
"f. c #8AA9BE",
"g. c #8AAABE",
"h. c #8BABBF",
"j. c #8BAABF",
"k. c #8BACBF",
"l. c #8BAABF",
"z. c #8BABC0",
"x. c #8BACC0",
"c. c #8CACC0",
"v. c #8CADC0",
"b. c #8DADC1",
"n. c #8CADC1",
"m. c #8DAEC1",
"M. c #8CACC2",
"N. c #8DAEC3",
"B. c #8EAEC2",
"V. c #8EAFC2",
"C. c #8FAFC3",
"Z. c #8EAFC4",
"A. c #8DADC1",
"S. c #8FB0C3",
"D. c #8FB1C5",
"F. c #8FB0C3",
"G. c #91B2C5",
"H. c #90B1C6",
"J. c #91B2C7",
"K. c #91B2C6",
"L. c #91B2C6",
"P. c #92B3C8",
"I. c #93B5C9",
"U. c #95B7CD",
"Y. c #93B4C9",
"T. c #95B8CB",
/* pixels */
"                                                                                                                        ",
"  . O - > < , , , , , , , < > - + + + + - > < , , , , , , , , > - - > < , < > - + + + + - > < , , , , , , , , , 1 : X   ",
"  O m ~ X.o.o.o.o.o.o.o.o.o. .U C D D D ~ o.o.o.o.o.o.o.o.o.o.} I Y X.o.o.o.o.~ D D D C U  .o.o.o.o.o.o.o.o.o.o.%.) :   ",
"  - ~ ,.M.H.H.H.H.H.H.H.H.H.u.$.O.+.O.+.-.M.P.H.H.H.H.H.H.H.P.r.$.&.M.H.H.H.M.-.+.O.+.O.$.u.H.H.H.H.H.H.H.H.H.H.U.%.1   ",
"  > X.M.h.M.x.x.x.x.x.x.x.M.h.r.r.r.r.r.u.h.h.h.h.z.x.x.x.h.h.h.r.r.h.M.x.M.h.u.r.r.r.r.r.h.M.x.x.x.x.x.x.x.x.M.H.o.,   ",
"  < %.I.M.M.M.M.h.h.h.h.h.h.k.M.M.M.M.M.M.M.:.&.2.h.M.h.M.r.*.*.h.M.M.M.h.h.h.M.M.M.M.M.M.k.h.h.h.h.h.h.h.h.h.M.H.o.<   ",
"  > o.M.h.h.h.h.h.h.h.h.h.h.h.h.h.h.h.h.x.r.#.} &.h.M.h.M.2.| ..7.M.h.h.h.h.h.h.h.h.h.h.h.h.h.h.h.h.h.h.h.h.h.h.Z.o.>   ",
"  ; ) $.+.+.#.;.h.M.M.M.M.M.M.M.M.M.M.M.2.$.+.#.:.h.M.h.M.0.$.&.r.7.$.=.h.M.M.M.h.*.&.0.M.M.M.M.M.M.M.M.M.h.M.u.;.) -   ",
"  @ D ' _ _ ' $.h.h.r.r.r.r.r.r.r.r.h.r.#.( +.r.M.h.h.h.h.h.h.h.h.*.' ..8.h.r.h.2.| { *.u.u.r.r.r.r.r.r.h.h.M.r.#.F @   ",
"  + C { +.$.$.2.u.*.+...+.+.+...........W V { h.H.M.M.M.M.M.M.M.M.&.( _ ......+..._ ( } ..........+...+.*.h.M.h.<.) ;   ",
"  @ F #.r.M.h.M.r.+./ ! ! ! ( _ ' ' ' ' G x / 2.y.0.0.0.0.r.h.h.r.&.{ _ ' ' ' ( ! ! ! _ ' ' ' ' _ ( ( ' $.h.M.h.D.o.,   ",
"  > [ 0.h.M.M.M.h...! W W W ' #.*.*.*.*.{ K ! | ..........$.r.r.#.+.&.*.&.*.$.| ! W ( +.&.&.&.&...( } &.7.h.M.M.I.%.<   ",
"  , o.H.x.h.h.u.2.+.' ' ' / { *.0.7.0.7.+.W W ! ! ! ! ! ! ' $.+.! } 0.M.M.M.r.| W ! | :.M.M.M.M.&.' ..u.M.k.M.h.z. .>   ",
"  , o.H.M.M.h.*...$.=.;.&.{ ( } | | ..| E N A ! ! ! ! ! ! W G B x W 7.H.M.H.r./ B ' :.h.M.M.M.M.*.' ..h.F.M.M.h.&.U -   ",
"  , o.H.x.M.h...W +.M.H.8.| ! ! ! ! ! ! V g B ! ( ! ! ! ( K h 8 9 G $.7.:.7.*.G k | F.F.M.M.h.2.+._ | ;.2.:.2.*.| C +   ",
"  , o.H.x.M.r.( B { M.H.8.| ! ! ! ! ! ! V g B ! ( ! ! ! ( K h 8 9 N ( | } } ' B j | M.F.M.M.2..._ ! ( { } { } { ' D +   ",
"  , o.H.M.M.r.^ h W *.:.&.{ ! ! ! ! ( ! V h B ! ( ! ! ! ! E B x x V W ! ! ! W V B / #.*.;.;.&...} | ' ! _ } } | ..Y -   ",
"  , o.H.x.M.r.^ h A ' { ' ( ! ! ! ! ( ! V h B ! ( ! ! ! ! ! W E R W ! ! ! ! ! W R V B ^ ' ' ..;.0.2.+._ ..2.7.7.u. .>   ",
"  : [ 7.h.F.z.+.E E ! ! ! / W K G G G A x t k G E ! ! ! ! ( ( ( ( ! ! ! ! ! / _ W x g G ! ! | r.I.F.&.' +.h.M.M.P.o.<   ",
"  # F #.r.M.h.0.-.| ! ! ! ! R x g h h h t t t h G ! ! ! ! ! ! ! ! ! ! ! ! ! ! / E x h G ! ! | 7.M.h.$._ +.h.M.M.H.o.,   ",
"  - ~ -.u.*.} ' ' R V V V Z N g f x N M N N N N B G E ( ( W G G ! ( ( ( ! R A V B h t M V V K ( ' ' / ( #.h.M.x.H.o.,   ",
"  > o.H.h.} x h h h h h h g t t x K ! W W W ! E N h G ! ( K x x R ! ! ! W V h t g t t g g f h h h j V ! #.r.M.z.H.o.,   ",
"  < %.T.h.` t t M B B B M f 9 r x W _ ( ( ( _ ! N t x A W R h g N V V V B j t j B V V V M t t M G W ! ! } #.2.h.P.o.<   ",
"  > o.H.h.{ x V ! ! ! ! R x t r x K ! W W W ! E M t r h G K j t t t t t t r t V W ! ! ! K h j K ..2.$.( ! ' &.h.Z.o.>   ",
"  - ~ -.r.*.} ..$.| ( ( ! K B h h M N M M M B N h t 9 t x x g r r r r r r 9 g G ( _ ( _ R j j E +.h.*._ } $.7.r.-.~ -   ",
"  # F #.r.M.h.M.r...W E W W G h r t t h h h t t t t t h h g t t t t t t t r y N P W W W G h j E ..:.#._ +.h.M.r.#.F #   ",
"  : [ 7.h.M.M.H.u.` M x x M x t 9 r h V G A x t 9 f B G G V h r t t t t r 5 = 6 b z M M j t k E { | { ( #.h.M.h.7.[ :   ",
"  , o.H.x.h.h.h.;.E h h h h h h g t M W ( ! A h t g V E W G h r t t t t r 5 & $ & 5 t g h h M J W ! ! ( #.h.M.x.H.o.,   ",
"  < %.H.M.M.h.*.} W G G G G G K B g x W ( ! W G x t h x x j t t t t t t r w 5 & $ 2 f B J K V x B E W ! #.h.M.M.H.%.<   ",
"  >  .u.h.M.h.&.} } } _ ! ! ( ( K M B W / ! ( W B t r r r r t t t t t g h k h i 6 p M R ( ( K x V ' } } &.h.M.h.u. .>   ",
"  - U $.r.M.h.0.2.2.;.| ! ! ! ! W R E ! ! ! ( W B t r r r t t t t r t x J R K H S H R W ! ! W R ' *.2.2.r.h.M.r.$.U -   ",
"  + C ..r.M.h.M.M.F.r...( ! ! ! / ( ( ! ! ! ( W B t r t t t t t t r t B ! ( ( / ( / / ! ! ! ! ! ..r.M.M.k.h.k.r.&.U -   ",
"  + D +.r.M.h.h.k.M.r...! ! ! ! ! ! ! ! ! ! ( W N t r t t t t t t r t B W ( ! ! ! ! ! ! ! ! ! ! ..r.M.h.h.h.h.h.h. .>   ",
"  + D +.r.M.h.M.h.7.$.! A A G G G G G G G G G Z j r r t t r 5 5 r 0 r j A E ! / ! ! ! ! ! ! ! ! ..0.M.h.h.h.h.M.H.o.<   ",
"  + D +.0.M.h.k.r.$.! B h h h h h h h h h h h h t t t t t w * * w t t t h V ^ ( ! ! ! ! ! ! ! ! ..0.M.h.h.h.h.x.H.o.,   ",
"  + D } #.:.h.2.$.} W Z M M M N k t g M N M M M N M h t t w 4 7 l B N N N B Z R ! ( ( ( ( ( ( ( ..r.M.h.h.h.h.x.H.o.,   ",
"  @ D ' ' $.r.&.' ( ! ^ W W W W G h x R ! W W W ! R x r r r r l K ! W W W B h A ! ! ! ! ! ! ! ! | 7.M.h.h.h.h.x.H.o.,   ",
"  ; ) $.#.=.u.:.+.' ! ! ( ( ( ( J h M W _ ( ( _ ' ! d 3 3 5 w x E ( ( ( ! K V K W G V B B B B B R ..;.h.M.h.h.x.H.o.,   ",
"  > o.M.h.h.h.M.r.+.( ! ! ! ! ! G h x R ! W W W ! K v & $ * w x E ( ! ! ! ! ! ! W M t t h h g h N W #.r.M.h.h.x.H.o.,   ",
"  < %.I.M.M.h.M.h.2.#.{ ! ! ! ! G h f M B N z n z M p 4 4 5 w x E ( ( ! ! ! / ( W x t M V V V V G W +.r.M.h.h.x.H.o.,   ",
"  > X.M.h.h.h.h.h.M.0...! ! ! ! K x g h g t 3 & 4 t t r r r r k K W W W ! ! ! ( W M h G ! ! ! ! ! ! +.r.M.h.h.x.H.o.,   ",
"  - ~ *.r.M.h.h.k.M.r.../ ! ( ( W G G A M t % $ 3 r t t t t t g x M M G ! ( ( ( W x h G ( ( / / ! ! +.r.M.h.h.x.H.o.,   ",
"  + D O.r.M.h.h.h.M.0.} R R R R W ! ( ! A t 4 * 5 r t t t t t t r r t M K E R E K x h G ! ! ! ! ! ! +.r.M.h.h.x.H.o.,   ",
"  + C ..0.M.h.h.h.M.2.W j j k x V W _ ( A t w w w t t t t t t r r 9 r f j x x x j t h G ! ! ! ! ! ( +.r.M.h.h.M.H.o.<   ",
"  - U $.r.M.h.h.h.M.2.E h h h t h G R K B t w w w r t t t t r t h j j j h h h j h t h J ( ( ! ! ! ! +.u.M.h.k.h.u. .>   ",
"  >  .u.h.k.h.h.h.M.7.{ K K Z h t h j h g r 4 * 5 r t r t r r h G R K K K K K K G j h J ( / ! ! ! ! +.u.M.h.M.r.$.U -   ",
"  < o.H.M.h.h.h.h.M.r...( ( R j t h x x x x a c s x x j t t h V W ( ( ( ( ( ( ( W M h B R ! ( ( ! ! | *.0.h.M.r.&.U -   ",
"  , o.H.x.h.h.h.h.M.r...! ! K h h G E R R R K P K R E G j h G W ! ! ! ! ! ! ! ( W M t t M R ( ( ! ! ( { &.h.M.h.h. .>   ",
"  , o.H.M.h.h.M.h.7.$.} ! / E V V W ( ( ( ( / ( / ( ( E x j K ( ! ! ! ! ! ! ! ( W M r 9 g B G G K ! ' | *.h.M.M.H.o.<   ",
"  , o.D.h.h.h.M.r.#._ ! ! ! ! W W ! ! ! ! ! ! ! ! ! ( R x h K ( ! ! ! ! ! ! ! ( W M t r t g h h N W ..2.h.h.h.x.H.o.,   ",
"  ; ) <.h.M.h.2.$.} ! ! W G G W ( ( ! ! ! ! ! ! ! ! ( R x j K ( ! ! ! ! ! ! ! ( W G N N N N M M Z W +.h.M.h.h.M.H.o.<   ",
"  @ F #.r.M.h.$.' ! ! ! R x j K ! ! ! ! ! ! ! ! ! ! ( R l h K ( ! ! ! ! ! ! ! ! ! ! W W W W W W W ! +.r.M.h.h.h.Z.o.>   ",
"  - ) ;.u.M.h.:.+.E B N M t t x N N G W ! ! ! ! ! ! ! H u q S / ! ! ! ! ! ! ! ! ! ! ! ! ! ! ! ! ! ! ..r.M.h.M.h.<.) -   ",
"  > o.Z.h.h.h.M.7.^ j h h g g h h h V ! _ _ _ _ ( ( ' P c c L ( ( ( ( ( _ _ _ _ ( ( ( ( ( ( ( ( ( _ +.r.M.h.h.7.+.D @   ",
"  < o.H.M.h.h.M.h.#.' ' ( G G / ' ' | $.&.*.&.&.$.$.&.@.] T Q ' #.&.&.$.$.$.&.&.&.&.$.$.$.$.$.$.$.&.;.h.M.h.*...' C +   ",
"  , o.H.M.x.x.x.h.h.h.r.;.| | :.z.h.h.h.r.2.0.h.h.h.h.h.h.:.| | ;.u.h.h.h.c.h.u.r.h.k.h.h.h.h.h.h.h.h.z.M.u.#.' ' F -   ",
"  1 %.U.H.H.H.H.H.I.Z.-.#.*.7.Z.I.I.Y.H.#.^ O.Z.I.H.H.P.I.Z.7.&.#.*.M.I.H.I.Z.-.$.7.H.P.H.H.H.H.H.H.H.H.H.Z.0.;.6.} >   ",
"  : ) %.o.o.o.o.o.o.X.Y I } o.o.o.o.%.o.F e D X.%.o.o.o.o.o.o.} I Y X.o.o.o.o.~ F [ o.o.o.o.o.o.o.o.o.o.o.o.o.o.%.) :   ",
"  X : 1 , , , , , < > - - > < < , , < , # o + > < , , , , < < > - - > < , < > - # : , , , , , , , , , , , , < < 1 : X   ",
"                                                                                                                        "
};
