/* XPM */
static char *result[] = {
/* columns rows colors chars-per-pixel */
"60 60 16 1 ",
"  c black",
". c #573E23",
"X c #26244B",
"o c #4E326B",
"O c #7A6246",
"+ c #B97E32",
"@ c #FFE33D",
"# c #FFE652",
"$ c #434085",
"% c #8C4696",
"& c #B37DC9",
"* c #B59F89",
"= c #FFF7BA",
"- c #E89AD6",
"; c white",
": c None",
/* pixels */
"::::::::::::::::::::::::::::::::::::::::::::::::::::::::::::",
"::::::::::::::::::::::::::::::::::::::::::::::::::::::::::::",
"::::::::::::::::::::::::::::::::::::::::::::::::::::::::::::",
":::::::::::::::::..::::::::..:::::::::::::::::::::::::::::::",
"::::::::::::::::.#.::::::.+#.:::::::::::::::::::::::::::::::",
"::::::::::::::::.#.:::::.##+::::::::::::::::::::::::::::::::",
"::::::::::::::::+#.::::.###.::::::::::::::::::::::::::::::::",
":::::::::::::::.##.:::.###+:::::::::::::::::::::::::::::::::",
":::::::::::::::.;;.::.;;;#.:::::::::::::::::::::::::::::::::",
":::::::::::::::.;;.::+;;;+::::::::::::::::::::::::::::::::::",
":::::::::::::::.;;.:.;;;;.::::::::::::::::::::::::::::::::::",
":::::::::::::::.;#.:.;;;.oooX:::::::::::::::::::::::::::::::",
":::::::::::::::.#+oo+#;.----$XX:::::::...:::::::::::::::::::",
":::::::::::::::.#.-.##+%%-&&$$$X:::::: ##+.:::::::::::::::::",
":::::::::::::::.#.%.##.-&%&&&$$$o::::::.###+::::::::::::::::",
"::::::::::::::o+#+-.#+-&&o&&&$$&&o::::: #### :::::::::::::::",
"::::::::::::::%&+--+#+-o  &%%&&&&o:::::.### ::::::::::::::::",
":::::::::::::o&&%&&&+& +  &=*o&&$$X:::.;;#.:::::::::::::::::",
":::::::::::::o&%%&&&&  + *==* &&$$X::.;;;+ :::::::::::::::::",
":::::::::::::o%&&%&&o+ @o==** &$$$$$.;;;;;.:::::::::::::::::",
":::::::::::::o&&&&%& @@ ==O*.%&$$$$X:  .;;#.::::::::::::::::",
"::::::::::::: %&&%%%   ==O** %&&$$$X:::: ###.:::::::::::::::",
"::::::::::::: =%%======*O**.*o&&&&&o:::::.##.:::::::::::::::",
"::::::::::::: O===O   OO** **o&&&&&o::::: ##$X::::::::::::::",
"::::::::::::: +  .++ **== ***o&&&&&o::::: $$$X::::::::::::::",
"::::::::::::: @ : @.===O ****o&&$$$ ::::: $$%%o:::::::::::::",
"::::::::::::: @ : @    *****=%&$$$$ :::::X%%%%o:::::::::::::",
":::::::::::::: :::  *******==%&$$$X:::::X$%%%% :::::::::::::",
"::::::::::::::::::: ******==%&&&$$ ::::o%$$$%% :::::::::::::",
":::::::::::::::::::.*****===%&&&&& oXXX%%%$$$% :::::::::::::",
":::::::::::::::::: *****=**%&&$$&oo%$$$$%%%$$X :::::::::::::",
"::::::::::::::::: *****O*==%&$$$$%%%%$$$%%%XX ::::::::::::::",
":::::::::::::::: OO**OO===%&&$$$%%%%%%$$$XX* :::::::::::::::",
"::::::::::::::: ***OO====%&&&&$&$$$$$XXXX** ::::::::::::::::",
"::::::::::::::.***======%&$$&& $$$$XX****O :::::::::::::::::",
":::::::::::::.=========%&$$$$ &$$$&&&oXX :::::::::::::::::::",
":::::::::::::O=========%&$$$ &&&&&&&&&$$XX::::::::::::::::::",
"::::::::::::.=*=====**%&&&$ Oo%&&&&&&$$$$$Xo::::::::::::::::",
"::::::::::::O==*==**==%&&& *O**oo%&&&$$$&&&&o:::::::::::::::",
":::::::::::.====**====%&$$   ***O=o%&&&&&&&&&o::::::::::::::",
":::::::::::O=========%&$$ ::: O*O===o&&$$$&&&& :::::::::::::",
"::::::::::.==========%&$$ :::::  *=O=o$$%$$$&&o:::::::::::::",
"::::::::::.*=========%&&$ :::::::  *=o$$%$$$$&% ::::::::::::",
"::::::::::.*=======*%&&&& ::::::::: *o&&-%$$$$%o::::::::::::",
":::::::::: =*====**=%&&$ ::::::::::: o&---&$$$%% :::::::::::",
":::::::::: ==*==*===%&$$$  ::::::::: $$%--&&$$$% :::::::::::",
":::::::::: ===**====%&$$$$&         $$%%%%&&&$$% :::::::::::",
":::::::::: =========o&&$$&&&$$$&&$$$&-%%%$$&%%%% :::::::::::",
":::::::::::.========o&&&&&&$$$%--%%%----%$$%%%%% :::::::::::",
"::::::::::: =======*=o&&&&$$%%---%%%--&&&$$$%%%o :::::::::::",
"::::::::::: O=====*==o&&&&$$$$&&&$$$&&&&%$$$%%o ::::::::::::",
":::::::::::: OO==*===*o&&&&$$&&&&&$&&&%%%%$%%o* ::::::::::::",
"::::::::::::: *OO===**Oo%%%&&&&&&&&%%%%%%%%%o* :::::::::::::",
":::::::::::::: ******O**oo%%%%%%%%%%%%%%%ooo* ::::::::::::::",
"::::::::::::::: *****O****oo%%%%%%%%%%ooo*** :::::::::::::::",
":::::::::::::::: **OO****O**oooooooooo**O*. ::::::::::::::::",
"::::::::::::::::: .******O****O****O****. ::::::::::::::::::",
":::::::::::::::::::  .**O****O****O**.  ::::::::::::::::::::",
"::::::::::::::::::::::               :::::::::::::::::::::::",
"::::::::::::::::::::::::::::::::::::::::::::::::::::::::::::"
};
