/* XPM */
static char *result[] = {
/* columns rows colors chars-per-pixel */
"60 60 15 1 ",
"  c black",
". c #573E23",
"X c #26244B",
"o c #4E326B",
"O c #7A6246",
"+ c #B97E32",
"@ c #FFE33D",
"# c #434085",
"$ c #8C4696",
"% c #B37DC9",
"& c #B59F89",
"* c #FFF7BA",
"= c #E89AD6",
"- c white",
"; c None",
/* pixels */
";;;;;;;;;;;;;;;;;;;;;;;;;;;;;;;;;;;;;;;;;;;;;;;;;;;;;;;;;;;;",
";;;;;;;;;;;;;;;;;;;;;;;;;;;;;;;;;;;;;;;;;;;;;;;;;;;;;;;;;;;;",
";;;;;;;;;;;;;;;;;;;;;;;;;;;;;;;;;;;;;;;;;;;;;;;;;;;;;;;;;;;;",
";;;;;;;;;;;;;;;;;;;;;;;;;;;;;;;;;;;;;;;;;;;;;;;;;;;;;;;;;;;;",
";;;;;;;;;;;;;;;;;;;;;;;;;;;;;;;;;;;;;;;;;;;;;;;;;;;;;;;;;;;;",
";;;;;;;;;;;;;;;;;;;;;;;;;;;;;;;;;;;;;;;;;;;;;;;;;;;;;;;;;;;;",
";;;;;;;;;;;;;;;;;;;;;;;;;;;;;;;;;;;;;;;;;;;;;;;;;;;;;;;;;;;;",
";;;;;;;;;;;;;;;;;;;;;;;;;;;;;;;;;;;;;;;;;;;;;;;;;;;;;;;;;;;;",
";;;;;;;;;;;;;;;;;;;;;;;;;;;;;;;;;;;;;;;;;;;;;;;;;;;;;;;;;;;;",
";;;;;;;;..;;;;;;;;..;;;;;;;;;;;;;;;;;;;;;;;;;;;;;;;;;;;;;;;;",
";;;;;;;.@.;;;;;;.+@.;;;;;;;;;;;;;;;;;;;;;;;;;;;;;;;;;;;;;;;;",
";;;;;;;.@.;;;;;.@@+;;;;;;;;;;;;;;;;;;;...;;;;;;;;;;;;;;;;;;;",
";;;;;;;+@.;;;;.@@@.;;;;;;;;;;;;;;;;;;; @@+.;;;;;;;;;;;;;;;;;",
";;;;;;.-@.;;;.--@+;;;;;;;;;;;;;;;;;;;;; @@@+.;;;;;;;;;;;;;;;",
";;;;;;.--.;;.---@.;;;;;;;;;;;;;;;;;;;;;; @@@ ;;;;;;;;;;;;;;;",
";;;;;;.--.;;+---+;;;;;;;;;;;;;;;;;;;;;;;.-- ;;;;;;;;;;;;;;;;",
";;;;;;.@-.;.@---.;;;;;;;;;;;;;;;;;;;;;;.--- ;;;;;;;;;;;;;;;;",
";;;;;;.@-.;.@--.oooXXXX;;;;;;;;;;;;;;;.---+.;;;;;;;;;;;;;;;;",
";;;;;;.@+oo+@@.====####Xo;;;;;;;;;;;;.------+..;;;;;;;;;;;;;",
";;;;;;.@.=.@@+$$=%%####%%X;;;;;;;;;;;    .-@@@@.;;;;;;;;;;;;",
";;;;;;.@.$.@@.=%$%%%###%%#X;;;;;;;;;;;;;;; .@@##X;;;;;;;;;;;",
";;;;;o+@+=.@+=%%o%%%##%%###X;;;;;;;;;;;;;;; @@###X;;;;;;;;;;",
";;;;;$%+==+@+=o  %$$%%%#####X;;;;;;;;;;;;;;;X##$$$o;;;;;;;;;",
";;;;o%%$%%%+% +  %*&o$%######X;;;;;;;;;;;;;; #$$$$o;;;;;;;;;",
";;;;o%$$%%%%  + &**& o$%###%%o;;;;;;;;;;;;;;;X$$$$$o;;;;;;;;",
";;;;o$%%$%%o+ @o**&& &o%%%%%##X;;;;;;;;;;;;;; ###$$ ;;;;;;;;",
";;;;o%%%%$% @@ **O&.&&&$%%%###X;;;;;;;;;;;;;;X####$ ;;;;;;;;",
";;;; $%%$$$   **OO& &&&o%%%### ;;;;;;;;;;;;;o$$$##X ;;;;;;;;",
";;;; *$$******O  && &&&o%%%%## ;;;;;;;;;;;XX#$$$#X& ;;;;;;;;",
";;;; O***O    XX &.&&&&o%%%%%% ;;;;;;;;ooo$###$$X&O;;;;;;;;;",
";;;; +  .++ XXXX & &&&&$%%%### ;;;;;;oo$$$$$###X&& ;;;;;;;;;",
";;;; @ ; @ XXXXX & &&&$%%%#### ;;; oo$$$$$$$$#X&& ;;;;;;;;;;",
";;;; @ ; @ XX## &.&&&&o%%%###X;;; o%%%%#####XX&& ;;;;;;;;;;;",
";;;;; ;;;  ####X& &&&&$%%%%## ;; &o%%%####XX&&O ;;;;;;;;;;;;",
";;;;;;;;; X###X* &&&&$%%%%%%% ;; &o%%%###%%%oX ;;;;;;;;;;;;;",
";;;;;;;;; *XXX* &&&&&o%%%###X;;; O&o%%%%%%%%%##XX;;;;;;;;;;;",
";;;;;;;;;; *** &&&&&&o%%#### ;;; &&Oo$%%%%%%#####Xo;;;;;;;;;",
";;;;;;;;;;;   &&&&&&O$%%#### ;;;; &O&&oo$%%%###%%%%o;;;;;;;;",
";;;;;;;;;;;;; &&&&OO*$%%%### ;;;;;  &&&O*o$%%%%%%%%%o;;;;;;;",
";;;;;;;;;;;;; O&&O&**$%%%%%% ;;;;;;; O&O***o%%###%%%% ;;;;;;",
";;;;;;;;;;;;; &OO&***$%%%## ;;;;;;;;;;  &*O*o##$###%%o;;;;;;",
";;;;;;;;;;;;; &&&&***$%%### ;;;;;;;;;;;;  &*o##$####%$ ;;;;;",
";;;;;;;;;;;;; *&&*****$%###X;;;;;;;;;;;;;; &o%%=$####$o;;;;;",
";;;;;;;;;;;;; ********$%%###X;;;;;;;;;;;;;; o%===%###$$ ;;;;",
";;;;;;;;;;;;; &*******&$%%%%#XX;;;;;;;;;;;; ##$==%%###$ ;;;;",
";;;;;;;;;;;;;;.&****&&*$%%%####X           ##$$$$%%%##$ ;;;;",
";;;;;;;;;;;;;; *&**&****o%%####%%%###%%%###%=$$$##%$$$$ ;;;;",
";;;;;;;;;;;;;; **&&*****o%%%##%%%###$===$$$====$##$$$$$ ;;;;",
";;;;;;;;;;;;;;;.********&o%%%%%%##$$====$$$==%%%###$$$o ;;;;",
";;;;;;;;;;;;;;; *******&*o%%%%%%####%%%%###%%%%$###$$o ;;;;;",
";;;;;;;;;;;;;;;; *****&**&o%%%%%%##%%%%%%#%%%$$$$#$$o& ;;;;;",
";;;;;;;;;;;;;;;;; &**&**&&Oo$$$%%%%%%%%%%%$$$$$$$$$o& ;;;;;;",
";;;;;;;;;;;;;;;;;; OO**&&&O&ooo$$$$$$$$$$$$$$$$$ooo& ;;;;;;;",
";;;;;;;;;;;;;;;;;;; **&&&&O&&&&ooo$$$$$$$$$$$ooo&&& ;;;;;;;;",
";;;;;;;;;;;;;;;;;;;; &&&&O&&&&&O&&ooooooooooo&&O&. ;;;;;;;;;",
";;;;;;;;;;;;;;;;;;;;; .OO&&&&&&O&&&&O&&&&&O&&&&. ;;;;;;;;;;;",
";;;;;;;;;;;;;;;;;;;;;;;  .&&&&O&&&&O&&&&&O&&.  ;;;;;;;;;;;;;",
";;;;;;;;;;;;;;;;;;;;;;;;;;                  ;;;;;;;;;;;;;;;;",
";;;;;;;;;;;;;;;;;;;;;;;;;;;;;;;;;;;;;;;;;;;;;;;;;;;;;;;;;;;;",
";;;;;;;;;;;;;;;;;;;;;;;;;;;;;;;;;;;;;;;;;;;;;;;;;;;;;;;;;;;;"
};
