/* XPM */
static char *result[] = {
/* columns rows colors chars-per-pixel */
"60 60 16 1 ",
"  c black",
". c #573E23",
"X c #26244B",
"o c #4E326B",
"O c #7A6246",
"+ c #B97E32",
"@ c #FFE33D",
"# c #FFE652",
"$ c #434085",
"% c #8C4696",
"& c #B37DC9",
"* c #B59F89",
"= c #FFF7BA",
"- c #E89AD6",
"; c white",
": c None",
/* pixels */
"::::::::::::::::::::::::::::::::::::::::::::::::::::::::::::",
"::::::::::::::::::::::::::::::::::::::::::::::::::::::::::::",
"::::::::::::::::::::::::::::::::::::::::::::::::::::::::::::",
"::::::::::::::::::::::::::::::::::::::::::::::::::::::::::::",
"::::::::::::::::::::::::::::::::::::::::::::::::::::::::::::",
"::::::::::::::::::::::::::::::::::::::::::::::::::::::::::::",
"::::::::::::::::::::::::::::::::::::::::::::::::::::::::::::",
"::::::::::::::::::::::::::::::::::::::::::::::::::::::::::::",
"::::::::::::::::::::::::::::::::::::::::::::::::::::::::::::",
"::::::::::::::::::::::::::::::::::::::::::::::::::::::::::::",
":::::..::::::::..::::::::::::::::::::::::...::::::::::::::::",
"::::.;.::::::.+;.:::::::::::::::::::::::: ;;+.::::::::::::::",
"::::.;.:::::.;;+:::::::::::::::::::::::::: ;;;+.::::::::::::",
"::::+;.::::.;;;.::::::::::::::::::::::::::: ;## ::::::::::::",
":::.#;.:::.#;;+::::::::::::::::::::::::::::.## :::::::::::::",
":::.##.::.###;.:::::::::::::::::::::::::::.### :::::::::::::",
":::.##.::+###+:::::::::::::::::::::::::::.###+.:::::::::::::",
":::.;#.:.;###.::::::::::::::::::::::::::.######+..::::::::::",
":::.;#.:.;##.oooXXXX::::::::::::::::::::    .#;;;;.:::::::::",
":::.;+oo+;;.----$$$$Xo::::::::::::::::::::::: .;;$$X::::::::",
":::.;.-.;;+%%-&&$$$$&&X::::::::::::::::::::::: ;;$$$X:::::::",
":::.;.%.;;.-&%&&&$$$&&$X:::::::::::::::::::::::X$$%%%o::::::",
"::o+;+-.;+-&&o&&&$$&&$$$X:::::::::::::::::::::: $%%%%o::::::",
"::%&+--+;+-o  &%%&&&$$$$$X::::::::::::::::::::::X%%%%%o:::::",
":o&&%&&&+& ;  &=*o&&$$$$$$X::::::::::::::::::::: $$$%% :::::",
":o&%%&&&& #; *==* o&&$$$&&o:::::::::::::::::::::X$$$$% :::::",
":o%&&%&&o;#;o==** %o&&&&&$$X:::::::::::::::::::o%%%$$X :::::",
":o&&&&%& ;; ==O*.***o&&&$$$X:::::::::::::::::XX$%%%$X* :::::",
": %&&%%%   ==OO* ****%&&$$$X::::::::::::::ooo%$$$%%X*O::::::",
": =%%======O  ** ****o&&&$$$X:::::::::::oo%%%%%$$$X** ::::::",
": O===O    XX ** *****%&&&&&X:::::::: oo%%%%%%%%$X** :::::::",
": +  .++ XXXX *.******o&&&$$X::::::: o&&&&$$$$$XX** ::::::::",
": @ : @ XXXXX * ******%&&$$$X:::::: *o&&&$$$$XX**O :::::::::",
": @ : @ XXXXX * *******%&$$$X:::::: *o&&&$$$&&&oX ::::::::::",
":: ::: XXXXXX * *******o&&&&X:::::: O*o&&&&&&&&&$$XX::::::::",
":::::: XXX$$ *.********o&&&$$X::::: **Oo%&&&&&&$$$$$Xo::::::",
":::::: X$$$$X* .******O%&&$$$ :::::: *O**oo%&&&$$$&&&&o:::::",
":::::: X$$$X= : *****O=%&&$$$ :::::::  ***O=o%&&&&&&&&&o::::",
":::::: =XXX= :: OO**O*==%&&$&X::::::::: O*O===o&&$$$&&&& :::",
"::::::: === ::::.*OO*===%&&&&$ ::::::::::  *=O=o$$%$$$&&o:::",
"::::::::   ::::: ****====%&&$$ ::::::::::::  *=o$$%$$$$&% ::",
":::::::::::::::: =**=====%&&$$X:::::::::::::: *o&&-%$$$$%o::",
":::::::::::::::: =========%&&$$X:::::::::::::: o&---&$$$%% :",
":::::::::::::::: *=======*%&&&&$XX:::::::::::: $$%--&&$$$% :",
":::::::::::::::::.*====**==%&&$$$$X           $$%%%%&&&$$% :",
"::::::::::::::::: =*==*====o&&$$$$&&&$$$&&&$$$&-%%%$$&%%%% :",
"::::::::::::::::: ==**=====o&&&$$&&&$$$%---%%%----%$$%%%%% :",
"::::::::::::::::::.========*o&&&&&&$$%%----%%%--&&&$$$%%%o :",
":::::::::::::::::: =======*=o&&&&&&$$$$&&&&$$$&&&&%$$$%%o ::",
"::::::::::::::::::: =====*==*o&&&&&&$$&&&&&&$&&&%%%%$%%o* ::",
":::::::::::::::::::: *==*==**Oo%%%&&&&&&&&&&&%%%%%%%%%o* :::",
"::::::::::::::::::::: OO==***O*ooo%%%%%%%%%%%%%%%%%ooo* ::::",
":::::::::::::::::::::: ==****O****ooo%%%%%%%%%%%ooo*** :::::",
"::::::::::::::::::::::: ****O*****O**ooooooooooo**O*. ::::::",
":::::::::::::::::::::::: .OO******O****O*****O****. ::::::::",
"::::::::::::::::::::::::::  .****O****O*****O**.  ::::::::::",
":::::::::::::::::::::::::::::                  :::::::::::::",
"::::::::::::::::::::::::::::::::::::::::::::::::::::::::::::",
"::::::::::::::::::::::::::::::::::::::::::::::::::::::::::::",
"::::::::::::::::::::::::::::::::::::::::::::::::::::::::::::"
};
