/* XPM */
static char *result[] = {
/* columns rows colors chars-per-pixel */
"60 60 16 1 ",
"  c black",
". c #573E23",
"X c #26244B",
"o c #4E326B",
"O c #7A6246",
"+ c #B97E32",
"@ c #FFE33D",
"# c #FFE652",
"$ c #434085",
"% c #8C4696",
"& c #B37DC9",
"* c #B59F89",
"= c #FFF7BA",
"- c #E89AD6",
"; c white",
": c None",
/* pixels */
"::::::::::::::::::::::::::::::::::::::::::::::::::::::::::::",
"::::::::::::::::::::::::::::::::::::::::::::::::::::::::::::",
"::::::::::::::::::::::::::::::::::::::::::::::::::::::::::::",
"::::::::::::::::::::::::::::::::::::::::::::::::::::::::::::",
"::::::::::::::::::::::::::::::::::::::::::::::::::::::::::::",
"::::::::::::::::::::::::::::::::::::::::::::::::::::::::::::",
"::::::::::::::::::::::::::::::::::::::::::::::::::::::::::::",
"::::::::::::::::::::::::::::::::::::::::::::::::::::::::::::",
"::::::::::::::::::::::::::::::::::::::::::::::::::::::::::::",
"::::::::::::::::::::::::::::::::::::::::::::::::::::::::::::",
":::::::::::::::::::::::::::::::::::::::::...::::::::::::::::",
"::::::::::::::::::::::::::::::::::::::::: ;;+.::::::::::::::",
":::::::::::::::::::::::::::::::::::::::::: ;;;+.::::::::::::",
"::::::::::::::::::::::::::::::::::::::::::: ;;; ::::::::::::",
":::..::::::::..::::::::::::::::::::::::::::.;;.:::::::::::::",
"::.;.::::::.+;.:::::::::::::::::::::::::::.;;; .::::::::::::",
"::.;.:::::.;;+:::::::::::::::::::::::::::.;;;+;;+..:::::::::",
"::+;.::::.;;;.::::::::::::::::::::::::::.;;;;;;;;;;.::::::::",
":.;;.:::.;;;+::::::::::::::::::::::::::::    .;;;;$$X:::::::",
":.;;.::.;;;;.::::::::::::::::::::::::::::::::: .;;$$$X::::::",
":.;;.::+;;;+::::::::::::::::::::::::::::::::::: ;$$%%%o:::::",
":.;;.:.;;;;.::::::::::::::::::::::::::::::::::::X$%%%%o:::::",
":.;;.:.;;;.oooX::::::::::::::::::::::::::::::::: X%%%%%o::::",
":.;+oo+;;.----$XX::::::::::::::::::::::::::::::::X$$$%% ::::",
":.;.-.;;+%%-&&$$$Xo:::::::::::::::::::::::::::::: $$$$% ::::",
":.;.%.;;.-&%&&&$$$&o:::::::::::::::::::::::::::::X%%$$X ::::",
"o+;+-.;+-&&o&&&$$&&$X:::::::::::::::::::::::::::o%%%$X* ::::",
"%&+--+;+-o  &%%&&&$$$X::::::::::::::::::::::::XX$%%%X*O:::::",
"&&%&&&+& ;  &=*o&&$$$X::::::::::::::::::::::ooo%$$$$X* :::::",
"&%%&&&& #; *==* %&$$$$X:::::::::::::::::::oo%%%%%$$X** :::::",
"%&&%&&o;#;o==** %%&$$&o:::::::::::::::: oo%%%%%%%%X** ::::::",
"&&&&%& ;@ ==O*.*o%&&&&&o:::::::::::::: o%&&&$$$$$X** :::::::",
"%&&%%%   ==O** **o&&&$$X::::::::::::: *o&&&$$$$XX*O ::::::::",
"=%%======*O** ***o&&$$$X::::::::::::: *o&&&$$$&&&oXX::::::::",
"O===O   OO** *****%&$$$$X:::::::::::: O*o&&&&&&&&&$$XX::::::",
"+  .++ **== ******o&&$$$ :::::::::::: **Oo%&&&&&&$$$$$Xo::::",
"@ : @.===. ********%&&&&& :::::::::::: *O**oo%&&&$$$&&&&o:::",
"@ : @    ::.*******o&&&$$X:::::::::::::  ***O=o%&&&&&&&&&o::",
" ::: :::::: ******OO%&$$$$X:::::::::::::: O*O===o&&$$$&&&& :",
"::::::::::::.*****O*%&&$$$$X:::::::::::::::  *=O=o$$%$$$&&o:",
":::::::::::: ****O**=%&&&&&$X:::::::::::::::: O*=o$$%$$$$&% ",
":::::::::::::.O**O*===%&&$$$$X::::::::::::::::: *o&&-%$$$$%o",
"::::::::::::: *OO**====%&$$$$$Xo:::::::::::::::: o&---&$$$%%",
"::::::::::::::.****=====%&$$$$&&XXX::::::::::::: $$%--&&$$$%",
":::::::::::::: =**======*%&&&&&$$$$XooXXXoooXXX $$%%%%&&&$$%",
"::::::::::::::: =======*==%&&&&$$$$&&&$$$&&&$$$&--%%%$$&%%%%",
":::::::::::::::: =====*====%&&&&$$&&&$$$%---%%%-----%$$%%%%%",
"::::::::::::::::: ===*======o&&&&&&&$$%%----%%%--&&&$$$$%%%o",
":::::::::::::::::: **======*=o&&&&&&$$$$&&&&$$$&&&&%%$$$%%o ",
"::::::::::::::::::: ======*==*o&&&&&&$$&&&&&&$&&&%%%%%%%%o* ",
":::::::::::::::::::: *===*==**Oo%%%&&&&&&&&&&&%%%%%%%%%oo* :",
"::::::::::::::::::::: OOO==***O*ooo%%%%%%%%%%%%%%%%%ooo** ::",
":::::::::::::::::::::: ===****O****ooo%%%%%%%%%%%ooo***. :::",
"::::::::::::::::::::::: .****O*****O**ooooooooooo**O*. :::::",
"::::::::::::::::::::::::: .OO******O****O*****O****. :::::::",
":::::::::::::::::::::::::::  .****O****O*****O**.  :::::::::",
"::::::::::::::::::::::::::::::                  ::::::::::::",
"::::::::::::::::::::::::::::::::::::::::::::::::::::::::::::",
"::::::::::::::::::::::::::::::::::::::::::::::::::::::::::::",
"::::::::::::::::::::::::::::::::::::::::::::::::::::::::::::"
};
