/* XPM */
static char *_f40ef73cf5a426ef49bd2c667fc8e56njKCUqYEaWldKNnU[] = {
/* columns rows colors chars-per-pixel */
"32 32 25 1 ",
"  c black",
". c gray6",
"X c None",
"o c #04453C",
"O c #046F60",
"+ c #56CBB4",
"@ c #03A897",
"# c #55393B",
"$ c #79504C",
"% c #9B665C",
"& c #7B3D3A",
"* c #793122",
"= c #F05545",
"- c #C72E25",
"; c #717171",
": c #F2D05C",
"> c gray74",
", c #8B4D1C",
"< c #F4FEFA",
"1 c #DB9138",
"2 c #FEF7D7",
"3 c #FEDDB1",
"4 c #E29F7F",
"5 c #B56D5D",
"6 c white",
/* pixels */
"                                ",
"                                ",
"                                ",
"                                ",
"                                ",
"                                ",
"                                ",
"                                ",
"                                ",
"                                ",
"                                ",
"                                ",
"                                ",
"                                ",
"                                ",
"                                ",
"                                ",
"                                ",
"                                ",
"                                ",
"                                ",
"                                ",
"                                ",
"                                ",
"                                ",
"                                ",
"                                ",
"                                ",
"        .......ooo.......       ",
"        .....oO+++Oo.....       ",
"        ....o@+++++@o....       ",
"        ...o@@@+++@@@o...       ",
"        ...o@@@@@@@@@o...       ",
"        ...o@@@OoO@@@o...       ",
"        ...oO@@@@@@@Oo...       ",
"        .#$%%OOOOOOO%%$#.       ",
"        .#%%%%%%%%%%%%%#.       ",
"        ..#$%%$%%%$%%$#..       ",
"        ..&##$$%%%$$##&..       ",
"        ...#$$$$%$$$$#...       ",
"        ..#$$$#$$$#$$$#..       ",
"        ..#####$$$#####..       ",
"        ...*=--#$#--=*...       ",
"        ...;:>,,#,,>:;...       ",
"        ..;<1,:::::,1<;..       ",
"        ..><,1::>::1,<>..       ",
"        .;<<,1:><>:1,<<;.       ",
"        .;<<,,1;<;1,,<<;.       ",
"        &233,11,,,11,332&       ",
"        &243,1111111,342&       ",
"        &335o,11111,o533&       ",
"        .&&&oO,,,,,Oo&&&.       ",
"        ....oOOo.oOOo....       ",
"        ....oOOo.oOOo....       ",
"        ...*-==*X*==-*...       ",
"        ..X*<<<*X*<<<*X..       ",
"        ..XX***&X&***XX         ",
"          XXXXXXXXXXXXX         ",
"           XXXXXXXXXXX          ",
"                                ",
};
