/* XPM */
static char *ede3d5f503694314db126e56e9fe8a6cF4wFotIjwK7ig5if[] = {
/* columns rows colors chars-per-pixel */
"32 32 25 1 ",
"  c black",
". c gray6",
"X c None",
"o c #04453C",
"O c #046F60",
"+ c #56CBB4",
"@ c #03A897",
"# c #55393B",
"$ c #79504C",
"% c #9B665C",
"& c #7B3D3A",
"* c #793122",
"= c #F05545",
"- c #C72E25",
"; c #717171",
": c #F2D05C",
"> c #DB9138",
", c #8B4D1C",
"< c gray74",
"1 c #F4FEFA",
"2 c #E29F7F",
"3 c #FEF7D7",
"4 c #FEDDB1",
"5 c #B56D5D",
"6 c white",
/* pixels */
"                                ",
"                                ",
"                                ",
"                                ",
"                                ",
"                                ",
"                                ",
"                                ",
"                                ",
"                                ",
"                                ",
"                                ",
"                                ",
"                                ",
"                                ",
"                                ",
"                                ",
"                                ",
"                                ",
"                                ",
"                                ",
"                                ",
"                                ",
"                                ",
"                                ",
"                                ",
"                                ",
"                                ",
"         ................       ",
"               ooo              ",
"         ....oO+++Oo.....       ",
"         ...o@+++++@o....       ",
"         ..o@@@+++@@@o...       ",
"         ..o@@@@@@@@@o...       ",
"         ..o@@@OoO@@@o...       ",
"         ..oO@@@@@@@Oo...       ",
"         #$%%OOOOOOO%%$#.       ",
"         #%%%%%%%%%%%%%#.       ",
"         .#$%%$%%%$%%$#..       ",
"         .&##$$%%%$$##&..       ",
"         ..#$$$$%$$$$#...       ",
"         .#$$$#$$$#$$$#..       ",
"         .#####$$$#####..       ",
"         ..*=--#$#--=*...       ",
"         ..;:>,,#,,<:;...       ",
"         . ;1,:::::,>1;..       ",
"         .;11&::<::>,1;..       ",
"         .;11&:<1<:>,1<&.       ",
"         .;1<&>;1;>,,222&       ",
"         &344&>,,,>>,252&       ",
"         &324&>>>>>>,522&       ",
"         &445&>>>>>,o&&&        ",
"         .&&&O,,,,,Oo           ",
"         .. oOOo.oOOo   .       ",
"         ..X*--*XoOOoX...       ",
"         .XX****X*==*XX..       ",
"         .XXXXXXX*11-*X.        ",
"          XXXXXXX*<<1*X.        ",
"           XXXXXXX***X          ",
"                                "
};
