/* XPM */
static char *result[] = {
/* columns rows colors chars-per-pixel */
"60 60 22 1 ",
"  c #55393B",
". c #793122",
"X c #7B3D3A",
"o c #04453C",
"O c #046F60",
"+ c #79504C",
"@ c #717171",
"# c #C72E25",
"$ c #8B4D1C",
"% c #9B665C",
"& c #B56D5D",
"* c #F05545",
"= c #DB9138",
"- c #E29F7F",
"; c #F2D05C",
": c #03A897",
"> c #56CBB4",
", c gray74",
"< c #FEDDB1",
"1 c #FEF7D7",
"2 c #F4FEFA",
"3 c None",
/* pixels */
"333333333333333333333333333333333333333333333333333333333333",
"333333333333333333333333333333333333333333333333333333333333",
"333333333333333333333333333333333333333333333333333333333333",
"333333333333333333333333333333333333333333333333333333333333",
"333333333333333333333333333333333333333333333333333333333333",
"333333333333333333333333333333333333333333333333333333333333",
"333333333333333333333333333333333333333333333333333333333333",
"333333333333333333333333333333333333333333333333333333333333",
"333333333333333333333333333333333333333333333333333333333333",
"333333333333333333333333333333333333333333333333333333333333",
"333333333333333333333333333333333333333333333333333333333333",
"333333333333333333333333333333333333333333333333333333333333",
"333333333333333333333333333333333333333333333333333333333333",
"333333333333333333333333333333333333333333333333333333333333",
"333333333333333333333333333333333333333333333333333333333333",
"333333333333333333333333333333333333333333333333333333333333",
"333333333333333333333333333333333333333333333333333333333333",
"333333333333333333333333333333333333333333333333333333333333",
"333333333333333333333333333333333333333333333333333333333333",
"333333333333333333333333333333333333333333333333333333333333",
"333333333333333333333333333333333333333333333333333333333333",
"333333333333333333333333333333333333333333333333333333333333",
"333333333333333333333333333333333333333333333333333333333333",
"333333333333333333333333333333333333333333333333333333333333",
"333333333333333333333333333333333333333333333333333333333333",
"333333333333333333333333333333333333333333333333333333333333",
"333333333333333333333333333333333333333333333333333333333333",
"333333333333333333333333333333333333333333333333333333333333",
"333333333333333333333333333333333333333333333333333333333333",
"33333333333333333333333333333ooo3333333333333333333333333333",
"333333333333333333333333333oO>>>Oo33333333333333333333333333",
"33333333333333333333333333o:>>>>>:o3333333333333333333333333",
"3333333333333333333333333o:::>>>:::o333333333333333333333333",
"3333333333333333333333333o:::::::::o333333333333333333333333",
"3333333333333333333333333o:::OoO:::o333333333333333333333333",
"3333333333333333333333333oO:::::::Oo333333333333333333333333",
"33333333333333333333333 +%%OOOOOOO%%+ 3333333333333333333333",
"33333333333333333333333 %%%%%%%%%%%%% 3333333333333333333333",
"333333333333333333333333 +%%+%%%+%%+ 33333333333333333333333",
"333333333333333333333333X  ++%%%++  X33333333333333333333333",
"3333333333333333333333333 ++++%++++ 333333333333333333333333",
"333333333333333333333333 +++ +++ +++ 33333333333333333333333",
"333333333333333333333333     +++     33333333333333333333333",
"3333333333333333333333333.*## + ##*.333333333333333333333333",
"3333333333333333333333333@;,$$ $$=;@333333333333333333333333",
"333333333333333333333333@2=$;;;;;$2@333333333333333333333333",
"333333333333333333333333@2$=;;,;;X22@33333333333333333333333",
"33333333333333333333333X,2$=;,2,;X22@33333333333333333333333",
"3333333333333333333333X---$$=@2@=X,2@33333333333333333333333",
"3333333333333333333333X-&-$==$$$=X<<1X3333333333333333333333",
"3333333333333333333333X--&$======X<-1X3333333333333333333333",
"33333333333333333333333XXXo$=====X&<<X3333333333333333333333",
"33333333333333333333333333oO$$$$$OXXX33333333333333333333333",
"33333333333333333333333333oOOo3oOOo3333333333333333333333333",
"33333333333333333333333333oOOo3.##.3333333333333333333333333",
"33333333333333333333333333.**.3....3333333333333333333333333",
"3333333333333333333333333.#22.333333333333333333333333333333",
"3333333333333333333333333.2,,.333333333333333333333333333333",
"33333333333333333333333333...3333333333333333333333333333333",
"333333333333333333333333333333333333333333333333333333333333"
};
