/* XPM */
static char *result[] = {
/* columns rows colors chars-per-pixel */
"60 60 24 1 ",
"  c #55393B",
". c #793122",
"X c #7B3D3A",
"o c #04453C",
"O c #046F60",
"+ c #79504C",
"@ c #717171",
"# c #C72E25",
"$ c #8B4D1C",
"% c #9B665C",
"& c #B56D5D",
"* c #F05545",
"= c #DB9138",
"- c #F08470",
"; c #E29F7F",
": c #F2D05C",
"> c #03A897",
", c #56CBB4",
"< c gray74",
"1 c #FEDDB1",
"2 c #FEF7D7",
"3 c #F4FEFA",
"4 c white",
"5 c None",
/* pixels */
"555555555555555555555555555555555555555555555555555555555555",
"555555555555555555555555555555555555555555555555555555555555",
"555555555555555555555555555555555555555555555555555555555555",
"555555555555555555555555555555555555555555555555555555555555",
"555555555555555555555555555555555555555555555555555555555555",
"555555555555555555555555555555555555555555555555555555555555",
"555555555555555555555555555555555555555555555555555555555555",
"555555555555555555555555555555555555555555555555555555555555",
"555555555555555555555555555555555555555555555555555555555555",
"555555555555555555555555555555555555555555555555555555555555",
"555555555555555555555555555555555555555555555555555555555555",
"555555555555555555555555555555555555555555555555555555555555",
"555555555555555555555555555555555555555555555555555555555555",
"555555555555555555555555555555555555555555555555555555555555",
"555555555555555555555555555555555555555555555555555555555555",
"555555555555555555555555555555555555555555555555555555555555",
"555555555555555555555555555555555555555555555555555555555555",
"555555555555555555555555555555555555555555555555555555555555",
"555555555555555555555555555555555555555555555555555555555555",
"555555555555555555555555555555555555555555555555555555555555",
"555555555555555555555555555555555555555555555555555555555555",
"555555555555555555555555555555555555555555555555555555555555",
"555555555555555555555555555555555555555555555555555555555555",
"555555555555555555555555555555555555555555555555555555555555",
"555555555555555555555555555555555555555555555555555555555555",
"555555555555555555555555555555555555555555555555555555555555",
"555555555555555555555555555555555555555555555555555555555555",
"555555555555555555555555555555555555555555555555555555555555",
"555555555555555555555555555555555555555555555555555555555555",
"5555555555555555555555555555oooo5555555555555555555555555555",
"55555555555555555555555555oO,,,>Oo55555555555555555555555555",
"5555555555555555555555555o>,,,,,>>o5555555555555555555555555",
"555555555555555555555555o>>>,,,>>>>o555555555555555555555555",
"555555555555555555555555$333>>>>>>>o555555555555555555555555",
"555555555555555555555555$::33>>>>>>o555555555555555555555555",
"5555555555555555555555...:333OOOOOOo555555555555555555555555",
"555555555555555555555.---****.%+ +%%+ 5555555555555555555555",
"555555555555555555555........%%%% %%% 5555555555555555555555",
"555555555555555555555555X11+<    +%% 55555555555555555555555",
"555555555555555555555555X11+4&1%1 + 555555555555555555555555",
"555555555555555555555555X22%4;11 +  555555555555555555555555",
"555555555555555555555555X221111; +++ 55555555555555555555555",
"5555555555555555555555555X1111;& +   55555555555555555555555",
"55555555555555555555555555XX&;#** 55555555555555555555555555",
"555555555555555555555555555&1**#..$5555555555555555555555555",
"55555555555555555555555555@<<*.=3@:$555555555555555555555555",
"55555555555555555555555555@3**:33<:=555555555555555555555555",
"55555555555555555555555555@3*>:<33@:@55555555555555555555555",
"55555555555555555555555555@3*>=@33@=@55555555555555555555555",
"5555555555555555555555555X&3*>Oo112X$55555555555555555555555",
"5555555555555555555555555X&<#>Oo1;1X$55555555555555555555555",
"5555555555555555555555555X;oOooo&11X$55555555555555555555555",
"55555555555555555555555555XoOoOOoXX$555555555555555555555555",
"555555555555555555555555555oOoOOo555555555555555555555555555",
"55555555555555555555555555.##oOOOo55555555555555555555555555",
"55555555555555555555555555.<<.--*.55555555555555555555555555",
"55555555555555555555555555....33<.55555555555555555555555555",
"55555555555555555555555555555.....55555555555555555555555555",
"555555555555555555555555555555555555555555555555555555555555",
"555555555555555555555555555555555555555555555555555555555555"
};
