/* XPM */
static char *_33a876cce194abad8cfa3b0c5f69f6eFQw0CkbXajhze8zt[] = {
/* columns rows colors chars-per-pixel */
"60 60 26 1 ",
"  c black",
". c gray6",
"X c None",
"o c #04453C",
"O c #046F60",
"+ c #03A897",
"@ c #56CBB4",
"# c #F4FEFA",
"$ c #8B4D1C",
"% c #F2D05C",
"& c #793122",
"* c #55393B",
"= c #79504C",
"- c #9B665C",
"; c #F05545",
": c #F08470",
"> c gray74",
", c #FEDDB1",
"< c #7B3D3A",
"1 c #B56D5D",
"2 c white",
"3 c #E29F7F",
"4 c #FEF7D7",
"5 c #C72E25",
"6 c #717171",
"7 c #DB9138",
/* pixels */
"                                                            ",
"                                                            ",
"                                                            ",
"                                                            ",
"                                                            ",
"                                                            ",
"                                                            ",
"                                                            ",
"                                                            ",
"                                                            ",
"                                                            ",
"                                                            ",
"                                                            ",
"                                                            ",
"                                                            ",
"                                                            ",
"                                                            ",
"                                                            ",
"                                                            ",
"                                                            ",
"                                                            ",
"                                                            ",
"                                                            ",
"                                                            ",
"                                                            ",
"                                                            ",
"                                                            ",
"                                                            ",
"                                                            ",
"                            oooo                            ",
"                          oO+@@@Oo                          ",
"                        .o++@@@@@+o.                        ",
"                        o++++@@@+++o                        ",
"                        o+++++++###$                        ",
"                        o++++++##%%$                        ",
"                        oOOOOOO###%&&&                      ",
"                      *=--=*=-&;;;;:::&                     ",
"                      *---*----&&&&&&&&                     ",
"                       *--=****>=,,<                        ",
"                        *=*,-,12=,,<                        ",
"                        **=*,,32-44<                        ",
"                       *===*3,,,,44<                        ",
"                       ***=*13,,,,<.                        ",
"                        ..*;;531<<..                        ",
"                        .$&&5;;,1...                        ",
"                        $%6#7&;>>6..                        ",
"                        7%>##%;;#6..                        ",
"                       6%6##>%+;#6..                        ",
"                       676##67+;#6..                        ",
"                       $<4,,oO+;#1<.                        ",
"                       $<,3,oO+5>1<.                        ",
"                       $<,,1oooOo3<.                        ",
"                        $<<oOOoOo<..                        ",
"                        ...oOOoOo...                        ",
"                        .XoOOOo55&X.                        ",
"                        XX&;::&>>&XX                        ",
"                        XX&>##&&&&XX                        ",
"                        XX&&&&&XXXXX                        ",
"                         XXXXXXXXXX                         ",
"                                                            "
};
