/* XPM */
static char *_a34056f45fe4f61b3ed3386246d1011qa4JX5XZ6ovpw95E[] = {
/* columns rows colors chars-per-pixel */
"60 60 25 1 ",
"  c black",
". c gray6",
"X c None",
"o c #04453C",
"O c #046F60",
"+ c #56CBB4",
"@ c #03A897",
"# c #F4FEFA",
"$ c #F2D05C",
"% c #55393B",
"& c #79504C",
"* c #9B665C",
"= c #793122",
"- c #F05545",
"; c #C72E25",
": c #F08470",
"> c gray74",
", c #7B3D3A",
"< c #FEDDB1",
"1 c white",
"2 c #E29F7F",
"3 c #FEF7D7",
"4 c #B56D5D",
"5 c #717171",
"6 c #DB9138",
/* pixels */
"                                                            ",
"                                                            ",
"                                                            ",
"                                                            ",
"                                                            ",
"                                                            ",
"                                                            ",
"                                                            ",
"                                                            ",
"                                                            ",
"                                                            ",
"                                                            ",
"                                                            ",
"                                                            ",
"                                                            ",
"                                                            ",
"                                                            ",
"                                                            ",
"                                                            ",
"                                                            ",
"                                                            ",
"                                                            ",
"                                                            ",
"                                                            ",
"                                                            ",
"                                                            ",
"                                                            ",
"                                                            ",
"                             ooo                            ",
"                           oO+++Oo                          ",
"                      ....o@+++++@o..                       ",
"                      ...o@@@+++@@@o.                       ",
"                         o@@#####@@o.                       ",
"                      ...o@##$$$##@o.                       ",
"                      ...oO###$###Oo.                       ",
"                      .%&*=-------=*&%                      ",
"                      .%***=;:::;=***%                      ",
"                      ..%%%>=====>%%%                       ",
"                      ..,<*1&<<<&1*<,                       ",
"                      ...%21*333*12%.                       ",
"                      ..%&%<<333<<%&%                       ",
"                      ..%%%=2<<<2=%%%                       ",
"                      ...=-;44444;-=.                       ",
"                      ...==--222--=5.                       ",
"                      ..5#6=->>>-=6#5                       ",
"                      ..5##$-###-$##>                       ",
"                      .5>#>$@-#-@$>##5                      ",
"                      ,22256@-#-@65##5                      ",
"                      ,242oO@-#-@4<<3,                      ",
"                      ,224oO@;>;@,<23,                      ",
"                      .,,,oooOOOo,4<<,                      ",
"                          oOOoooOO,,,                       ",
"                      ...XoOOoXoOOoX.                       ",
"                      ..XX==OoX=;;=XX                       ",
"                        X=::=oX===XXX                       ",
"                      . X=##-=XXXXXXX                       ",
"                      .  =>>#=XXXXXX                        ",
"                          ====                              ",
"                                                            ",
"                                                            "
};
